<svg xmlns="http://www.w3.org/2000/svg" xmlns:xlink="http://www.w3.org/1999/xlink" viewBox="0 0 353.05 539.97"><defs><style>.cls-1,.cls-10,.cls-12,.cls-6{fill:none;}.cls-2{fill:#fff;}.cls-10,.cls-12,.cls-2,.cls-5,.cls-6,.cls-7,.cls-8,.cls-9{stroke:#231f20;stroke-miterlimit:10;}.cls-3{clip-path:url(#clip-path);}.cls-4{font-size:10.08px;font-family:TimesNewRomanPSMT, Times New Roman;}.cls-11,.cls-5,.cls-7,.cls-9{fill:#231f20;}.cls-6,.cls-7,.cls-8{stroke-width:0.25px;}.cls-8{fill:#a59292;}.cls-10,.cls-9{stroke-width:0.5px;}</style><clipPath id="clip-path" transform="translate(-485.62 -269.38)"><rect class="cls-1" width="628.52" height="841.92"/></clipPath></defs><g id="Layer_2" data-name="Layer 2"><g id="Layer_1-2" data-name="Layer 1"><path class="cls-2" d="M562.8,377.05c2.61-2.72,3.58-6.57,4.46-10.23a9.39,9.39,0,0,0,.37-3.28,20,20,0,0,1,16.63-8.85c6.59,0,13,2.6,18.42,6.3a1.14,1.14,0,0,0,1,.28,48.7,48.7,0,0,0,.9,10.22,17.82,17.82,0,0,0,3,7.23c1.85,2.45,5.34,2.88,7.87,4.63,2.73,1.89,4.11,5.14,5.35,8.21l3,7.46a11.55,11.55,0,0,1,.58,9.13l-2,8.69a10.42,10.42,0,0,1-2.18,5.05,21.51,21.51,0,0,0-1.84,1.73c-1.24,1.57-1.1,4-2.6,5.34a4.14,4.14,0,0,1-1.42.8c-3,1.12-6.32.41-9.29-.73s-5.79-2.71-8.89-3.39c-6.88-1.5-13.93,1.59-21,1.47a22.7,22.7,0,0,1-20-13c-1.25-2.83-1.88-5.9-3.09-8.74-1.62-3.84-4.34-7.56-3.84-11.7a16,16,0,0,1,2-5.35l2.34-4.48a4.5,4.5,0,0,1,1.79-2.14c.71-.33,1.6-.3,2.17-.84a4.32,4.32,0,0,0,.72-1.23C558.35,377.69,560.66,377.44,562.8,377.05Z" transform="translate(-485.62 -269.38)"/><g class="cls-3"><text class="cls-4" transform="translate(350.39 536.88) scale(1.06 1)"> </text></g><path class="cls-2" d="M609.64,341a2.79,2.79,0,0,0,3.31-.64,20.58,20.58,0,0,0,1.15-2c.3-.45.7-.84,1-1.32a5,5,0,0,0,.35-.83l.62-1.7a19.35,19.35,0,0,0,1.42-5.84l0-4.91a2.8,2.8,0,0,0-.38-1.76c-.29-.39-.79-.62-1-1.06a1.92,1.92,0,0,0-.27-.51.77.77,0,0,0-.53-.19,3,3,0,0,0-2.6,1.24,43.14,43.14,0,0,1-.47,9c-.17,1.23-.4,2.45-.63,3.67l-.79,4.25a5.91,5.91,0,0,1-.37,1.37C610.25,340.26,609.78,340.48,609.64,341Z" transform="translate(-485.62 -269.38)"/><path class="cls-2" d="M561.5,312a68.12,68.12,0,0,0-1.58,9.26c-.29,3.36-.11,5.9-.14,7.61a55.06,55.06,0,0,0,2.27,15.38c.81,2.94,1.8,6.19,2.75,9.1,1.16,3.54,2.35,7.16,4.65,10.1a15.3,15.3,0,0,0,2.12,2,43,43,0,0,0,5.42,4.12,17.15,17.15,0,0,0,6.4,2.14c2.62.46,6.41,1.12,10.24-.63,2.21-1,3.41-2.35,5.81-5a35.32,35.32,0,0,0,5.65-8.56c1.16-2.52,1.28-3.63,2.91-10.55,2.89-12.3,3.43-12.77,3.67-16.81a79.46,79.46,0,0,0-.16-9.79,66.69,66.69,0,0,0-.76-6.88,56.52,56.52,0,0,0-1.53-6.57c-1-3.27-2.87-9.35-8-13.76-8.5-7.37-20-4.88-20.64-4.74a23.58,23.58,0,0,0-11.77,6.73,26.64,26.64,0,0,0-5.19,8.87A51.94,51.94,0,0,0,561.5,312Z" transform="translate(-485.62 -269.38)"/><path class="cls-2" d="M558.63,323.32c.11-.27-.25-.48-.53-.54a4.51,4.51,0,0,0-2.25,0,2.48,2.48,0,0,0-1.66,1.44,3.66,3.66,0,0,0-.18,1.09c-.06.91-.12,1.82-.16,2.73a10.63,10.63,0,0,0,.28,3.86c.2.61.5,1.18.72,1.78.64,1.66.72,3.59,1.85,5a20.66,20.66,0,0,1,1.47,2.75,3.41,3.41,0,0,0,.79,1,1.2,1.2,0,0,0,1.21.22c.42-1.17-.17-2.43-.46-3.64a17.19,17.19,0,0,1-.27-1.75l-.58-5.11a44.73,44.73,0,0,1,0-4.63,3.55,3.55,0,0,0-.06-.8c-.07-.33-.21-.64-.29-1A4.09,4.09,0,0,1,558.63,323.32Z" transform="translate(-485.62 -269.38)"/><path class="cls-5" d="M511.62,400.52c2.21-1.18,4.1-2.22,5.56-3,20.6-11.42,28.38-15,41-21.18,1.42-.7,3-1.42,4.54-1-2,2.56-4.06,5.38-4,8.62a14.28,14.28,0,0,0,.54,3.36c.93,3.84,1.9,7.76,4,11.07a26.93,26.93,0,0,0,3.73,3.9,15.8,15.8,0,0,1,1.53,1.64c.48.63.87,1.31,1.28,2a27.07,27.07,0,0,0,7.52,7.89c4.86,3.37,11.43,3.5,17.27,4.42a11.4,11.4,0,0,0,4.43.09,11.71,11.71,0,0,0,3.3-1.55c2.94-1.78,6-3.64,7.89-6.48,1.54-2.28,2.44-5.11,3.49-7.65s1.66-5.4.86-8c-.25-.81-.62-1.58-.85-2.39-.39-1.37-.37-2.82-.69-4.2a17.29,17.29,0,0,0-1.48-3.72c-.74-1.5-1.47-3-2.21-4.49a9.11,9.11,0,0,0-1-1.76c-.79-1-2-1.75-2.07-3,13.65,4.59,17.65,6.32,17.58,6.76a.52.52,0,0,0,.07.4h0c.12.18,3.12,1.27,10.42,3.71a37.45,37.45,0,0,1,14,5.62,28.36,28.36,0,0,1,9,8.77c1.28,2.07,2,4.22,3.44,8.43a105.2,105.2,0,0,1,3.55,12.78c1.81,8.58,1.22,10.56,2.29,16.22,3,15.84,11.32,20.06,8.77,26.89-1.67,4.48-6.66,6.38-10.77,7.95-13,4.94-22.86.79-38-1-1.9-.22-1.43-.12-39.1,1.38-26.88,1.07-40.39,1.59-43.85,1-13.84-2.25-24.27-6.76-34.57-4.18-3.66.91-7.06,1.16-13.87,1.66-5.82.43-7.74.22-8.65-1-1.07-1.47,0-3.34,2.8-10.78,3.12-8.25,4.31-12.58,4.59-13.64.93-3.45,1.05-4.81,1.83-8.66,1.95-9.54,3.7-18.15,8.43-26.54a53.21,53.21,0,0,1,7.66-10.36" transform="translate(-485.62 -269.38)"/><path class="cls-6" d="M593.51,326c1.2-.43,2-1.53,3.08-2.2a8.62,8.62,0,0,1,4.77-.91,5,5,0,0,1,.87.08,4.26,4.26,0,0,1,1.22.53,16.12,16.12,0,0,1,1.88,1.3.93.93,0,0,0,.59.12c.21,0,.48.1.45.31s-.13.2-.24.25a3.63,3.63,0,0,1-.94.17,24.31,24.31,0,0,0-3.5,1,10.4,10.4,0,0,1-6.22-.29c-.63-.23-1.36-.52-1.94-.17C593.47,326.06,593.46,326.05,593.51,326Z" transform="translate(-485.62 -269.38)"/><path class="cls-7" d="M598,323.52a2.43,2.43,0,0,0-1,1.54,1.54,1.54,0,0,0,.73,1.3,3.09,3.09,0,0,0,1.49.42,3.41,3.41,0,0,0,2.39-.61,1.84,1.84,0,0,0,.54-2.25,2.13,2.13,0,0,0-1.12-.85,3.46,3.46,0,0,0-2.06-.16,2.71,2.71,0,0,0-1.66,1.2" transform="translate(-485.62 -269.38)"/><path class="cls-6" d="M594,325.17a15.25,15.25,0,0,1,2.92-1.9" transform="translate(-485.62 -269.38)"/><path class="cls-6" d="M603.48,323a3.3,3.3,0,0,1,1.64.68,5.56,5.56,0,0,0,1.58.87" transform="translate(-485.62 -269.38)"/><path class="cls-6" d="M569.84,324.21a5,5,0,0,1,.84-.32,4.29,4.29,0,0,1,1.34-.11,8.48,8.48,0,0,1,3.79,1.16,6.11,6.11,0,0,0,2.38,1.15,1.58,1.58,0,0,1,.49.09.37.37,0,0,1,.23.39.43.43,0,0,1-.22.24,3.71,3.71,0,0,1-2.27.18c-2.4-.23-4.81.38-7.22.37a3.72,3.72,0,0,1-1.11-.15,14.86,14.86,0,0,1-1.46-.8c-.27-.13-.61-.15-.86-.27.11-.43,1.49-.79,1.89-1Z" transform="translate(-485.62 -269.38)"/><path class="cls-6" d="M564.86,325.27l3.15-1.21a6.72,6.72,0,0,1,1.74-.48" transform="translate(-485.62 -269.38)"/><path class="cls-6" d="M573.5,323.42c1,.55,2.37.29,3.39.86a4.72,4.72,0,0,1,1.37,1.34" transform="translate(-485.62 -269.38)"/><path class="cls-7" d="M570,327.14a3,3,0,0,0,1.41.26,6.79,6.79,0,0,0,2.55-.59,1.17,1.17,0,0,0,.41-.27.93.93,0,0,0,.17-.59,2,2,0,0,0-.78-1.5,3.11,3.11,0,0,0-1.61-.63,2.73,2.73,0,0,0-2.44.9C569.16,325.53,569,326.62,570,327.14Z" transform="translate(-485.62 -269.38)"/><path class="cls-7" d="M598.23,317a32.19,32.19,0,0,1,6.87-.45,3.07,3.07,0,0,1,.91.11,2.54,2.54,0,0,1,1.23,1.17,11.88,11.88,0,0,1,.93,1.81.59.59,0,0,1,.06.39c-.05.21-.29.31-.49.36-1.39.34-2.82-.13-4.23-.29-2.69-.3-5.34.54-8,1.24-.84.23-1.89.32-2.14-.71a2.31,2.31,0,0,1,.31-1.72C594.6,317.7,596.9,317.26,598.23,317Z" transform="translate(-485.62 -269.38)"/><path class="cls-7" d="M568.45,317.8a5.6,5.6,0,0,1-1.57.17c-.8-.08-1.64-.56-2.34-.18a2.1,2.1,0,0,0-.77.87,4.38,4.38,0,0,0-.59,1.28,1.48,1.48,0,0,0,.31,1.33,1.53,1.53,0,0,0,1.42.28,6,6,0,0,0,1.35-.64,5.17,5.17,0,0,1,2-.67,6.67,6.67,0,0,1,2,.28l1.86.46c1.15.29,2.58.63,3.63-.15a1.4,1.4,0,0,0,.2-2.33c-.88-.7-2.54-.79-3.61-.88A15,15,0,0,0,568.45,317.8Z" transform="translate(-485.62 -269.38)"/><path class="cls-8" d="M580.17,341.1a.29.29,0,0,0-.18.07c-.07.07,0,.19,0,.28a1,1,0,0,0,.34.37,2.23,2.23,0,0,0,1,.28c.53.06,2.47.31,1.2-.52A3.66,3.66,0,0,0,580.17,341.1Z" transform="translate(-485.62 -269.38)"/><path class="cls-6" d="M578.47,337.53a11,11,0,0,0-.76,2.84,3.39,3.39,0,0,0,0,.45,2.39,2.39,0,0,0,.51,1.12,2.89,2.89,0,0,0,.51.59.94.94,0,0,0,.73.21" transform="translate(-485.62 -269.38)"/><path class="cls-6" d="M594.25,337a9.87,9.87,0,0,1,.51,1.31,4.73,4.73,0,0,1,.18.91,2.73,2.73,0,0,1-1.24,2.44" transform="translate(-485.62 -269.38)"/><path class="cls-6" d="M581.52,325a1.5,1.5,0,0,1,.1.56,8.72,8.72,0,0,1-.13,2.45,3.36,3.36,0,0,1-1.3,2" transform="translate(-485.62 -269.38)"/><path class="cls-6" d="M591.14,325.34a2.7,2.7,0,0,0-.6,2.51" transform="translate(-485.62 -269.38)"/><path class="cls-6" d="M593.43,323.67a10.88,10.88,0,0,0-1.14,1.21" transform="translate(-485.62 -269.38)"/><path class="cls-6" d="M600,345.87a5.29,5.29,0,0,1,.82,4.86" transform="translate(-485.62 -269.38)"/><path class="cls-6" d="M577.28,353a51.67,51.67,0,0,0,7.36-.11,37.34,37.34,0,0,0,5.78-.66c.75-.16,1.5-.37,2.27-.47,1.47-.18,3,.05,4.36-.64" transform="translate(-485.62 -269.38)"/><path class="cls-6" d="M584.55,358a12.82,12.82,0,0,0,4-.13A13.59,13.59,0,0,1,592,357" transform="translate(-485.62 -269.38)"/><path class="cls-6" d="M576.57,352.49a20,20,0,0,0,5.18-1.89c1.14-.67,2.29-1.6,3.6-1.44,1.11.13,2.14,1.06,3.22.76.7-.2,1.21-.88,1.93-1a2.76,2.76,0,0,1,.9.09,22.29,22.29,0,0,0,6.26.46,2.13,2.13,0,0,1-1.44,1.8" transform="translate(-485.62 -269.38)"/><path class="cls-6" d="M590.47,340.49a2.63,2.63,0,0,1,1.8-.26.67.67,0,0,1,.19,0,.42.42,0,0,1,.2.36,1,1,0,0,1-.54.9,2.51,2.51,0,0,1-1,.31,3.38,3.38,0,0,1-1.52,0A2.53,2.53,0,0,1,590.47,340.49Z" transform="translate(-485.62 -269.38)"/><path class="cls-6" d="M583.19,341.86a4.16,4.16,0,0,0,1.8,1.38,3.52,3.52,0,0,0,3-.07,6.51,6.51,0,0,0,1.12-1.11c.13-.16.22-.29.29-.39" transform="translate(-485.62 -269.38)"/><path class="cls-9" d="M559.15,315.31a32.11,32.11,0,0,1-3.23-4.95,11.7,11.7,0,0,1-.95-2.18c-.73-2.41-.23-5,.28-7.45a8,8,0,0,1,.85-2.58c2.09-3.41,1.45-7.81,3.68-11.13a17.73,17.73,0,0,1,2.65-3.73c1.15-1,2.44-1.91,3.51-3a22.36,22.36,0,0,1,2.15-2.2,21.06,21.06,0,0,1,3.29-2,29.2,29.2,0,0,1,5.6-2.5,9.77,9.77,0,0,1,6,0c3.59,1.35,7.36-3.26,11.15-2.63a12.13,12.13,0,0,1,2.11.62l3.26,1.17a20.52,20.52,0,0,1,3,1.27,10.12,10.12,0,0,1,3.11,2.75c.56.77,1.66.22,2.62.21a10.06,10.06,0,0,1,6.28,2.27,16.73,16.73,0,0,1,4.24,5.28l-2-1.08a11.52,11.52,0,0,0-2.53-1.15,4,4,0,0,0-2.73.14,2.38,2.38,0,0,0,1.5.17c.51,0,1.13.08,1.32.55-.24.24-.52.44-.76.67a14,14,0,0,1,8.94,3.9c-3.15-.2-6-2.72-9.11-2.17a46.47,46.47,0,0,1,8.2,3.28c.95.49,2,1.2,2,2.27a29.88,29.88,0,0,0-4.55-2.85,10.4,10.4,0,0,0-5.21-1.12,72.76,72.76,0,0,1,10.15,6.89l-5.79-2.67a13,13,0,0,1,4.09,3.73,7.78,7.78,0,0,1-2.49-.41,21.63,21.63,0,0,1,2,2.59,4.08,4.08,0,0,1-1.41-.67l.35.24c-.22,1.54,1.64,2.78,1.45,4.31a3.41,3.41,0,0,1-1.29-.71,5.16,5.16,0,0,1,0,1.11.62.62,0,0,1-.17.42c-.33.29-.77-.22-.91-.64l.54,2.82a6.57,6.57,0,0,1-.14,4.23,6.25,6.25,0,0,1-1.09-2.49l-.64,5.93a12.94,12.94,0,0,1-1.07,2.42,6.19,6.19,0,0,1-.77,1.62c-.34.45-.78.79-1.14,1.21-.53.62-.86,1.39-1.33,2.05a2.74,2.74,0,0,1-2,1.32,1.18,1.18,0,0,1-1-.41c-.3-.41-.17-1-.15-1.49a10.07,10.07,0,0,0-.81-3.18c-.46-1.56-.44-3.27-1.19-4.72-1.07-.63-2.79-.4-4-.15a22.26,22.26,0,0,0-3.52,1.23,32.8,32.8,0,0,1-6.21,1.76,7.89,7.89,0,0,1-2.22.15c-2.62-.32-4.44-2.92-7-3.55a4.48,4.48,0,0,1-1.37-.43,3.36,3.36,0,0,1-1.05-1.43,19,19,0,0,0-4-5.32c-1.55-1.44-1.8-3.54-3.35-5s-3.93-2.21-5.83-1.28a7.75,7.75,0,0,0-2.33,2.06c-1.57,1.84-3.07,3.73-4.52,5.68-.73,1-.29,2.41-.27,3.65a11.77,11.77,0,0,1,0,2,8.31,8.31,0,0,1-.46,1.62,9.22,9.22,0,0,1-1.16,2.43,3,3,0,0,1-2.25,1.32,1,1,0,0,1-.71-.19C558.67,315.06,559,315.52,559.15,315.31Z" transform="translate(-485.62 -269.38)"/><path class="cls-10" d="M582.78,306.09a25.32,25.32,0,0,1,2.2,2.84,5.39,5.39,0,0,1,1.14,2.94l-.66-3.09,2.1,3.08a4.15,4.15,0,0,1-.31-1.6l1,1.26-.05-1L590.3,314c.12-2.59.23-5.27-.65-7.71" transform="translate(-485.62 -269.38)"/><path class="cls-10" d="M593.37,311a7.85,7.85,0,0,1,.74,2,1.11,1.11,0,1,0,.46.46c0,.53.06,1.05.08,1.58a4.58,4.58,0,0,0,1.08-1.53,2.44,2.44,0,0,1-.08,1.23,7.15,7.15,0,0,0,3.56-7.06" transform="translate(-485.62 -269.38)"/><path class="cls-10" d="M578.68,304.2a10.39,10.39,0,0,1,1.52,3.12,8.51,8.51,0,0,1,.17,1l.35,2.69" transform="translate(-485.62 -269.38)"/><path class="cls-10" d="M580.15,305.22a19,19,0,0,1,1,3.7,5.47,5.47,0,0,1-.69,4.28s-.08.09-.13.07,0-.12,0-.07" transform="translate(-485.62 -269.38)"/><path class="cls-9" d="M576.5,297.9a17.8,17.8,0,0,1-.8,3.58l-1.11-3.25-.43.94a10.68,10.68,0,0,0-2.75-1.56,2.2,2.2,0,0,0-.6,1.66l-.21,3.22a7.19,7.19,0,0,0-1.3-2.59,31.56,31.56,0,0,0,4,13.7,12,12,0,0,0,2.8,3.59c-3.19-3.12-3.92-7.9-5.87-11.9a2.44,2.44,0,0,0-1.11-1.29,56.31,56.31,0,0,0,2.61,8.43q-1.92-4.19-4.07-8.27c.65,3.56,2.92,6.69,3.42,10.27a4.53,4.53,0,0,1-1.36-2,35.44,35.44,0,0,1-2.69-11.2,5.41,5.41,0,0,1-1.53,2c-.32.22-.62,0-1,0a1.42,1.42,0,0,1-1-.55c-.26-.37-.26-.85-.48-1.24-.49.39-.55,1.27-1.17,1.37a1.55,1.55,0,0,1-.56-.06c-1.25-.21-2.3,1.07-3.56,1.14a.93.93,0,0,0-.44.06,1,1,0,0,0-.25.22,5.39,5.39,0,0,1-3.44,1.77,7,7,0,0,1,.9-2l-.92,1.86a13.28,13.28,0,0,1,.79-3.73l-1,1.89c-.22-.41.07-.89.34-1.27l2-2.78a14,14,0,0,1-2.89,2,5.52,5.52,0,0,1,2.81-3l-3.41-.05a18.51,18.51,0,0,1,4.07-.43,8.7,8.7,0,0,1-2.68-1.32,9.24,9.24,0,0,1,3.06.12,5.32,5.32,0,0,1-3.85-2.3q2.88.87,5.67,2a11.79,11.79,0,0,1-4.64-3.94L559,296a34.81,34.81,0,0,1-3-6.34,10.6,10.6,0,0,1,3.44,4L557.87,285a1.13,1.13,0,0,0-.33-.71c2.13,2.88,4.3,5.73,6.48,8.57a54,54,0,0,0-2.34-6.8l1,2.19a28.9,28.9,0,0,0-.74-4.22c.65-1.33,1.11-2.64,1.76-4a25.49,25.49,0,0,1-.36,4.44,9.65,9.65,0,0,1,1.42-4.45,2.49,2.49,0,0,0,.12,1.84c.47-1.76,1.12-3.75,2.8-4.48l-.69,2.39a17.68,17.68,0,0,1,1.73-3.09c.34-.47.79-1,1.37-.95a4.5,4.5,0,0,1-.26,1.82,12.17,12.17,0,0,1,6.58-4.18,1.72,1.72,0,0,0,.9-.4,1.33,1.33,0,0,0,.25-.45,5.24,5.24,0,0,0,.32-2.38c.37,1.21-.28,2.42-1,3.47.81-.62,1.64-1.2,2.5-1.75l-1.49,2,4.93-2.68a5.56,5.56,0,0,1-2.32,2.44,8.93,8.93,0,0,0,3.74-1.9,7.12,7.12,0,0,1-.84,1.76,35.94,35.94,0,0,1,3.18-1.84,1.28,1.28,0,0,0-.13,1,7.49,7.49,0,0,1,1.38-1.43,8.89,8.89,0,0,1,3-.89c.84-.23,1.7-.41,2.55-.62l-.84,1.08a12.88,12.88,0,0,1,3.33-.42,1.07,1.07,0,0,0-.69.48,15.33,15.33,0,0,1,2.86-.36,1.75,1.75,0,0,0-.71,1.07,20.55,20.55,0,0,1,3.84.18l-.91.52a10.61,10.61,0,0,1,3.18.3l-1,.37a32.65,32.65,0,0,1,3.24,1l-1.28.23,1.38.56-.95.57,1.57.57c-.32-.21-.71.29-.55.64a1.16,1.16,0,0,0,.95.51c.06,0-.08.1-.1,0s0-.13.09-.18a7.58,7.58,0,0,1,4.31-1.51,5.83,5.83,0,0,0-2.87.86,17.4,17.4,0,0,0,3.31.11,4,4,0,0,0-1.73.2,6.61,6.61,0,0,0,2.83.26l-1.28.11a36.17,36.17,0,0,1,3.53,1.12,5,5,0,0,1,3.06,2.33h-1.7a5.63,5.63,0,0,1,1.9,1.56l-.52.14a6.82,6.82,0,0,0,1.91.84,2.18,2.18,0,0,1,1.47,1.36l-3.51-.71.31.35a2.8,2.8,0,0,0-2-1.42A14.25,14.25,0,0,0,612,282a2.46,2.46,0,0,0-1.2.23,2.43,2.43,0,0,0-.95,2.21,9.7,9.7,0,0,0,.5,3.15c1,2.87,3.24,5.22,3.87,8.19.46,2.15,0,4.38-.06,6.58a5.63,5.63,0,0,0,.35,2.48,6.46,6.46,0,0,1,.33.76c.24.81-.15,1.81.38,2.46l.77-2.89c-.13.07-.29-.09-.24-.22.11,1.29.13,2.6.24,3.89a2.51,2.51,0,0,1-.37,1.93,1.94,1.94,0,0,1-2.34.07c-.74-.41-1.34-1.05-2.11-1.39a3.14,3.14,0,0,0-3.73,1.08.67.67,0,0,1-.2-.55,4.18,4.18,0,0,0-4,.74c-1.16,1-1.73,2.59-3,3.47a2.55,2.55,0,0,0,.21-1,4.74,4.74,0,0,1-1.11.94l.17-.76a4.64,4.64,0,0,0-1.14.88,1.33,1.33,0,0,1,0-.79l-.87.87c0-.34.29-1.41,0-1.68s-.7,0-1-.15a2.59,2.59,0,0,1-1.12-2.72L594,312.46l.18-1.36-1,1.21a2.37,2.37,0,0,1,.25-1,1.82,1.82,0,0,0-.61.86c-.53.21-1.23.37-1.59-.07a1.4,1.4,0,0,1-.21-.5c-.15-.6-.28-1.2-.37-1.81-.6-.17-.94.87-1.56.86-.37,0-.62-.4-.72-.75a2.24,2.24,0,0,0-.41-1c-.48-.49-1.29-.21-1.9.1a3.67,3.67,0,0,0-.39-2,3.22,3.22,0,0,1-2.15,2.49c-.86,1.68-1.82,3.47-3.51,4.32a17,17,0,0,0,0-9.87c-.48.09-.65.67-.82,1.13s-.65.95-1.06.69c.21-.77.56-.34.36-1.29-.16-.74-.44-1.46-.65-2.18l-.65-2.19A7.36,7.36,0,0,1,576.5,297.9Z" transform="translate(-485.62 -269.38)"/><path class="cls-10" d="M569.94,300.16a21.28,21.28,0,0,0,3.8,4L572,302.54a11.32,11.32,0,0,1-2.93-3.55q2.28,2,4.4,4.11a19.87,19.87,0,0,1-3.44-4.21c1.17,1.13,2.33,2.28,3.46,3.45a25.12,25.12,0,0,1-3.49-5.81,50.46,50.46,0,0,1,4.36,5.53,29.73,29.73,0,0,1-2.82-5.16l3.56,5.5-1-3.51a5.19,5.19,0,0,0-.39-1.23,10.23,10.23,0,0,0,.05,1.46,1.89,1.89,0,0,0,.86,1.63c-.35-.57-.72-1.13-1.12-1.66" transform="translate(-485.62 -269.38)"/><path class="cls-10" d="M556.64,311.41a13.19,13.19,0,0,0,1,3.23,7.85,7.85,0,0,1,.73,1.78,2,2,0,0,1-.37,1.82,12.94,12.94,0,0,0,.89-3.16l0,3a9.22,9.22,0,0,1,.72-2.23,43.61,43.61,0,0,1,.05,5.24,16.73,16.73,0,0,1,2.43-7.71" transform="translate(-485.62 -269.38)"/><path class="cls-10" d="M565.57,300.26a10.67,10.67,0,0,0,1.22,6.87" transform="translate(-485.62 -269.38)"/><path class="cls-10" d="M566.43,301.47a19.74,19.74,0,0,0,.11,3.52" transform="translate(-485.62 -269.38)"/><path class="cls-10" d="M563.93,302c.47,1.59.66,3.87,1.78,5.12" transform="translate(-485.62 -269.38)"/><path class="cls-10" d="M564.86,302.7l.4,2.44" transform="translate(-485.62 -269.38)"/><path class="cls-10" d="M563.08,304.13c.62,1.11,1.19,2.24,1.72,3.38" transform="translate(-485.62 -269.38)"/><path class="cls-10" d="M563.2,306.6a7.75,7.75,0,0,0,1.46,1.67" transform="translate(-485.62 -269.38)"/><path class="cls-11" d="M615.15,324.24a.33.33,0,0,1,.2.08.45.45,0,0,1,.07.3l-.37,6.32a6.14,6.14,0,0,1-.14,1.2c-.39,1.59-1.93,2.81-2,4.45l.33-3.81c0-.42.08-.84.15-1.25s.17-.8.25-1.19a17.27,17.27,0,0,0,.39-4.24C614,325.07,613.65,324,615.15,324.24Z" transform="translate(-485.62 -269.38)"/><path class="cls-11" d="M555.52,326.68l-.08,1.58-.18,3.16a2.43,2.43,0,0,0,.09,1,3.51,3.51,0,0,0,.91,1.09,3.64,3.64,0,0,1,1,2.42,2,2,0,0,0,.77-1.89,13.65,13.65,0,0,0-.49-2.08c-.34-1.47.09-3-.21-4.4C557.1,326.64,555.64,324.62,555.52,326.68Z" transform="translate(-485.62 -269.38)"/><path class="cls-12" d="M600.53,402.77l1.67-2.27a8.76,8.76,0,0,1,1.44-1.66,7.07,7.07,0,0,1,4.32-1.35c1.54-.05,3.09.13,4.62,0" transform="translate(-485.62 -269.38)"/><path class="cls-12" d="M565.52,397.1a9.94,9.94,0,0,0,5.08,1.67c1.55.06,3.15-.23,4.62.25a5.54,5.54,0,0,1,3.47,4.13" transform="translate(-485.62 -269.38)"/><path class="cls-12" d="M612.58,397.62h1.23" transform="translate(-485.62 -269.38)"/><path class="cls-12" d="M565.8,397.3a12.83,12.83,0,0,1-4.28-.26" transform="translate(-485.62 -269.38)"/></g></g></svg>