<svg xmlns="http://www.w3.org/2000/svg" viewBox="0 0 240.65 527.4"><defs><style>.cls-1{fill:#fff;}.cls-1,.cls-2,.cls-3,.cls-4{stroke:#231f20;stroke-miterlimit:10;}.cls-2{fill:#231f20;}.cls-3{fill:none;}.cls-4{fill:#362063;}</style></defs><g id="Layer_2" data-name="Layer 2"><g id="Layer_1-2" data-name="Layer 1"><path class="cls-1" d="M174.7,502.6c-.89,2.25-2.61,5-.86,6.7.9.85,2.29.83,3.52.95,7.27.7,12,7.7,18.09,11.76,6.33,4.24,14.34,5.27,21.94,4.77,3.32-.22,6.75-.76,9.47-2.66s4.51-5.49,3.39-8.62c-.87-2.42-3.18-4-5.51-5.09-5-2.33-10.49-3.16-15.58-5.18S199.1,499.49,198,494.14c-1.54-7.11,4.11-14.41,2.31-21.46a6.25,6.25,0,0,0-2.68-4c-5.75-3.33-16,7.48-19.59,11.47C171.93,486.8,177.62,495.21,174.7,502.6Z"/><path class="cls-1" d="M143.39,487.59c.88,2.25,2.59,5.05.85,6.71-.9.85-2.27.82-3.49.94-7.21.7-11.91,7.7-17.93,11.76-6.28,4.25-14.22,5.28-21.76,4.77-3.29-.22-6.69-.76-9.39-2.66s-4.47-5.49-3.36-8.62c.86-2.41,3.16-4,5.46-5.09,4.92-2.32,10.4-3.16,15.45-5.18s10-5.73,11.12-11.08c1.52-7.12-4.08-14.41-2.3-21.46a6.3,6.3,0,0,1,2.67-4c5.7-3.32,15.81,7.48,19.42,11.47C146.13,471.8,140.49,480.21,143.39,487.59Z"/><path class="cls-1" d="M8.62,129c2.3-.64,3.45-1,3.85-1.11a11.07,11.07,0,0,0,3.45-2,38.79,38.79,0,0,1,12.84-6.27c6.74-1.57,12,.77,17.12,3.06,1.15.51,2.71,1.32,3.06,2.79a4.25,4.25,0,0,1-.79,3.13c-2.26,3.66-6.22,5.92-10.21,7.52s-8.21,2.71-12,4.8c-3,1.71-6,4.78-5.37,8.21,1.2,6.33-1.22,12.84-.93,19.28A37.76,37.76,0,0,0,23.92,184c.66,1.26.16,3.19.79,4.46,1.69,3.41,5.92,4.71,8.4,7.6,1.29,1.5,3,2.78,4.42,4.17A12.68,12.68,0,0,1,41,205c.72,2.11.83,4.67,1.87,6.65l1.87,3.54a9.35,9.35,0,0,1,1,5.28,1,1,0,0,1-.21.64,1.13,1.13,0,0,1-.7.28,3.89,3.89,0,0,1-2.68-.22,3.48,3.48,0,0,1-.8-.78A20.14,20.14,0,0,1,38,214.42a20.57,20.57,0,0,0-1.55-4,7.35,7.35,0,0,1-1.36-2.63,5.6,5.6,0,0,0,1.25,2.58,11.71,11.71,0,0,1,.82,1.62,48.17,48.17,0,0,1,3.18,9.87,16.76,16.76,0,0,1,.35,6.34c-.17,1-.48,1.91-.69,2.88a26.47,26.47,0,0,0-.39,5.12c0,1.8-1.83,3.18-3.18,4.37a.78.78,0,0,1-.36.21c-.28,0-.49-.25-.59-.51-.49-1.26,0-2.69-.31-4a4,4,0,0,1,.14-2,41,41,0,0,1-.86,7.58,1.57,1.57,0,0,1-.25.63,1.39,1.39,0,0,1-.7.36,3.76,3.76,0,0,1-1.36.25,1.38,1.38,0,0,1-1.17-.63c-.38-.69.11-1.61-.24-2.32-.46,0-.63.6-1,.9a1.19,1.19,0,0,1-1.62-.31,3.82,3.82,0,0,1-.61-1.72,26.35,26.35,0,0,0-1.77-5.7,2.21,2.21,0,0,1-3.66-.64c-.55-1.31.21-3-.57-4.16-2.24-3.42-1.11-8.21-3.14-11.76-1.9-3.32-2.88-7.12-4.25-10.68a15.5,15.5,0,0,1-1.22-4.4,5.4,5.4,0,0,0-1.41-3.17,8.59,8.59,0,0,1-2.1-3c-.43-1.56.39-3.17.57-4.78a12.44,12.44,0,0,0-.61-4.43c-.79-3-1.57-5.92-2.36-8.88A187.67,187.67,0,0,1,.72,141.84c-.13-2.09-.58-4.22.38-6.08a13.54,13.54,0,0,1,1.47-2.14,18.58,18.58,0,0,1,4.5-4.09A4.18,4.18,0,0,1,8.62,129Z"/><path class="cls-1" d="M107,43.29a1.59,1.59,0,0,0-1.23.23c-.56.47-.33,1.36-.33,2.1,0,1.21-.74,2.29-1,3.47a6.89,6.89,0,0,0,1,4.81c.83,1.46,1.9,2.77,2.67,4.26a3,3,0,0,0,.92,1.29c.45.29,1.2.2,1.35-.32a1.27,1.27,0,0,0,0-.64,37.47,37.47,0,0,1-.68-9.8c.06-1,.85-3.5.39-4.34S107.72,43.38,107,43.29Z"/><path class="cls-1" d="M155.75,44.78a1.5,1.5,0,0,1,.78-.44,1,1,0,0,1,1,.64,3.12,3.12,0,0,1,.19,1.22c0,4.53-.56,9.25-3,13.06a15.15,15.15,0,0,1-2.12,2.6,1.55,1.55,0,0,1-1.35.6,13.94,13.94,0,0,1,.76-5.17A35.51,35.51,0,0,0,153,49.9c0-.9-.23-2.11.22-2.92A11.2,11.2,0,0,1,155.75,44.78Z"/><path class="cls-1" d="M116,78A17.09,17.09,0,0,1,111,92.16a16.52,16.52,0,0,0-2.58,2.71,7.7,7.7,0,0,0-1.09,3.37c-.63,5.75,2.76,11.08,6,15.83,1.64,2.37,3.37,4.8,5.83,6.31a21.32,21.32,0,0,0,7,2.28c5.36,1.07,10.85,2.15,16.24,1.32,2.25-.35,4.44-1,6.71-1.26.28,0,.7.15.55.39,2.35-2.35,3.43-5.68,4-9s.81-6.63,1.78-9.81c.6-2,1.48-4.21.46-6-1.29-2.31-4.6-2.2-7-3.39A8.54,8.54,0,0,1,145.12,90a25.28,25.28,0,0,1-1.07-6.36c-.33-4,1-8.43-1-11.88-1.45-2.54-4.48-3.85-7.4-4a25.19,25.19,0,0,0-8.59,1.57,22.4,22.4,0,0,0-3.9,1.49C120.2,72.43,118,75.31,116,78Z"/><path class="cls-1" d="M111.23,44l-.16,8.48a32.2,32.2,0,0,0,.63,6.64c.55,2.86,1.17,5.73,1.76,8.59a43.76,43.76,0,0,0,2.35,8,33.47,33.47,0,0,0,1.51,3c1.34,2.52,4,4,6.56,5.24s5.82.85,8.69.73a12.53,12.53,0,0,0,4.46-.85c.45-.19.88-.43,1.31-.66,3.18-1.74,5.35-5.11,7-8.34a67.47,67.47,0,0,0,3.87-10.14c1.55-4.81,2.9-9.71,3-14.75.11-6.06,1.78-12.08.58-18-.69-3.41-1.17-7-3-9.94-2.28-3.75-6.27-6.1-10.29-7.87a24.05,24.05,0,0,0-7.88-2.26,10.93,10.93,0,0,0-7.73,2.18,30,30,0,0,0-6.74,7.81c-.85,1.45-1.7,2.9-2.53,4.36-1.7,3-1.89,6.73-2.74,10.07A32.55,32.55,0,0,0,111.23,44Z"/><path class="cls-2" d="M109.35,41.6a8,8,0,0,1-2.19-3.49A6.78,6.78,0,0,1,107,40.8c0-2,0-3.93,0-5.9a.8.8,0,0,1-.64.62,15.94,15.94,0,0,1,.47-3.83,1.84,1.84,0,0,0-1.41.54,14.51,14.51,0,0,0,.72-2.41,3,3,0,0,0-1.66.23,69.41,69.41,0,0,0,2.1-6.9,13.76,13.76,0,0,1,1.2-3.62,2,2,0,0,0,2.16-2.32l-1.62-.07,1.13-1.82a1,1,0,0,0,.22-.72c-.07-.25-.46-.39-.58-.16a4.11,4.11,0,0,1,1.67-3,11.75,11.75,0,0,1,3.14-1.59c2.55-1,4.62-3.29,6.78-5s4.21-3.23,6.75-3.78,5.14,0,7.72-.11c1.93-.12,3.85-.67,5.77-.47s4,1.47,4.14,3.4a2.61,2.61,0,0,1,3.67,1.34c1.61-.46,2.84,1.36,4.23,2.29,2,1.35,5.29,1.1,6.33,3.32.54,1.15.21,2.59.8,3.72s1.7,1.58,2.18,2.62a4.62,4.62,0,0,1,.29,2l0,10.45L161.19,27a2.69,2.69,0,0,1-.24,2.36,1.92,1.92,0,0,1-.8-2v4c0-.43,0-.64,0-1.08a1.94,1.94,0,0,1,.59,1.63c.07,1.92.09,3.84.05,5.76l-.39-5.12a14.28,14.28,0,0,0-.89,3.47,5.73,5.73,0,0,1-.45-2.38c-.4,1.65-.76,3.32-1.09,5,0-.43-.21-1-.56-1a.42.42,0,0,0-.2,0c-.51.24-2.52,4.85-3.06,6.13-.68.21-1.12.66-1.8.88a57,57,0,0,1-4.12-14.29l-1.45,3.47a11.71,11.71,0,0,0-.71-5.8,1.66,1.66,0,0,1-.36,1.74,12.13,12.13,0,0,0-1.91-5.49c-.62.61-1.2,1.25-1.76,1.91a5.14,5.14,0,0,0-7-6.6,10.41,10.41,0,0,0-2.6,2l-5.57,5.47a25.46,25.46,0,0,1,.17-7.24L123.68,27a8.11,8.11,0,0,0-1.33-2.7L121,30l-.76-1.48-1,6.06a1.55,1.55,0,0,1-1.08-1.35,9.74,9.74,0,0,1-.37,4.12l-1.09-1.66L116.51,39,115,38.57a2.39,2.39,0,0,1-.52,1.84l-3.42-1.92C111.48,40,110.29,40.31,109.35,41.6Z"/><path class="cls-3" d="M31.53,218.48c1.07,1.79,1.08,4,1.68,6,.54,1.79,1.57,3.59,1.16,5.41"/><path class="cls-3" d="M27.69,221.16,29,224.67a15.55,15.55,0,0,1,.61,1.78c.9,3.33-.14,7,.7,10.29"/><path class="cls-3" d="M22.4,220.44q1.55,5.81,2.63,11.73"/><path class="cls-1" d="M214.2,90c.5-.29.75-1.23,1-2.23a9.89,9.89,0,0,0,.22-1.07c.3-2.23-.29-3.86-.57-6.75,0-.17-.05-.53-.12-1a16.9,16.9,0,0,0-.42-2c-.92-7.23-1.62-12.59-2.16-15.27a37.29,37.29,0,0,1-.21-6.52,1.24,1.24,0,0,1,.15-.74.86.86,0,0,1,.41-.29,2.24,2.24,0,0,1,2.2.49,5,5,0,0,1,1.29,2,13.72,13.72,0,0,1,.64,2c0-3-.06-5.84-.06-8.82a1.41,1.41,0,0,1,.07-.54,1,1,0,0,1,.42-.47,2.37,2.37,0,0,1,2.94.67,7,7,0,0,1,1.25,3l1.05,4.46A6.81,6.81,0,0,1,224.42,51a1.62,1.62,0,0,1,1.66-.56c.61.28.72,1.09.77,1.76a20.42,20.42,0,0,0,.79,4.25c.46,1.53,1.1,3,1.61,4.52a29.88,29.88,0,0,1,1.61,9.46A10.29,10.29,0,0,0,232,73.8c.12.3.43.65.69.46a.56.56,0,0,0,.15-.42,62.1,62.1,0,0,0-.42-12,5.15,5.15,0,0,1,.17-2.82c.37-1,1.24-2.09,2-2,.18,0,.48.15,1,1.08a8.87,8.87,0,0,1,1.05,2.87c.4,3,.48-.36,1.3,6.13.89,7.11,1.3,14.56,1.3,14.56.54,9.81.12,7.93.52,12.14.34,3.55.62,4.65.2,6.72-.35,1.72-1,3.41-1.58,6.92-.06.37-.14.92-.21,1.59a40.37,40.37,0,0,0,.27,9.16c.13,1.4,0,.66.16,7.46.17,7.53.31,8,.36,11.55a218.4,218.4,0,0,1-1.3,22.47c-.14,1.42-.35,3.26-.76,5.56-.2,1.12-.33,1.66-.86,4.08-1.52,6.87-1.59,7.43-2.28,8.58-.48.81-2.08,3.49-4.4,3.64a14.11,14.11,0,0,1-2.17-.43c-2.09-.49-3.13-.73-4.47-1.1-1.78-.51-3.14-1-3.37-1.06-4.05-1.44-8.62-7.59-9.88-9.34-.41-.5-1-1.25-1.82-2.12-1.22-1.35-2-2-2.78-2.9a42.1,42.1,0,0,1-3.33-4c-6.62-8.54-9.93-12.82-9.08-15.95.89-3.28,6.33-4.59,14.08-6.66,1.45-.39,2.2-.89,3.32-.78,3.75.36,7.25,5.16,8.89,8.71.51,1.09.85,2.1,1.27,2.06.67-.07.78-2.72,1.37-7,.56-4,.68-3.26,1.37-7.84a85.31,85.31,0,0,0,1.17-10.76,54.8,54.8,0,0,0-.49-10c-.47-3.17-.71-4.76-1.27-5.68-2.63-4.34-7.7-2.52-11.73-7.24-1.61-1.9-.66-2-3.12-5.58A29.49,29.49,0,0,0,201,87c-2.37-1.87-3.88-2.35-3.81-3.43s1.91-2.19,3.52-2.25c.36,0,1.5,0,4.2,2,2.11,1.54,2.62,2.41,5.28,4.6S213.71,90.25,214.2,90Z"/><path class="cls-3" d="M219.58,148.72a12.77,12.77,0,0,0,.23,4.81c.14.59.68,2.34.51,1.75-.51-1.75,1,3.27,1.39,4.93"/><path class="cls-3" d="M217.06,65a68.84,68.84,0,0,1,2.4,7.8"/><path class="cls-3" d="M223,59.74a10.85,10.85,0,0,0-.07,4.54c.32,1.65,1,3.27,1,5"/><path class="cls-3" d="M213.72,89.74c1.45-.07,2.9-.07,4.34,0a7.53,7.53,0,0,1,3.17.61,4,4,0,0,1,1.83,1.87c.27.57.4,1.2.65,1.77A2.25,2.25,0,0,0,225,95.28"/><path class="cls-3" d="M224,70.44l.2,1.85"/><path class="cls-3" d="M222.75,57.46V59"/><path class="cls-4" d="M94.34,319.62c1.43,6.13,2.38,7.65,5.5,20.18.68,2.74,1.84,7.38,3.06,13.15,0,0,2.57,12.11,4,22.62,2.33,17.42-2.26,21.29-1.53,39.14.76,18.44,7.1,49.45,12.85,60.53.71,1.38,3.56,6.58,1.52,10.4a8.73,8.73,0,0,1-3.23,3.18c0-.06,4.23-5.76,9.65-5.94,2.61-.08,5.26,1.12,5.2,1.53s-1.8.26-3.06.31c-2.72.1-6.68.89-11.79,4.1,14.62,4.92,27.2,6.81,32,1.1,3.73-4.47-.49-9.76-4-30.58s-.72-24.23-5.2-46.16c-1.41-6.94-2.23-9.23-2.75-15-1-11.24.45-20.45,1.83-28.74,2.65-15.89,4.47-13.88,4.28-21.1-.17-7-2-12.84-1.83-24.46,0-.43,0-2.86.31-6.11.58-7.24,1.14-14.12,2.75-14.37,2.49-.39,7.82,15.15,10.39,29.65.93,5.25.46,4.47,2.83,21.65,1.27,9.16,1.87,13.84,2.83,18.44,1.55,7.39,5.43,14.41,5.71,21.93.37,9.67,4,19.72,3.24,29.37-.43,5.39-1.4,10.81-.77,16.19.54,4.66,2.26,9.15,3.11,13.78a74.41,74.41,0,0,1,.77,14l-.21,29.06c10-3.35,21,.85,31.54-.3a7.36,7.36,0,0,0,2.88-.76,4.67,4.67,0,0,0,2.1-4.55,11.82,11.82,0,0,0-1.6-5c-2-3-2.42-8-3.22-17.85-1.72-21.29-1.54-35.77-1.54-35.77.36-30.52-2.05-64.43-3.64-77.9a142.81,142.81,0,0,1-1.23-20.18c.05-3.7.22-4.4.42-11.72.2-7.55.21-13.38.2-16.71a176.91,176.91,0,0,0-.63-18.34c-.13-1.3-.45-4.18-.9-7.65-.57-4.31-.86-5.78-1.23-8.56-.88-6.66-.34-6.7-1-11.49,0,0-1.53-11.17-6.51-18a10.59,10.59,0,0,0-3.52-3.22,14,14,0,0,0-5.09-1.28,161,161,0,0,0-27-1.32c-7,.37-15.93-1.41-22.43,1.57-3.84,1.76-6.4,5.1-9.53,7.76a31.32,31.32,0,0,1-19,7.19c-2.31.08-5.15.17-6.19,2a13.92,13.92,0,0,0-.71,2.3c-.86,2.36-4,3.16-6.35,2.39a17.78,17.78,0,0,0-3.72,7.42c-1.7,7.82,3.53,12.4,7.06,22.06C95.23,301.32,90.1,301.52,94.34,319.62Z"/><path class="cls-2" d="M111.2,89.62c.25.27.67.25,1,.31s.77.37.64.71c-.08.19-.3.28-.48.38a2.47,2.47,0,0,0-1.09,1.54,7.26,7.26,0,0,0-.14,1.92,3.8,3.8,0,0,0,.17,1.26,4,4,0,0,0,.39.7l2,3a10.16,10.16,0,0,0,2.52,2.78,7.21,7.21,0,0,0,1.34.65c3.06,1.25,5.75,3.41,9,4.26,6,1.61,12.78,2.3,18.62,0,1.41-.54,3.11-.13,4.54-.62a7,7,0,0,0,3.63-2.58,6.36,6.36,0,0,0-.56-7.31,3,3,0,0,1-.77-1.26,17.9,17.9,0,0,1,2.39.53l5.3,1.44c.47.13.45.63.81,1,.15.14.28.3.44.43a2.1,2.1,0,0,0,1.68.36,11.32,11.32,0,0,0,1.7-.48,8.62,8.62,0,0,1,4.19-.18c3.43.72,7,1.29,10.44,1.89a16.88,16.88,0,0,1,3.3.79,17.44,17.44,0,0,1,5.68,4.18c2.48,2.4,4.12,5.59,6.57,8a.86.86,0,0,1,.34.65c2.22,2.65,4.45,5.07,6.67,7.72a9.31,9.31,0,0,1,1.46,2.12c.3.65.43,1.38.75,2a7.91,7.91,0,0,0,1.93,2.23l11.49,10.32c1.31,1.18,2.83,2.26,4.17,3.41-.22.73-.29,1.55-.5,2.28a11.16,11.16,0,0,0-.49,2.35c0,.9.13,1.81,0,2.71a2.44,2.44,0,0,1-1.4,2.16c-.85.29-1.66.86-2.49,1.2a10.9,10.9,0,0,0-1.47.68,20.4,20.4,0,0,0-2.57,2.44,6.88,6.88,0,0,1-1.95,1.24c-3.19,1.36-5.78,4.2-8.39,6.49-1.42,1.26-2.91,2.61-3.45,4.42-.41.12-.78-.24-1-.56a57.15,57.15,0,0,1-3.75-5c-2.16-3.26-7.37-2.69-11.27-2.94a3.77,3.77,0,0,0-1.74.16c-.88.38-1.37,1.35-2.22,1.78,2.82,5.71.27,13,2.12,19.07,1.7,5.6.74,11.89-.1,17.69a16.88,16.88,0,0,0-.28,3.47,18.66,18.66,0,0,0,.93,3.8c1.33,4.53,1.54,9.3,1.75,14,.25,6.06,6.25,10.72,6.84,16.76.29,3-.45,6.06,0,9,.42,2.7,1.79,5.15,2.88,7.66s1.91,5.33,1.18,8l-.83-.05a18.37,18.37,0,0,1,.63,3.75,2.48,2.48,0,0,1-.17,1.15,2.42,2.42,0,0,1-2.12,1c-3.85.32-7.64-.81-11.4-1.67s-7.79-1.43-11.4-.06a40.32,40.32,0,0,0-3.72,1.86,26.89,26.89,0,0,1-14.18,2.82c-8.78,1.42-17.25.9-26.12.19-7.87-.64-15.73-1.63-23.62-1.44a78,78,0,0,0-14,1.59,6.14,6.14,0,0,1-2.62.17,10.51,10.51,0,0,1-2-.91,6.65,6.65,0,0,0-3.32-.6c0-.19-.13-.82-.19-1l.75,1.08a1.38,1.38,0,0,1-1.08-1.32,6.16,6.16,0,0,1,1.57-4.57,9.12,9.12,0,0,0,1.63-1.89,5.37,5.37,0,0,0,.39-1.59l1.65-12.42c.39-2.88-.74-5.74-.86-8.64-.2-5.05.42-10.1.49-15.15S83,212.8,80.63,208.31c.93-8.54-1-17.15-2.2-25.66l-1.2-8.58a8.89,8.89,0,0,0-.8-3c-2.25-4.16-2.55-9-3.62-13.61-.62-2.66-1.33-5.47-3.31-7.35-1.56-1.47-3.76-2.2-5.11-3.87-2.1-2.59-5.3-5.1-8.55-5.85a10.46,10.46,0,0,0-9.35,2.25,5,5,0,0,1-1.91,1.4c-.77.21-1.79-.34-1.67-1.13C38,136.19,33,129.22,28.65,122.17a4.48,4.48,0,0,1-.87-2.26c0-.81.63-1.69,1.45-1.62,2.24.17,3.52-1.19,5.59-2.07,1.56-.67,3.22-1.07,4.75-1.82a25.15,25.15,0,0,0,2.83-1.76l11-7.57A71.3,71.3,0,0,1,67.9,97.14c1.27-.49,2.56-.93,3.81-1.45a5.82,5.82,0,0,0,2.21-1.34,2.27,2.27,0,0,0,.52-2.4,28.78,28.78,0,0,0,9.71,0c2.42-.34,5.1-.76,7.13.59,2,0,4.19-.18,6.13-.21a16.51,16.51,0,0,0,4.38-.45c2.21-.64,4.12-2.19,6.39-2.57C109.3,89.11,110.43,88.79,111.2,89.62Z"/></g></g></svg>