<svg xmlns="http://www.w3.org/2000/svg" xmlns:xlink="http://www.w3.org/1999/xlink" viewBox="0 0 398.96 127.57"><defs><style>.cls-1,.cls-7{fill:none;}.cls-2{fill:#fff;}.cls-2,.cls-3,.cls-6,.cls-7,.cls-8{stroke:#231f20;stroke-miterlimit:10;}.cls-3{fill:#362063;}.cls-4{clip-path:url(#clip-path);}.cls-5{font-size:2px;font-family:TimesNewRomanPSMT, Times New Roman;}.cls-6,.cls-8{fill:#231f20;}.cls-8{stroke-width:0.5px;}</style><clipPath id="clip-path" transform="translate(0 -54.65)"><rect class="cls-1" x="148.16" width="126.44" height="166.82"/></clipPath></defs><g id="Layer_2" data-name="Layer 2"><g id="Layer_1-2" data-name="Layer 1"><path class="cls-2" d="M254.43,177.26a3.86,3.86,0,0,0-.53,2.29,3.48,3.48,0,0,0,1.15,1.63,2.19,2.19,0,0,0,.57.43,2.16,2.16,0,0,0,.84.11,3.81,3.81,0,0,0,2.91-.92,2.74,2.74,0,0,0,.56-2c0-.7-.24-1.39-.34-2.09a8.26,8.26,0,0,1,0-2.11,2.41,2.41,0,0,0,0-1.07.74.74,0,0,0-.86-.5.36.36,0,0,0-.16.11.76.76,0,0,0-.11.22,1,1,0,0,1-1.23.43c-.32-.14-.51-.45-.77-.68-1.06-.93-1,.58-1.11,1.2A12.82,12.82,0,0,1,254.43,177.26Z" transform="translate(0 -54.65)"/><path class="cls-2" d="M307.57,154.71c.9-.35,1.13-1.44,1.48-2.32a6.05,6.05,0,0,1,5.87-3.64,1.88,1.88,0,0,0,.82-.06,1.37,1.37,0,0,0,.63-.94,9.37,9.37,0,0,0,.39-3l.09-1.11a.45.45,0,0,0-.65-.38c-.87.06-1.36,1-1.92,1.6a4.24,4.24,0,0,1-2.64,1.4,24.13,24.13,0,0,0-3.31.18,13,13,0,0,0-1.85.87,2.46,2.46,0,0,1-2,.17c-.47-.21-1-.65-1.4-.37C301.93,147.92,305.32,155.61,307.57,154.71Z" transform="translate(0 -54.65)"/><path class="cls-3" d="M259.09,171.21a3.62,3.62,0,0,0,.8,3.12,3.38,3.38,0,0,1,.55.71.71.71,0,0,1-.07.83c-.25.24-.66.18-1,.15a4.51,4.51,0,0,0-2.2.36,5.57,5.57,0,0,1-1.16.48c-.41.09-1-.38-1.21-.75l-1.29-2.56a14.59,14.59,0,0,1-1.05-2.44,14.27,14.27,0,0,1-.4-3.57l-.19-7.24c-.15-5.4-.42-11-.47-16.41,0-1.16,0-2.41-.06-3.57a31.71,31.71,0,0,0-1.63-7.32,14.18,14.18,0,0,1-.54-7.4c.72-2.79,1.26-5.73,3.27-7.84a2.28,2.28,0,0,1,1.64-.87,2.5,2.5,0,0,1,.92.27c1.73.75,3.42,1.59,5.08,2.49a3.7,3.7,0,0,1,3.34-1.08c.29,0,.57.12.86.18a8.14,8.14,0,0,0,2.65.13c1.66-.2,3.09,1.49,4.52,2.33l1.08.62,1.83,1.07c1.82,1.06,3.91,1.83,5.72,2.92a9.57,9.57,0,0,0,3.78,1.64c.39,0,.86.08,1,.42s.88.76,1.2,1.05a46.63,46.63,0,0,0,4.06,3.22c.23.17.35.54.51.77a13.18,13.18,0,0,0,2.13,2.16l1.81,1.57c1.6,1.39,3,3.19,5,3.95,1.65.62,3.09,1.83,4.82,2.19a1.78,1.78,0,0,1,.79.28c.54.41.38,1.22.18,1.85l1.29,0a.26.26,0,0,1,.21.07c.05.06,0,.16,0,.24,0,.39.44.6.82.71-.32,1-.55,2.07-.9,3.06-.45,1.23-1.1,2.61-2.39,3-.05-.54-.16-1.17-.66-1.41a2.66,2.66,0,0,0-.5-.16c-1.06-.31-1.54-1.48-2.38-2.17a8,8,0,0,0-1.73-.93,25.1,25.1,0,0,1-5.11-3.49,8.3,8.3,0,0,1-4.73-1.52,33.86,33.86,0,0,1-3.07-2.92,14.76,14.76,0,0,0-6.32-3.47c-1.22-.32-2.49-.49-3.67-.91-3.33-1.21-6.63-2.66-10.17-2.92a.82.82,0,0,0-1,.41,29.62,29.62,0,0,0-3.09,5.9c-.73,1.89-2.06,3.54-2.74,5.44a15,15,0,0,0-.65,4.38,23.49,23.49,0,0,1-.58,3.19,5.91,5.91,0,0,0-.14,1.87,8.4,8.4,0,0,0,.24,1,10.57,10.57,0,0,1,.28,4.37,8.92,8.92,0,0,0,.25,3.63c.12.44.3.87.44,1.3a16.87,16.87,0,0,1,.24,7" transform="translate(0 -54.65)"/><path class="cls-2" d="M263.38,93.38a11.56,11.56,0,0,1,2.53-2.19l1.6-1.15a3.58,3.58,0,0,1,1.72-.8,8,8,0,0,0,1.72-.49,16.18,16.18,0,0,0,2.16-.74,10.48,10.48,0,0,1,1.95-.85c1-.25,2.06-.28,3.07-.63.66-.23,1.4-.3,2.05-.54a3.91,3.91,0,0,1,1.21-.3,5.94,5.94,0,0,0,2.15-.75l.73-.32c.42-.17.86-.32,1.29-.45a8.19,8.19,0,0,0,1.86-.9c.73-.43,1-1.36,1.58-2,.31-.34.38-.83.78-1.07.12-.07.26-.12.39-.18a4.08,4.08,0,0,0,1.34-.91,2.27,2.27,0,0,1,1.34-.82.91.91,0,0,1-.14,1.25c-.58.46-1.14.94-1.68,1.45a1.21,1.21,0,0,0,.38,0l1.54-.36c.54-.12,1.08-.06,1.62-.18l2-.43a1.43,1.43,0,0,1,.5,0,.44.44,0,0,1,.38.28.27.27,0,0,1-.23.35c.36,0,.73,0,1.1,0a.4.4,0,0,1,.34.07.29.29,0,0,1,.07.22.71.71,0,0,1-.35.57,1.27,1.27,0,0,1-.69.15c.11,0,.22.1.32.13a.23.23,0,0,1,.21.21.36.36,0,0,1-.13.23,4.43,4.43,0,0,1-1.44.81,18.89,18.89,0,0,1-2.55.81A8.4,8.4,0,0,1,296.6,83a.8.8,0,0,1-.42.81,2.53,2.53,0,0,1-.94.3,8.92,8.92,0,0,0-1.14.52,19.18,19.18,0,0,0-2.19.93,6.3,6.3,0,0,1-2.68.57,3.56,3.56,0,0,0-2.57.7,2.33,2.33,0,0,0-1,.44,14.12,14.12,0,0,1-2.53,1.24c-.87.31-1.82.8-2.67,1.15-1.5.61-3,1.23-4.52,1.75-.59.2-1.17.39-1.76.56-.41.12-.76.46-1.18.51s-.86,0-1.29.08c-1.94.17-3.54,1.49-5.33,2.24a3.42,3.42,0,0,1-2.75-.3.73.73,0,0,1-.39-.36.44.44,0,0,1,.09-.43s.07,0,.08-.09S263.4,93.49,263.38,93.38Z" transform="translate(0 -54.65)"/><path class="cls-2" d="M249.52,89.06a3.7,3.7,0,0,0-.8,1,1,1,0,0,0,.18,1.15c.17.13.39.18.56.3a1.7,1.7,0,0,1,.45.55c.46.74,1,1.47,1.49,2.17a3.19,3.19,0,0,0,1.27,1.15,3.73,3.73,0,0,0,.88.19,4.55,4.55,0,0,0,1,0,3.36,3.36,0,0,0,1.12-.37A4.34,4.34,0,0,0,257.34,94,2.11,2.11,0,0,0,257.7,92a1,1,0,0,0-.37-.49c-.39-.24-.91,0-1.38-.12a7.68,7.68,0,0,1-.11-1,1.17,1.17,0,0,1,.12-.61,4.45,4.45,0,0,0,.36-1.23,1.53,1.53,0,0,0-.38-1.2c-.2-.2-.46-.32-.67-.52a2,2,0,0,1-.47-1.54,1.47,1.47,0,0,0,0-.47,1.29,1.29,0,0,0-.17-.33A5.11,5.11,0,0,0,253.08,83c-.64-.41-1.09-.15-1.13.53a8.07,8.07,0,0,1-.35,2A8.44,8.44,0,0,1,249.52,89.06Z" transform="translate(0 -54.65)"/><g class="cls-4"><text class="cls-5" transform="translate(316.34 105.11) scale(1.07 1)"> </text></g><path class="cls-2" d="M254.54,80.82c-.41.73-.84,1.44-1.31,2.14a5.43,5.43,0,0,0-.42,1.33,6.3,6.3,0,0,0-.06,1.23,17.19,17.19,0,0,0,1.74,2.5,6.27,6.27,0,0,0,1.69,1.47,1.13,1.13,0,0,0,.95,0,2,2,0,0,0,.45-.32c.58-.52,1.32-.9,1.92-1.41.17-.14.33-.28.48-.43a7.07,7.07,0,0,0,.75-1c.28-.41.41-.93.84-1.18a2,2,0,0,0,.73-.5,1.12,1.12,0,0,0,.15-.6c.05-.57.43-1.14.38-1.72a5.39,5.39,0,0,0-.46-1.67,5.86,5.86,0,0,0-.61-1.13,4.12,4.12,0,0,0-2.52-1.65,4.26,4.26,0,0,0-3,.48,2.29,2.29,0,0,0-.49.38,2.73,2.73,0,0,0-.4.6C255.11,79.83,254.81,80.35,254.54,80.82Z" transform="translate(0 -54.65)"/><path class="cls-6" d="M254.1,80.21c.17.29.45.63.77.52a.76.76,0,0,0,.23-.17,6.78,6.78,0,0,0,.66-.76.29.29,0,0,0,0,.24,1,1,0,0,0,.25-.28c0,.12.24.06.33,0s.2-.23.32-.18.1.08.16.08.09,0,.12-.1a1.55,1.55,0,0,1,.86-.59.88.88,0,0,1-.06.53c.41-.21.55-.83,1-.88a.87.87,0,0,1,.58.23,5.25,5.25,0,0,1,.71.63.37.37,0,0,1,.15-.32A12.75,12.75,0,0,1,261,80.6a.46.46,0,0,1,.17-.38l.19,1a3.37,3.37,0,0,0,.54,1.19l0-.33a1.83,1.83,0,0,0,.21,1.17c.19.34.49.71.32,1.06a2.56,2.56,0,0,0,1.75-2.43.13.13,0,0,1,0-.12s.09,0,.11,0-.06.08-.07,0a3.8,3.8,0,0,0-.64-3.41l.68.4a1.93,1.93,0,0,0-1-.94l.39,0a2.6,2.6,0,0,1-1-.94,10.66,10.66,0,0,1-1-.47l.2-.21a3.55,3.55,0,0,0-1.66-.51c0-.13.22-.13.28-.24s-.11-.26-.26-.29a3.62,3.62,0,0,0-2.23.15,2.23,2.23,0,0,1,.37-.85,3.1,3.1,0,0,0-.73,1l.13-1a3,3,0,0,0-.46,1.06l-.32-.7-.05.74-.54-.44a.69.69,0,0,1,.32.51,8.6,8.6,0,0,0-1.33-.23l.37.08a3.83,3.83,0,0,0-1.73.38l.36,0-1.33.61a10.36,10.36,0,0,1-.73,1.13,1.91,1.91,0,0,1,.49-.45,1.85,1.85,0,0,0-.4.56,3.2,3.2,0,0,0-.52,1.61,3.2,3.2,0,0,0-.41,1.41c0,.21,0,.42,0,.62a5,5,0,0,0-.09.66c0,.59.41,1.17.24,1.73,0,.06.13,0,.18,0a.32.32,0,0,0,.07-.19l.11-.9a1.48,1.48,0,0,0-.06-.81c0-.08-.1-.16-.14-.25-.14-.34.11-.71.19-1.08a3.14,3.14,0,0,1,.15-.69,1.23,1.23,0,0,1,1-.5.42.42,0,0,1,.22,0,.32.32,0,0,1,.13.15C253.66,79.73,254,80,254.1,80.21Z" transform="translate(0 -54.65)"/><path class="cls-2" d="M253.27,79.34a.85.85,0,0,0-.32.15,1.55,1.55,0,0,0-.81,1.07,4.1,4.1,0,0,0,.14.84,2.56,2.56,0,0,1,0,.62.31.31,0,0,0,0,.19.45.45,0,0,0,.11.13.69.69,0,0,1,.22.47c0,.08,0,.18.06.24s.27,0,.39,0c.84-.57.46-1.47.95-2.18a1,1,0,0,0,.29-.75A1,1,0,0,0,253.27,79.34Z" transform="translate(0 -54.65)"/><path class="cls-6" d="M264.59,113.24a4.81,4.81,0,0,1-.65,4.37c-.09.13-.18.34,0,.43a.35.35,0,0,0,.11,0,6.92,6.92,0,0,1,2.86.56.66.66,0,0,1,.27.28.29.29,0,0,1-.08.35c-.1.07-.23,0-.34.08-.32.09-.37.51-.29.82s.22.66.06.94-.52.36-.8.54a2.31,2.31,0,0,0-.79,1.22l-1,2.7a8.2,8.2,0,0,1-4.11,1.2c-.49,0-1-.14-1.47-.16-1.71-.06-3.33.89-5,.91a2.39,2.39,0,0,0-1.51.27,3.92,3.92,0,0,1-2.55-.8,3.69,3.69,0,0,1-1.34-2.27c-.28-1.65.61-3.27.64-4.94.1-4.29-.69-8.58.26-12.78a11.29,11.29,0,0,0-.16-3.06.83.83,0,0,0-.1-.41.76.76,0,0,0-.25-.18,21.47,21.47,0,0,0-3.22-1,8.43,8.43,0,0,0-1.4-.44,1.77,1.77,0,0,0-1.4.26l-.12-.31a7.73,7.73,0,0,1-.49-2.42c0-.66,0-1.33,0-2a11.71,11.71,0,0,1-.26-2.42,5.84,5.84,0,0,1,.34-2.48,10.85,10.85,0,0,0,.78-1.25c.08-.2.14-.42.32-.52a3.21,3.21,0,0,1,.33-.12c.11,0,.22-.12.22-.24a11.32,11.32,0,0,1,4.54-1.23,1.85,1.85,0,0,1,1.52.28,10.55,10.55,0,0,0,1.38,1c.34.24.62.55.94.81a8.39,8.39,0,0,0,1.85,1l1.47.62a3.43,3.43,0,0,0,1.54.28,2.24,2.24,0,0,0-.61-1.74c-.08-.07-.16-.18-.1-.27s.18-.07.28,0l.91.29a.7.7,0,0,1,.67-.53c.13,0,.28,0,.37,0s.11-.22.22-.24.13,0,.19,0,.23-.18.36-.25a.63.63,0,0,1,.51.07,2.35,2.35,0,0,0,1.31.14,11,11,0,0,1,2.42-.25.32.32,0,0,1,.12-.26.45.45,0,0,0,.51.2,1.86,1.86,0,0,1,.25-.1.71.71,0,0,1,.38,0,6.49,6.49,0,0,0,1.76.09c.72,0,1.28-.7,2-.87a.4.4,0,0,1-.08.4c-.09.11-.2.2-.3.31a1.69,1.69,0,0,0-.28.59l-.21.64a3,3,0,0,0-.18.72,2.16,2.16,0,0,1-.23,1,4.53,4.53,0,0,0-.6,3.17.93.93,0,0,1,0,.75c-.16.22-.47.24-.74.27a3.63,3.63,0,0,0-2.7,1.79,6.53,6.53,0,0,0-.56,1.55c-.69,2.54.31,5.32.94,7.88.1.38.2.76.26,1.14.1.57,0,.74.11,1.14.06.15.09.17.42.8.12.23.22.42.29.54a10.92,10.92,0,0,0-.11,1.27s0-.07.07-.18a1,1,0,0,1,.25-.31l-.56.06" transform="translate(0 -54.65)"/><path class="cls-6" d="M267,92.9a1.43,1.43,0,0,0-.38.62" transform="translate(0 -54.65)"/><path class="cls-2" d="M242.56,102a17.23,17.23,0,0,1,1.61,4.44,8.93,8.93,0,0,0,.42,2,8.3,8.3,0,0,1,.65,2.24c.06.72.11,1.51.19,2.23.16,1.33.31,2.67.35,4a22,22,0,0,0,.16,4.06,17.48,17.48,0,0,1,.05,3.47,5.18,5.18,0,0,0,0,.88,12.46,12.46,0,0,1,.38,2.08c-.08,1.5-.05,3.06-.08,4.56a6.69,6.69,0,0,0,.92,3.24,3.9,3.9,0,0,0,.36.54l.24.33a15.74,15.74,0,0,0,1,1.3c.16.17.4.34.6.23a2.06,2.06,0,0,0,.38.77,1.06,1.06,0,0,0,.74.42l.15-.21a.91.91,0,0,0,.56.18,8.84,8.84,0,0,0,.12-3,8,8,0,0,1-.17-2.07c0-.31.07-.64.11-.95a1.89,1.89,0,0,0-.11-1,5.51,5.51,0,0,0,1.5,3.15.67.67,0,0,0,.28.19.4.4,0,0,0,.38-.21.73.73,0,0,0,0-.45,1.59,1.59,0,0,0-.22-.7c-.4-.66-.27-1.62-.87-3a28.12,28.12,0,0,0-1.46-2.58,5.25,5.25,0,0,1-.41-.87,3.5,3.5,0,0,1-.14-.46l-.45-1.75c-.51-2-.17-4.11-.2-6.14a62.27,62.27,0,0,1,.11-7.85c.22-2-.62-4.08-.92-6.12a5.58,5.58,0,0,0-.48-1.35,1.22,1.22,0,0,0-.2-.35,1.09,1.09,0,0,0-.55-.29c-1-.23-2.09.11-2.83-.38-.57-.38-.69-1.1-1.05-1-.13,0-.16.12-.37.24A1.63,1.63,0,0,1,242.56,102Z" transform="translate(0 -54.65)"/><path class="cls-7" d="M249.56,134.06a2.34,2.34,0,0,1,.45.87,3.13,3.13,0,0,1,0,.43,4.7,4.7,0,0,0,.18.74,11.64,11.64,0,0,1,.41,2" transform="translate(0 -54.65)"/><path class="cls-7" d="M247.92,133.46a6,6,0,0,1,.88,2l.5,1.79" transform="translate(0 -54.65)"/><path class="cls-7" d="M247.1,133.31a13.77,13.77,0,0,0,.63,2.51" transform="translate(0 -54.65)"/><path class="cls-6" d="M267.43,94.51a1.42,1.42,0,0,1,.4-.12c-.13.36-.6.52-.75.87a1.76,1.76,0,0,0-.09.51,1.82,1.82,0,0,1-.48,1,5.33,5.33,0,0,1-.17-1.72C266.44,94.76,267.11,94.64,267.43,94.51Z" transform="translate(0 -54.65)"/><path class="cls-7" d="M265.66,123.79a9.51,9.51,0,0,1-1.6,7" transform="translate(0 -54.65)"/><path class="cls-7" d="M269.35,122.87l-1.39,3.8a18.42,18.42,0,0,1-2,4.29,3.48,3.48,0,0,0-.91,2" transform="translate(0 -54.65)"/><path class="cls-7" d="M267.38,131.32a71,71,0,0,0,6.21-5.93" transform="translate(0 -54.65)"/><path class="cls-7" d="M272.05,124a16,16,0,0,1-4.48,5.16" transform="translate(0 -54.65)"/><path class="cls-7" d="M276,129.49c-2,.71-3.75,2-5.84,2.38" transform="translate(0 -54.65)"/><path class="cls-7" d="M264.77,132.88c-.24,2.06-2.08,3.59-2.8,5.55" transform="translate(0 -54.65)"/><path class="cls-8" d="M8.67,65.4C5.07,71.25,6.38,75.88,8,98.62c2.3,32.79.75,39.88-.69,44.55C3.68,154.91-.65,156.07.41,161.29c3.15,15.53,45.87,27.23,66,8.3,6.71-6.3,12.7-17.66,9.63-23.4-2.53-4.74-10.65-4.63-17.88-4.53-15.15.2-21.75,5.94-25.46,2.26-1.05-1-3.11-4.08,1.38-21.14C40.7,97.81,47.73,94.41,47.19,82c-.43-9.93-5.62-23.3-15.82-26.43C23,53,13.25,57.94,8.67,65.4Z" transform="translate(0 -54.65)"/><path class="cls-8" d="M82.39,83.44c.45,2.63.49,3.76-.69,29.58-1.38,30.3-1.71,33,.69,37.84a38.28,38.28,0,0,0,16.51,16.5c12.39,6.53,30.08,7.25,40.59-1.37,9.18-7.54,5.24-16,11-54.34,4.52-30.1,9.08-39.16,2.75-45.41C145.93,59,129,60.45,123.66,67.62,121,71.24,119.24,79,119,85.09c0,0,0,.24,0,.56-.46,17.38,11.13,43.27,3.3,50.76-2.52,2.41-6.63,2.16-8.94,1.38-8.89-3-9.58-20.69-9.63-22.71-.21-7.32,1.69-14.28,5.5-28.2,2.7-9.88,4-12.67,2.75-17.2C110.45,64.25,105.4,57,97.52,56.61s-13.8,6.3-15.82,11.7C79.82,73.36,81.32,77.2,82.39,83.44Z" transform="translate(0 -54.65)"/><path class="cls-8" d="M224,81.29c-7.46-9.23-16.39-20.27-29.58-20-10.57.25-18,7.66-20.64,10.32-11.11,11.11-12.09,25.87-13.07,40.58-1,14.55-1.76,26.62,5.51,39.21,2.86,5,11.29,19.56,27.51,21.33,18.34,2,30.45-14.17,31.64-15.82,1.54-2.13,12.77-18.1,5.51-30.27-4.84-8.11-16.53-12.26-20.64-9-4.61,3.72,2.46,15.09-3.44,20.64-2.9,2.73-7.84,3-11,1.38-7.44-3.84-8.18-19.83-1.38-28.89.84-1.12,5.74-7.4,12.38-7.57,1.56,0,3.56.43,7.57,1.37,7.09,1.68,7.79,2.62,9.63,2.07,3.91-1.18,6.11-7.1,6.19-11.7C230.23,91.25,228.87,87.33,224,81.29Z" transform="translate(0 -54.65)"/><path class="cls-8" d="M341.62,120.85c-11.49-18-21.84-22-27.08-36.3-1.37-3.75-3.26-9.1-.57-11.91,2.87-3,10.13-2.27,18.43,1.62,7.18,19.34,15.48,36.56,22.46,35.75,4.11-.47,6.62-7.05,8.07-10.83,6.23-16.31-2.92-26.64,3.45-33.59,4.64-5.05,14.83-5.4,21.31-2.16,11.93,6,11.09,24,10.95,27.08-.82,17.69-12.12,19-28.23,49.3-8.28,15.59-10.2,24.49-21.88,33.58-4.79,3.73-13.61,10.59-21.31,7.59-7.18-2.8-10.71-13.11-8.07-20,1.63-4.28,4.4-4.08,13.83-12.45,7.57-6.73,12.25-11,12.67-16.8C345.88,128.42,344.7,125.68,341.62,120.85Z" transform="translate(0 -54.65)"/></g></g></svg>