<svg xmlns="http://www.w3.org/2000/svg" viewBox="0 0 1158.19 604.5"><defs><style>.cls-1{fill:#fff;}.cls-1,.cls-2,.cls-3,.cls-5{stroke:#231f20;}.cls-1,.cls-2,.cls-3,.cls-5,.cls-6{stroke-miterlimit:10;}.cls-2{fill:#362063;}.cls-3{fill:#231f20;}.cls-4,.cls-5,.cls-6{fill:none;}.cls-6{stroke:#fff;}</style></defs><g id="Layer_2" data-name="Layer 2"><g id="Layer_1-2" data-name="Layer 1"><path class="cls-1" d="M140.86,573c-1.45,3.5-3.27,7.19-2.48,10.9.67,3.12,3.06,5.53,5.34,7.76a9.48,9.48,0,0,0,2.62,2,9.29,9.29,0,0,0,3.89.54c4.85-.06,10.26-.66,13.41-4.35,2.17-2.56,2.78-6.12,2.58-9.47s-1.1-6.61-1.58-9.92a39.62,39.62,0,0,1-.2-10,11.64,11.64,0,0,0-.11-5.09c-.56-1.62-2.34-3-4-2.38a1.69,1.69,0,0,0-.74.49,4,4,0,0,0-.53,1,4.37,4.37,0,0,1-5.67,2.07c-1.45-.7-2.36-2.15-3.56-3.24-4.86-4.41-4.66,2.74-5.11,5.69A60.36,60.36,0,0,1,140.86,573Z"/><path class="cls-1" d="M1101.8,574.4c-.89,2.25-2.61,5.05-.86,6.71.9.85,2.29.82,3.52.94,7.27.7,12,7.7,18.09,11.77,6.33,4.24,14.34,5.27,21.94,4.76,3.32-.22,6.75-.76,9.47-2.65s4.51-5.5,3.39-8.62c-.87-2.42-3.18-4-5.51-5.09-5-2.33-10.48-3.17-15.58-5.19s-10.06-5.73-11.21-11.08c-1.54-7.12,4.11-14.41,2.31-21.46a6.27,6.27,0,0,0-2.68-4c-5.75-3.32-16,7.48-19.59,11.47C1099,558.61,1104.72,567,1101.8,574.4Z"/><path class="cls-1" d="M1007.54,569.21c-1.45,3.5-3.27,7.19-2.48,10.89.67,3.12,3.06,5.54,5.34,7.76a9.29,9.29,0,0,0,2.62,2,9.13,9.13,0,0,0,3.89.54c4.85-.06,10.26-.66,13.41-4.35,2.17-2.55,2.78-6.12,2.58-9.46s-1.1-6.61-1.58-9.93a40.08,40.08,0,0,1-.21-10,11.49,11.49,0,0,0-.1-5.09c-.57-1.61-2.34-3-4-2.37a1.69,1.69,0,0,0-.74.49,3.84,3.84,0,0,0-.53,1.05,4.39,4.39,0,0,1-5.67,2.07c-1.45-.7-2.37-2.16-3.56-3.25-4.86-4.41-4.66,2.74-5.11,5.69A60.58,60.58,0,0,1,1007.54,569.21Z"/><path class="cls-2" d="M1001.72,324.64c-.35,3.06.58,4.39,1.26,10.47,1,9.06,0,15.31-.42,20.18-.83,9.8.71,15,3.16,32.18,2.72,19.11,3.83,33.92,4.85,47.51,1.54,20.54,2.49,33.14,1.48,50.58-.94,16.17-1.41,24.25-2.53,31.67-2.35,15.47-5.36,24.12-1.27,30.65,2.2,3.51,5.31,4.58,10.54,6.39,2.93,1,17.87,6.15,23-1.54,2.22-3.34.91-6.6-.21-21.2,0,0-1-13.42-.85-26.56.16-10.87,1.64-18.48,4.22-31.42,15.35-76.84,17.74-80.9,16.24-88.89-.29-1.49-2.19-11,1.47-17.87.4-.76,1.77-3.31,3.16-3.07s2.27,3.41,3,7.41A98.33,98.33,0,0,1,1070,390c-.11,8.46,1.81,9.33,5.27,26.05,2.44,11.77,2.19,14.69,4.22,27.59,3.83,24.32,6.18,23,9.07,41.89,2,13,4.5,29.36,3.58,50.57-.59,13.57-2.26,21.84,2.11,26.31,2.61,2.67,8.1,2.33,19,1.53,9-.66,13.56-1,15-3.57,2.8-5.07-3.5-11.31-5.28-26.06-1-8.14.4-10.77,1.69-25.8.78-9,.87-17,1.06-32.94.31-26.71-1.75-40.55-4-79.44-1.65-28.39-2.25-42.6-2.11-46.23.89-22.42,4.29-36.72-2.74-52.62-1.45-3.29-4.33-9.63-10.12-14.56-12.37-10.53-27.94-6.06-42.8-1.79-14.3,4.11-8,5.86-45.13,26.06C1012.67,310.35,1002.73,315.62,1001.72,324.64Z"/><path class="cls-1" d="M1023.83,103.16a26.53,26.53,0,0,1-5.41,19.64,21.26,21.26,0,0,0-1.72,2.28l-.76.34c-3.19,1.4-5.43,5-6,8.44-.72,4.07,1.8,8,4.73,10.93,6.53,6.48,15.4,10,24.27,12.48a121.88,121.88,0,0,0,27,4.36,7.92,7.92,0,0,0,3.84-.48,8.26,8.26,0,0,0,2.66-2.54c3.73-4.82,7.67-10.33,7-16.38-.64-5.52-5-9.86-9.75-12.8a18.43,18.43,0,0,0-8.74-3.17,6.15,6.15,0,0,1-2.27-.3,4.38,4.38,0,0,1-1.68-1.55,20.4,20.4,0,0,1-1.57-21c1.23-2.36.88-5.5,1.16-8.15a11.88,11.88,0,0,0-1.37-7.72,11.27,11.27,0,0,0-4.39-3.7,20.57,20.57,0,0,0-27.15,7.61,8.07,8.07,0,0,0-1.42,4.67C1022.41,98.58,1024.88,100.89,1023.83,103.16Z"/><path class="cls-1" d="M1109,204.49c.34.28,2.36,2.09,6.42,5.73,8.09,7.26,7.53,7,8.71,7.8,2.62,1.76,9.13,6.13,13.76,3.67a7.89,7.89,0,0,0,3.21-3.67c1.76-3.53.22-5.67.23-11.93,0-4.82.92-4.77,1.15-11.23a82.4,82.4,0,0,0-.23-8.49c-.92-15.42-.54-13.69-.92-17.19-1.25-11.65-4.07-18.47-4.13-28.21a25.25,25.25,0,0,1,.69-6.42c.81-3.28,1.72-3.91,3.9-8.94,1.9-4.4,2.86-6.65,3-9.63.07-1.84-.26-1-.69-6.42-.32-4-.24-5.71-1.6-7.11-.87-.89-1.18-.48-2.76-1.6-2.86-2.06-2.61-4-4.35-4.36s-3.82,1.33-4.68,2.07a12.15,12.15,0,0,0-1.51,1.6,24.31,24.31,0,0,0-1.84,2.75c-.08,0,2.75-3.6,2.07-7.34-.3-1.61-1.28-3.43-2.3-3.44-.42,0-.85.32-2.06,2.3a23.26,23.26,0,0,0-2.52,4.81,23.85,23.85,0,0,0-1.15,6.88c-.24,3.43-.36,5.14,0,7.11.76,4,2.46,4.81,3,8.48.1.71,0,.45-.46,6-.27,3.43-.41,5.18-.46,6.88a61.47,61.47,0,0,0,.23,6.88c.61,7.84.49,15.9.46,17.89-.12,9-1,9.06-.69,16.28a79.1,79.1,0,0,0,1.15,11.46,73.19,73.19,0,0,0,3.9,14.22,25.15,25.15,0,0,0-5.61-14c-.33-.39-7.92-9.19-13.88-6.45-1.58.73-2.65,3.33-4.82,8.49-1.91,4.56-2.86,6.88-2.29,8.71C1102.54,200.12,1103.93,200.33,1109,204.49Z"/><path class="cls-1" d="M449.62,576.15c-1.05,2.57-3.06,5.78-1,7.68,1.05,1,2.67.95,4.11,1.08,8.52.81,14.08,8.83,21.18,13.49,7.42,4.86,16.79,6,25.7,5.47,3.88-.26,7.9-.87,11.09-3s5.28-6.3,4-9.88c-1-2.77-3.73-4.59-6.45-5.84-5.81-2.67-12.28-3.63-18.25-5.94s-11.78-6.57-13.13-12.71c-1.8-8.16,4.82-16.52,2.71-24.6a7.14,7.14,0,0,0-3.14-4.57c-6.74-3.82-18.68,8.57-22.94,13.15C446.38,558,453,567.68,449.62,576.15Z"/><path class="cls-1" d="M413,558.94c1,2.58,3,5.79,1,7.69-1.05,1-2.66.94-4.09,1.08-8.44.8-13.95,8.83-21,13.49-7.35,4.86-16.64,6-25.48,5.46-3.84-.25-7.83-.87-11-3s-5.23-6.3-3.93-9.89c1-2.77,3.69-4.58,6.39-5.83,5.76-2.67,12.18-3.63,18.09-5.94s11.68-6.58,13-12.71c1.79-8.16-4.78-16.52-2.69-24.6a7.19,7.19,0,0,1,3.12-4.57c6.68-3.82,18.51,8.57,22.74,13.15C416.16,540.83,409.56,550.48,413,558.94Z"/><path class="cls-1" d="M255.13,147.77c2.7-.74,4.05-1.12,4.52-1.27a12.81,12.81,0,0,0,4-2.36c2.21-1.67,8.73-5.75,15-7.19,7.9-1.79,14,.89,20,3.51,1.35.58,3.17,1.51,3.59,3.2a4.83,4.83,0,0,1-.93,3.59c-2.65,4.19-7.29,6.79-12,8.62s-9.61,3.1-14,5.51c-3.58,2-7.06,5.47-6.3,9.41,1.41,7.25-1.43,14.72-1.08,22.1a42.73,42.73,0,0,0,5,18c.77,1.44.19,3.66.93,5.11,2,3.91,6.93,5.4,9.84,8.72,1.51,1.71,3.53,3.18,5.17,4.78s3.32,3.26,4.06,5.4c.83,2.43,1,5.36,2.18,7.63l2.19,4.06a10.67,10.67,0,0,1,1.17,6,1,1,0,0,1-1.07,1.06,4.6,4.6,0,0,1-3.14-.26,4.13,4.13,0,0,1-.94-.88,23.2,23.2,0,0,1-3.91-6.8,24.15,24.15,0,0,0-1.81-4.54,8.57,8.57,0,0,1-1.6-3c.05,1.11.86,2,1.46,2.95a14.27,14.27,0,0,1,1,1.86,55.21,55.21,0,0,1,3.73,11.32,19.14,19.14,0,0,1,.41,7.26c-.21,1.12-.57,2.2-.81,3.3a28.93,28.93,0,0,0-.46,5.88c0,2.07-2.15,3.64-3.73,5a.81.81,0,0,1-.42.24c-.33,0-.57-.29-.69-.59-.57-1.44,0-3.08-.36-4.58a4.47,4.47,0,0,1,.16-2.32,46.21,46.21,0,0,1-1,8.68,1.69,1.69,0,0,1-.29.72,1.74,1.74,0,0,1-.82.42,4.86,4.86,0,0,1-1.6.29,1.68,1.68,0,0,1-1.37-.73c-.44-.79.13-1.85-.28-2.66-.53,0-.73.68-1.14,1a1.42,1.42,0,0,1-1.9-.35,4.26,4.26,0,0,1-.71-2,30.07,30.07,0,0,0-2.07-6.53,2.66,2.66,0,0,1-2.35.78,2.62,2.62,0,0,1-1.94-1.51c-.64-1.5.25-3.41-.66-4.77-2.63-3.92-1.31-9.42-3.69-13.49-2.21-3.8-3.37-8.15-5-12.24a17.35,17.35,0,0,1-1.43-5,6.08,6.08,0,0,0-1.65-3.64c-.93-1.08-2.08-2.08-2.46-3.45-.51-1.79.45-3.63.66-5.47a13.68,13.68,0,0,0-.71-5.09l-2.76-10.18a210.43,210.43,0,0,1-7.34-40.76c-.16-2.4-.69-4.85.45-7a15.23,15.23,0,0,1,1.72-2.45,21.47,21.47,0,0,1,5.27-4.69A4.94,4.94,0,0,1,255.13,147.77Z"/><path class="cls-1" d="M767.33,572.3c-.89,2.25-2.61,5-.85,6.71.9.85,2.28.82,3.51.94,7.27.7,12,7.7,18.09,11.76,6.33,4.24,14.34,5.27,21.95,4.77,3.31-.22,6.74-.76,9.46-2.66s4.51-5.49,3.39-8.62c-.86-2.42-3.18-4-5.51-5.09-5-2.32-10.48-3.16-15.57-5.18s-10.07-5.73-11.22-11.09c-1.54-7.11,4.12-14.4,2.32-21.45a6.3,6.3,0,0,0-2.69-4c-5.75-3.33-16,7.48-19.59,11.47C764.57,556.5,770.25,564.92,767.33,572.3Z"/><path class="cls-1" d="M675.72,578.39c-1.45,3.5-3.27,7.19-2.48,10.9.67,3.12,3.06,5.53,5.34,7.76a7.05,7.05,0,0,0,6.51,2.56c4.85-.06,10.26-.66,13.41-4.35,2.17-2.55,2.78-6.12,2.58-9.47s-1.1-6.61-1.58-9.92a39.62,39.62,0,0,1-.2-10,11.64,11.64,0,0,0-.11-5.09c-.56-1.62-2.34-3-4-2.38a1.78,1.78,0,0,0-.74.49,4,4,0,0,0-.53,1A4.38,4.38,0,0,1,688.3,562c-1.45-.71-2.36-2.16-3.56-3.25-4.86-4.41-4.66,2.74-5.11,5.69A60.36,60.36,0,0,1,675.72,578.39Z"/><path class="cls-1" d="M189.86,296.19c-.25,14.14,3.92,17.91,2.29,26.63-.47,2.48-1.24,6.57-4.52,8.68-2,1.29-4.52,1.49-6.91,1.59q-6,.26-12,0c-1.08,0-2.41-.27-2.72-1.31s.8-2,1.7-2.77a12.57,12.57,0,0,0,4.17-12.57,2.22,2.22,0,0,0-2.41,1.4,8.66,8.66,0,0,0-.5,3,16.15,16.15,0,0,1-3.61,8.85c-.68.83-1.7,1.66-2.72,1.32a2.8,2.8,0,0,1-1.48-2.13c-1.89-7.31.85-14.95,3.79-21.9q2.78-6.54,5.84-13c.67-1.41,1.19-1.61,2.33-2.68,1.75-1.64,2.17-4.22,2.44-6.6a143.59,143.59,0,0,0,.61-24.88c-.86-13.73-1-27.62-4.82-40.82-.93-3.2-2-6.37-2.78-9.61a111.33,111.33,0,0,1-2.16-14.33c-1.16-10.89-2.32-21.77-3.12-32.69-.14-1.88,0-4.25,1.75-5,1.07-.46,2.33,0,3.47-.32,1.39-.32,2.68-1.64,4-1.17a3.39,3.39,0,0,1,1.64,1.75c3.29,5.94,7.18,8.35,11.66,21a93.1,93.1,0,0,1,2.7,9.18c1.2,4.82,1.75,8.3,2.29,11.61,2.43,14.78,2.74,13.2,3.52,19.57.56,4.64.68,10.08.92,20.94.18,8.7.27,13.15-.16,17.89-.32,3.55-1,7.51-2.44,15.44-1.23,6.88-2.41,12.42-2.75,20.79C189.9,294.8,189.87,295.38,189.86,296.19Z"/><path class="cls-1" d="M32.1,184c-.77,6.87-1.54,13.76-3.34,20.42-1.32,4.86-3.17,9.55-4.69,14.35-1.68,5.3-2.94,10.72-4.21,16.13Q14.4,258.25,8.93,281.6c-2.32,9.92-3.16,20.53-6.82,30A20.66,20.66,0,0,0,.54,317a14.27,14.27,0,0,0,.21,3.63,29.16,29.16,0,0,0,3.77,10.2c4.24,7,14.79,7.25,23,7.12a7.72,7.72,0,0,0-8.25-4.36l11.25-.11c-2.91-3.37-8.17-2.69-12.57-3.35a3.67,3.67,0,0,1-2.4-1.06,4.08,4.08,0,0,1-.68-2.08L13.2,314.71a35.06,35.06,0,0,0,3.34,8.57c1.41,2.57,3.62,5.23,6.56,5.21a2.5,2.5,0,0,0,1.61-.51c1.06-.92.54-2.63.08-4a21.51,21.51,0,0,1-.68-11.74c.61-2.74,1.77-5.37,2-8.17.41-5-2.21-9.75-4.74-14.11-2.71-4.68-.35-11.47,2.09-16.3s6-8.95,9-13.5c3.32-5.16,5.75-10.84,8.17-16.48,5.5-12.86,11.13-26.57,9-40.39,2.17-4.16,4.37-8.41,6.55-12.57,2.42-4.64,4.94-10.13,3.94-15.27-.83-4.25-4.5-7.51-8.57-9S43,165,38.69,165.09C36.52,171.71,32.87,177.08,32.1,184Z"/><path class="cls-1" d="M88.36,82.71c-.36,3.07-.26,6.19-.6,9.26a16.18,16.18,0,0,1-3.12,8.61,22.12,22.12,0,0,1-2.55,2.48l-4.82,4.21a15.89,15.89,0,0,0-3,3.07c-2.32,3.48-1.63,8.09-.83,12.2.82,4.27,1.9,9,5.42,11.5A17,17,0,0,0,84,136.26q3.65,1.14,7.3,2.2a16.28,16.28,0,0,0,5.1.89c3.92-.15,7.13-3,10.21-5.39a74.28,74.28,0,0,1,9.39-6.34,39.34,39.34,0,0,0,6.74-4.3c4.75-4.18,6.51-10.7,9.49-16.27a2.48,2.48,0,0,0,.43-1.49c-.17-1-1.46-1.33-2.48-1.56a12.75,12.75,0,0,1-8.94-8.48A17.65,17.65,0,0,1,122.12,83c.67-1.53-1.61-2.85-3.19-3.4a12.19,12.19,0,0,0-5-.23,53.64,53.64,0,0,1-14.58-.92,20,20,0,0,0-4-.58C92.06,77.87,88.75,79.47,88.36,82.71Z"/><path class="cls-1" d="M137.29,52.58c1.18.61,1,2.32.63,3.6l-2.8,9.89a6.08,6.08,0,0,1-.61,1.6c-.79,1.31-2.35,1.88-3.55,2.81-.87.66-1.57,1.53-2.44,2.19a3.41,3.41,0,0,1-3.06.75.84.84,0,0,1-.36-.22.86.86,0,0,1-.11-.5,16.3,16.3,0,0,1,1.74-7.13,16,16,0,0,0,2-5.58c.13-1.45-.26-3.13.38-4.51C130.13,53.25,135.18,51.47,137.29,52.58Z"/><path class="cls-3" d="M126.17,57c1.81-.08,2.89-2,4.37-3.07s3.68-1.31,5.35-2.31c2.52-1.52,3.56-4.6,4.41-7.42.4-1.3.66-2.74,1.07-4a11.57,11.57,0,0,0-.4-8c-.75-1.76-.67-3.87-1.82-5.39a11.45,11.45,0,0,1-1.28-1.76c-.27-.53-.39-1.12-.62-1.67a4.94,4.94,0,0,0-3.46-2.87,20.78,20.78,0,0,0-3.24-2.88c-1.14-1-1.92-2.37-3-3.49-3.11-3.32-8.06-4-12.59-4.44-2.76-.29-5.53-.87-8.29-1.14a15.46,15.46,0,0,0-6.61.33c-.88.31-1.69.78-2.55,1.13a20.49,20.49,0,0,1-3.33,1l-7.9,1.87c-2.84.67-1.29,2.76-5.39,7.45-2.11,2.4-3.48,3.24-3.38,4.88s1.44,2.41,1.09,4.11c-.22,1-.75,1-1,2-.21.81-.11,1.85,1.76,4.89a42.71,42.71,0,0,0,3.24,4.55A1.23,1.23,0,0,0,84,40,38.59,38.59,0,0,1,93,38.49a5.64,5.64,0,0,1,2.09.12c.95.3,1.69,1,2.62,1.41a3.59,3.59,0,0,0,3.83-.84,28.58,28.58,0,0,1,7,1.33A10.27,10.27,0,0,1,114.13,45c.46.84.75,1.75,1.24,2.56a3.35,3.35,0,0,0,2.14,1.73c3.17.57,2.51,3.31,5.36,5.67A15.78,15.78,0,0,0,126.17,57Z"/><path class="cls-1" d="M85.37,35.57l3.14-5.32c1.55-2.61,3.33-5.43,6.21-6.4A12.45,12.45,0,0,1,98,23.37a46.65,46.65,0,0,1,11.92.64,21.56,21.56,0,0,1,10.58,5.26c1.6,1.54,3,3.85,2.11,5.91a5.4,5.4,0,0,0-.52,1.33c-.1.89.61,1.65,1.23,2.32,9.65,10.34,4,25.37-.06,36.89-1.77,5.07-6.64,8.59-11.82,10s-11,2.18-16.07.31a15.72,15.72,0,0,1-6.9-5.11,27.64,27.64,0,0,1-2.24-3.59c-1.44-2.64-3.12-5.43-3.68-8.38a56.43,56.43,0,0,1,4.07-33.78c-.46,0-.93.92-1.39.92l0,.39A2.22,2.22,0,0,1,85.37,35.57Z"/><path class="cls-2" d="M43.18,336.53c-.44,7.21-2.26,14.47-.91,21.56.4,2.13,1.09,4.2,1.53,6.32a57.42,57.42,0,0,1,.82,12.08q-.07,16.44-.45,32.88c-1,44.28-2.88,88,.59,132.12a22.09,22.09,0,0,0,1.33,7c1.87,4.4,6.29,7.08,10.44,9.47a3.25,3.25,0,0,0,1.53.57,2.93,2.93,0,0,0,1.87-.84c2.71-2.24,4.25-5.59,6.7-8.1s6.78-4,9.39-1.65c3.4-4.54,4.68-10.37,4.75-16s-1-11.29-1.73-16.91c-1.89-13.69-2.27-27.76.89-41.21,1.28-5.49,3.15-10.83,4.28-16.35a118.37,118.37,0,0,0,1.89-18.8q1.28-29.71.5-59.48c-.23-8.68,7.38-15.06,8.87-23.62.53-3.06.36-6.29,1.55-9.17s4.49-5.28,7.34-4c.26,9.13.56,18.43,3.7,27,2.88,7.88,8.07,14.82,10.33,22.9,2,6.94,1.62,14.32,3,21.41,1.62,8.59,5.66,16.73,6,25.47.39,11.22,4.18,22.9,3.38,34.1-.45,6.27-1.46,12.55-.81,18.8.57,5.42,2.36,10.64,3.25,16a95.84,95.84,0,0,1,.81,16.25q-.1,16.88-.22,33.74c10.41-3.89,21.87,1,32.9-.35a7,7,0,0,0,3-.88,5.67,5.67,0,0,0,2.19-5.28,23.18,23.18,0,0,0-1.66-5.77c-2.76-7.68-3.16-16-3.53-24.12-.59-12.71-1.17-25.42-1.45-38.14-.68-30.7.39-61.47-2.21-92.07-.64-7.63-5.7-14.54-5.54-22.2.1-4.55,1.85-8.87,3.11-13.24a62.41,62.41,0,0,0,2.33-20.52c-.39-7.07-3.91-13.19-2.78-20.18.54-3.28,1.54-6.51,1.6-9.84s-.87-6.73-1.1-10.12c-.25-4,.46-7.94.08-11.89-.75-8-5.79-14.82-10.64-21.2a13.9,13.9,0,0,0-3.67-3.74,13.42,13.42,0,0,0-5.31-1.49,151.34,151.34,0,0,0-28.13-1.52c-7.35.42-16.63-1.65-23.41,1.81-4,2-6.68,5.93-10,9a30.85,30.85,0,0,1-19.79,8.34c-2.42.1-5.38.21-6.47,2.36a17.26,17.26,0,0,0-.73,2.67c-.9,2.75-4.15,3.67-6.64,2.78-.72,3.36-2.6,5.57-3.87,8.62-1.76,4.19-1.28,9.52-1,14C41.56,315.5,43.84,326,43.18,336.53Z"/><path class="cls-3" d="M81.31,103.27c-4.58,1.33-6.12,7.15-5.63,11.89A10.11,10.11,0,0,0,77.2,120c2.15,3,6.42,3.51,10.15,3.67,6.51.3,13.11.56,19.46-.91s12.51-4.92,15.84-10.52c2.12-3.57,3.74-8.44,7.85-9a10.22,10.22,0,0,1,4.57.8l15.37,5.25c6.55,2.23,13.38,4.64,18.1,9.71,2.87,3.09,4.74,7,6.5,10.79q5.55,12.08,10.13,24.57c2.49,6.78,6.15,13.12,9.38,19.58a2.68,2.68,0,0,1-1.08,4.25l-6.16,4.2,3.06-4.27a60.23,60.23,0,0,0-13.72,5.45c-3.34,1.83-6.81,4-10.6,3.73-3.34-.28-6.16-2.47-8.77-4.57,2,3.22,1.81,7.35.87,11s-2.6,7.14-3.38,10.84a29.66,29.66,0,0,0,.38,13c1.38,5.75,3.35,11.46,2.78,17.34a2.2,2.2,0,0,1-.35,1.16c-.19.24-.48.4-.65.66a1.86,1.86,0,0,0-.2,1.05l0,4.3c4.52,4,2.43,11.87,4,17.71.83,3.05,2.7,5.85,2.83,9,.08,1.82-.62,3.87-2.28,4.65a6.32,6.32,0,0,1-3,.36c-12.06-.57-24.14-3.4-36.1-1.73-3.36.47-6.65,1.28-10,2a236.3,236.3,0,0,1-53.67,5.76c-2.94,1.65-5.51,3.66-8.37,5.44s-6.4,3-9.6,1.91c-.92-21.65,14.41-41.17,15-62.83a64,64,0,0,1,.36-8.43c.33-2.08,1-4.11,1.14-6.22.19-3-.71-6-1.39-8.91a58.83,58.83,0,0,1-1.24-18.33c-1.05.07-1.47,1.45-2,2.35-1,1.63-3.4,1.53-5.26,1-6.47-1.69-12.76-5.67-19.32-4.4-1.44.28-2.91.81-4.33.46s-2.6-2.13-1.7-3.29c-.68-19.07,10.34-36.19,16.13-54.37,1.14-3.56,4.84-5.41,8.38-6.61s7.3-1.66,10.82-2.93C65.11,112,73.09,104.79,81.31,103.27Z"/><path class="cls-1" d="M43.22,574.21c-1.45,3.5-3.27,7.19-2.48,10.9.66,3.11,3,5.53,5.33,7.76a9.67,9.67,0,0,0,2.63,2,9.26,9.26,0,0,0,3.89.54c4.85-.06,10.26-.66,13.4-4.35,2.17-2.56,2.78-6.12,2.59-9.47S67.48,575,67,571.69a40.09,40.09,0,0,1-.2-10,11.79,11.79,0,0,0-.1-5.09c-.57-1.62-2.35-3-4-2.38a1.75,1.75,0,0,0-.74.49,4.31,4.31,0,0,0-.53,1.05,4.36,4.36,0,0,1-5.66,2.07c-1.46-.7-2.37-2.15-3.57-3.24-4.86-4.41-4.65,2.74-5.11,5.69A60.84,60.84,0,0,1,43.22,574.21Z"/><path class="cls-4" d="M78.64,29.34a28.8,28.8,0,0,1-.76,10.09"/><path class="cls-5" d="M79.45,37.15l-.53,3.66"/><path class="cls-5" d="M77.52,29.35a17.7,17.7,0,0,1-.72,7.48"/><path class="cls-5" d="M78,26.89l-2.86,4.3"/><path class="cls-5" d="M79.39,24.22a12,12,0,0,1-5.92-2.86"/><path class="cls-5" d="M77.31,20a15.22,15.22,0,0,0,3.44,2.41"/><path class="cls-5" d="M78.3,17.13a14.54,14.54,0,0,0,3.61,6.34"/><path class="cls-5" d="M79.57,14.36a7.7,7.7,0,0,0,1.78,5.39"/><path class="cls-5" d="M77.58,26.82a20.89,20.89,0,0,1-7.64-.31"/><path class="cls-5" d="M71.29,23.56a11,11,0,0,0,7,1.61"/><path class="cls-5" d="M71.45,30.24a13.55,13.55,0,0,0,6.25-2.15"/><path class="cls-5" d="M73.43,34.22A9.54,9.54,0,0,0,76,31"/><path class="cls-5" d="M78.64,33.62c0,3.2-.13,6.6-1.92,9.25"/><path class="cls-5" d="M79.86,37.6v4.13"/><path class="cls-5" d="M81.38,39.28a13.45,13.45,0,0,1-1,4.76"/><path class="cls-5" d="M75.56,20.18a4.52,4.52,0,0,0,3.69,3.19"/><path class="cls-5" d="M72.13,22.07a12.44,12.44,0,0,0,5,2.13"/><path class="cls-5" d="M69.63,25a10.65,10.65,0,0,0,5,.95"/><path class="cls-5" d="M69.62,29.31a33.73,33.73,0,0,0,6.74-.2"/><path class="cls-5" d="M80.93,18.64V14.82C81.1,16.09,80.76,17.37,80.93,18.64Z"/><path class="cls-5" d="M82.65,14.83,82.46,17"/><path class="cls-5" d="M137.32,49.68a14.13,14.13,0,0,1-1.12,7"/><path class="cls-5" d="M70.46,32.6A7.09,7.09,0,0,0,75,29.84"/><path class="cls-5" d="M73.64,36.66a17,17,0,0,0,3-6.18"/><path class="cls-5" d="M69.61,27.92a10.53,10.53,0,0,0,4.52.61"/><path class="cls-5" d="M76.5,18.42l1,1.92"/><path class="cls-1" d="M644.83,201.3c-.76,6.86-1.53,13.76-3.34,20.42-1.31,4.86-3.16,9.55-4.68,14.34-1.68,5.3-2.95,10.72-4.21,16.14q-5.48,23.35-10.93,46.71c-2.32,9.92-3.16,20.53-6.82,30a20.59,20.59,0,0,0-1.57,5.34,14.27,14.27,0,0,0,.21,3.63,29,29,0,0,0,3.77,10.21c4.23,7,14.78,7.25,23,7.12a7.7,7.7,0,0,0-8.24-4.36l11.24-.11c-2.9-3.38-8.16-2.69-12.57-3.35a3.63,3.63,0,0,1-2.39-1.07,4,4,0,0,1-.69-2.07L625.94,332a35.19,35.19,0,0,0,3.33,8.57c1.42,2.57,3.63,5.23,6.57,5.2a2.45,2.45,0,0,0,1.6-.5c1.06-.93.55-2.63.09-4a21.33,21.33,0,0,1-.68-11.74c.61-2.74,1.77-5.37,2-8.17.41-5-2.21-9.75-4.74-14.11-2.71-4.68-.35-11.47,2.09-16.3s6-8.95,9-13.5A111.29,111.29,0,0,0,653.33,261c5.5-12.86,11.12-26.57,9-40.39,2.18-4.16,4.38-8.41,6.55-12.57,2.43-4.64,5-10.13,4-15.27-.84-4.25-4.5-7.51-8.57-9s-8.51-1.52-12.84-1.4C649.26,189,645.61,194.39,644.83,201.3Z"/><path class="cls-5" d="M824.74,195.54a27.87,27.87,0,0,0,0,8.6"/><path class="cls-5" d="M823.92,185.36c0-.92-1.22-1.22-2-1.69-1.26-.76-1.78-2.33-2.94-3.23a6.12,6.12,0,0,0-3.9-.94,18.54,18.54,0,0,0-7.44,1.47,11.56,11.56,0,0,0-5.54,5c-1.89,3.63-2.9,8.87-.4,12.11q1.77,2.31,3.32,4.79a2.45,2.45,0,0,0,1.76,1.31"/><path class="cls-5" d="M824,89.06q1.26,5.67,3.06,11.19"/><path class="cls-5" d="M830.11,83.44A122.67,122.67,0,0,1,832.69,96"/><path class="cls-1" d="M820.14,119.63c.59-.34.88-1.45,1.19-2.61a10.13,10.13,0,0,0,.26-1.26c.35-2.61-.35-4.53-.67-7.9,0-.2,0-.63-.14-1.21a22.16,22.16,0,0,0-.49-2.38c-1.08-8.47-1.91-14.75-2.54-17.88-.5-2.5-.19-5.1-.24-7.64a1.47,1.47,0,0,1,.17-.86,1.08,1.08,0,0,1,.49-.35,2.65,2.65,0,0,1,2.58.58,5.82,5.82,0,0,1,1.5,2.29,14.82,14.82,0,0,1,.75,2.31c0-3.48-.06-6.84-.06-10.33a1.68,1.68,0,0,1,.08-.63,1.19,1.19,0,0,1,.49-.55A2.78,2.78,0,0,1,827,72a8.06,8.06,0,0,1,1.46,3.54c.42,1.74.83,3.49,1.25,5.23A7.94,7.94,0,0,1,832.13,74a1.93,1.93,0,0,1,2-.65c.72.32.85,1.27.91,2.06a23.81,23.81,0,0,0,.92,5c.54,1.8,1.29,3.53,1.89,5.3a35.13,35.13,0,0,1,1.89,11.08,11.58,11.58,0,0,0,1.3,4c.14.34.5.76.8.54a.63.63,0,0,0,.18-.5,72,72,0,0,0-.5-14,6.1,6.1,0,0,1,.2-3.31c.44-1.11,1.46-2.44,2.37-2.29.21,0,.56.17,1.18,1.26a10.16,10.16,0,0,1,1.22,3.36c.48,3.5.58-.42,1.53,7.19,1,8.32,1.53,17,1.53,17,.64,11.49.14,9.3.61,14.22.4,4.16.72,5.45.23,7.87-.41,2-1.22,4-1.85,8.11-.07.43-.17,1.08-.25,1.86a47.36,47.36,0,0,0,.32,10.72c.15,1.65,0,.78.19,8.74.2,8.83.36,9.34.42,13.53a256.1,256.1,0,0,1-1.52,26.31c-.17,1.67-.41,3.82-.9,6.52-.23,1.31-.38,1.94-1,4.78-1.78,8-1.86,8.7-2.67,10.05-.56.94-2.44,4.08-5.17,4.26a17.73,17.73,0,0,1-2.54-.51c-2.45-.57-3.67-.85-5.24-1.29-2.09-.59-3.69-1.14-4-1.24-4.75-1.68-10.11-8.89-11.59-10.93-.48-.59-1.21-1.47-2.14-2.49-1.42-1.58-2.28-2.38-3.25-3.39a52.72,52.72,0,0,1-3.91-4.67c-7.76-10-11.64-15-10.65-18.69,1-3.84,7.43-5.37,16.51-7.79,1.71-.46,2.59-1,3.9-.92,4.4.42,8.5,6,10.43,10.2.6,1.28,1,2.46,1.49,2.41.78-.08.92-3.18,1.61-8.14.65-4.68.79-3.82,1.6-9.17a99.06,99.06,0,0,0,1.38-12.61A65.17,65.17,0,0,0,831,146c-.56-3.71-.84-5.57-1.5-6.65-3.08-5.09-9-3-13.75-8.48-1.9-2.22-.78-2.37-3.67-6.54a34.88,34.88,0,0,0-7.34-8.25c-2.78-2.19-4.56-2.75-4.47-4s2.24-2.57,4.13-2.64c.42,0,1.76,0,4.93,2.29,2.47,1.8,3.07,2.83,6.19,5.39S819.57,120,820.14,119.63Z"/><path class="cls-2" d="M670.37,350.17c-.45,7.21-2.26,14.47-.92,21.56.41,2.13,1.09,4.2,1.54,6.32a57.41,57.41,0,0,1,.81,12.08q-.07,16.44-.44,32.88c-1,44.27-2.89,88,.59,132.12a21.8,21.8,0,0,0,1.32,7c1.88,4.41,6.29,7.09,10.45,9.48a3.32,3.32,0,0,0,1.53.57,2.93,2.93,0,0,0,1.87-.84c2.7-2.24,4.24-5.59,6.7-8.1s6.77-4,9.39-1.65c3.4-4.54,4.67-10.38,4.75-16s-1-11.29-1.73-16.92c-1.89-13.68-2.27-27.75.88-41.2,1.29-5.49,3.15-10.83,4.29-16.35a118.48,118.48,0,0,0,1.88-18.81q1.29-29.71.51-59.47c-.23-8.68,7.37-15.07,8.86-23.62.54-3.07.37-6.3,1.56-9.17s4.48-5.28,7.33-4c.27,9.12.56,18.43,3.7,27,2.89,7.87,8.07,14.82,10.34,22.89,1.95,6.95,1.62,14.33,2.95,21.41,1.61,8.59,5.66,16.74,6,25.47.38,11.23,4.18,22.91,3.37,34.11-.44,6.27-1.45,12.55-.8,18.8.56,5.42,2.36,10.63,3.24,16a96.77,96.77,0,0,1,.82,16.24q-.12,16.88-.22,33.75c10.4-3.89,21.87,1,32.9-.35a7.1,7.1,0,0,0,3-.88,5.69,5.69,0,0,0,2.19-5.29,22.69,22.69,0,0,0-1.66-5.76c-2.75-7.68-3.15-16-3.53-24.12-.58-12.71-1.16-25.42-1.45-38.14-.68-30.7.4-61.47-2.2-92.07-.65-7.63-5.71-14.55-5.54-22.21.09-4.54,1.85-8.86,3.1-13.24A62.09,62.09,0,0,0,790,349c-.38-7.06-3.91-13.19-2.77-20.17.53-3.28,1.54-6.51,1.59-9.84s-.87-6.73-1.09-10.12c-.26-4,.45-7.95.08-11.9-.76-8-5.79-14.81-10.64-21.19a14.2,14.2,0,0,0-3.67-3.74,13.52,13.52,0,0,0-5.31-1.49c-9.22-1.21-18.84-2.07-28.14-1.53-7.34.43-16.63-1.64-23.4,1.82-4,2-6.68,5.93-10,9a30.89,30.89,0,0,1-19.8,8.34c-2.41.1-5.37.2-6.47,2.36a18.11,18.11,0,0,0-.73,2.67c-.9,2.75-4.14,3.67-6.63,2.78-.73,3.35-2.6,5.57-3.88,8.61-1.75,4.2-1.28,9.53-1,14C668.74,329.14,671,339.59,670.37,350.17Z"/><path class="cls-1" d="M710,96.22c-.37,3.07-.27,6.18-.6,9.26a16.21,16.21,0,0,1-3.13,8.6,20.7,20.7,0,0,1-2.55,2.49l-4.82,4.21a16.19,16.19,0,0,0-3,3.07c-2.32,3.48-1.63,8.08-.83,12.2s1.91,8.94,5.42,11.5a17.1,17.1,0,0,0,5.06,2.22c2.43.76,4.86,1.49,7.31,2.2a16.47,16.47,0,0,0,5.1.89c3.91-.15,7.13-3,10.2-5.39a74.39,74.39,0,0,1,9.4-6.34,39.73,39.73,0,0,0,6.74-4.3c4.75-4.18,6.5-10.7,9.48-16.28a2.44,2.44,0,0,0,.43-1.48c-.17-1-1.46-1.33-2.48-1.56a12.77,12.77,0,0,1-8.94-8.48,17.65,17.65,0,0,1,.91-12.57c.68-1.53-1.6-2.85-3.18-3.4a12.43,12.43,0,0,0-5-.24A54,54,0,0,1,721,91.91a19.21,19.21,0,0,0-4.05-.58C713.65,91.38,710.33,93,710,96.22Z"/><path class="cls-1" d="M758.88,66.09c1.17.61,1,2.32.62,3.6l-2.8,9.89a6.08,6.08,0,0,1-.61,1.6c-.78,1.31-2.34,1.88-3.55,2.8-.87.67-1.56,1.54-2.44,2.2a3.4,3.4,0,0,1-3.06.75.7.7,0,0,1-.35-.23.77.77,0,0,1-.12-.49,16.27,16.27,0,0,1,1.74-7.13,16,16,0,0,0,2-5.58c.12-1.45-.27-3.13.37-4.51C751.71,66.76,756.76,65,758.88,66.09Z"/><path class="cls-3" d="M747.75,70.51c1.82-.07,2.9-2,4.37-3.06s3.68-1.31,5.35-2.31c2.53-1.52,3.57-4.6,4.42-7.42.39-1.3.66-2.74,1.06-4a11.6,11.6,0,0,0-.39-8c-.75-1.75-.68-3.86-1.83-5.38a12.16,12.16,0,0,1-1.28-1.76c-.26-.53-.39-1.13-.62-1.67a4.92,4.92,0,0,0-3.46-2.87,20.78,20.78,0,0,0-3.24-2.88c-1.14-1-1.91-2.38-3-3.49-3.11-3.32-8-4-12.58-4.44-2.77-.29-5.53-.87-8.3-1.14a15.48,15.48,0,0,0-6.61.33c-.88.31-1.69.78-2.55,1.13a21.22,21.22,0,0,1-3.33,1l-7.9,1.86c-2.84.68-1.28,2.77-5.39,7.46-2.11,2.4-3.48,3.24-3.38,4.88s1.45,2.4,1.09,4.11c-.21,1-.74,1-1,2-.2.81-.11,1.85,1.77,4.89a40,40,0,0,0,3.24,4.54,1.22,1.22,0,0,0,1.31-.81A38.43,38.43,0,0,1,714.61,52a5.64,5.64,0,0,1,2.09.12c.95.3,1.7,1,2.62,1.41a3.61,3.61,0,0,0,3.83-.84,28.58,28.58,0,0,1,7,1.33,10.29,10.29,0,0,1,5.62,4.46c.45.83.75,1.75,1.23,2.56a3.36,3.36,0,0,0,2.15,1.72c3.16.58,2.5,3.32,5.35,5.67A15.5,15.5,0,0,0,747.75,70.51Z"/><path class="cls-1" d="M707,49.08l3.15-5.32c1.54-2.62,3.32-5.43,6.2-6.4a12,12,0,0,1,3.28-.48,46.61,46.61,0,0,1,11.92.64,21.52,21.52,0,0,1,10.58,5.26c1.61,1.54,3,3.85,2.11,5.9a5.28,5.28,0,0,0-.51,1.33c-.11.9.61,1.66,1.22,2.32,9.65,10.34,4,25.38-.06,36.9-1.77,5.07-6.64,8.59-11.82,10s-11,2.18-16.06.3a15.65,15.65,0,0,1-6.91-5.1,26.54,26.54,0,0,1-2.23-3.59c-1.44-2.64-3.13-5.43-3.69-8.38a56.48,56.48,0,0,1,4.07-33.79c-.45,0-.93.92-1.38.93l0,.39A2.22,2.22,0,0,1,707,49.08Z"/><path class="cls-4" d="M700.22,42.85a28.6,28.6,0,0,1-.76,10.09"/><path class="cls-5" d="M701,50.66l-.53,3.65"/><path class="cls-5" d="M699.1,42.86a17.7,17.7,0,0,1-.71,7.48"/><path class="cls-5" d="M699.59,40.4l-2.86,4.3"/><path class="cls-5" d="M701,37.73a12,12,0,0,1-5.91-2.86"/><path class="cls-5" d="M698.89,33.48a15.54,15.54,0,0,0,3.44,2.41"/><path class="cls-5" d="M699.88,30.63A14.53,14.53,0,0,0,703.5,37"/><path class="cls-5" d="M701.15,27.87a7.69,7.69,0,0,0,1.79,5.38"/><path class="cls-5" d="M699.16,40.33a20.84,20.84,0,0,1-7.63-.31"/><path class="cls-5" d="M692.87,37.07a11,11,0,0,0,7,1.61"/><path class="cls-5" d="M693,43.75a13.63,13.63,0,0,0,6.25-2.15"/><path class="cls-5" d="M695,47.73a9.69,9.69,0,0,0,2.58-3.21"/><path class="cls-5" d="M700.22,47.13c0,3.19-.13,6.59-1.91,9.24"/><path class="cls-5" d="M701.45,51.11v4.12"/><path class="cls-5" d="M703,52.79a13.44,13.44,0,0,1-1,4.76"/><path class="cls-5" d="M697.14,33.69a4.54,4.54,0,0,0,3.7,3.19"/><path class="cls-5" d="M693.72,35.58a12.38,12.38,0,0,0,5,2.12"/><path class="cls-5" d="M691.21,38.55a10.8,10.8,0,0,0,5,1"/><path class="cls-5" d="M691.21,42.82a33.66,33.66,0,0,0,6.73-.2"/><path class="cls-5" d="M702.52,32.15V28.33C702.69,29.6,702.35,30.88,702.52,32.15Z"/><path class="cls-5" d="M704.23,28.33l-.18,2.14"/><path class="cls-5" d="M758.9,63.19a14.09,14.09,0,0,1-1.12,7"/><path class="cls-5" d="M692,46.1a7,7,0,0,0,4.56-2.76"/><path class="cls-5" d="M695.22,50.16a16.76,16.76,0,0,0,3-6.17"/><path class="cls-5" d="M691.19,41.42a10.43,10.43,0,0,0,4.53.62"/><path class="cls-5" d="M698.08,31.92l1,1.93"/><path class="cls-3" d="M700.4,117.51c-4.58,1.33-6.11,7.15-5.63,11.89a10.15,10.15,0,0,0,1.52,4.88c2.15,3.05,6.42,3.5,10.15,3.67,6.51.29,13.11.56,19.46-.91s12.52-4.93,15.84-10.53c2.12-3.56,3.74-8.43,7.85-9a10,10,0,0,1,4.57.8l15.37,5.24c9.18,3.13,13.28,5.93,18.1,9.71,3.91,3.08,6.31,6,11.12,11.73,8.38,10.06,7.37,11.28,13.76,18.57,8.57,9.8,13.56,11.21,13.3,15.82-.39,6.73-11.41,11.56-11.62,11.29s12.12-9.86,12.07-9.91-5.82,4.74-12.07,9.91l-4.73,1.71c-2.47,2.27-8.41,7.18-13.72,5.45a10.46,10.46,0,0,1-3.87-2.62c-4.35-3.87-8.19-7.34-11.47-10.32-2.65,11.91-1.92,20.21-.68,25.68.68,3,1.68,5.91,1.6,10.55a114.46,114.46,0,0,1-1.6,13.76s-1.12,7.23.91,8.71l1.61,1.15.92,2.75a51.41,51.41,0,0,0,2.75,6.42,62.07,62.07,0,0,0,3.67,17c3.58,9.66,8.51,15.37,6.65,17.42-1.56,1.72-5.77-1.41-15.8-.56a26.88,26.88,0,0,1-3,.37c-12.06-.57-24.14-3.4-36.1-1.74-3.36.47-6.65,1.29-10,2a235.74,235.74,0,0,1-53.67,5.76c-2.94,1.65-5.51,3.66-8.37,5.44s-6.4,3-9.6,1.91c-.92-21.65,14.41-41.17,15-62.82a64,64,0,0,1,.36-8.43c.33-2.09,1-4.12,1.14-6.23.2-3-.71-6-1.38-8.91a58.47,58.47,0,0,1-1.25-18.32c-1,.06-1.47,1.45-2,2.34-1,1.63-3.4,1.53-5.26,1.05-6.46-1.69-12.76-5.67-19.32-4.4-1.44.28-2.91.82-4.33.47s-2.6-2.14-1.7-3.29c-.68-19.07,10.35-36.2,16.13-54.38,1.14-3.56,4.84-5.41,8.38-6.6s7.3-1.67,10.82-2.93C684.2,126.23,692.18,119,700.4,117.51Z"/><path class="cls-5" d="M824.32,90.72A100.61,100.61,0,0,0,826.8,102"/><path class="cls-5" d="M830.1,83.7c.14,4.4,1.51,8.65,2.79,12.86.19.61.28,1.43-.29,1.71a84,84,0,0,1-2.21-11.46"/><path class="cls-5" d="M819.84,119.81a37.09,37.09,0,0,1,7.43,1.94,12.25,12.25,0,0,1,5.89,4.74"/><path class="cls-5" d="M827.31,186.52a21.68,21.68,0,0,0-.88,14.72"/><path class="cls-1" d="M370.29,49.56a2,2,0,0,0-1.45.26c-.66.55-.39,1.56-.39,2.41,0,1.39-.86,2.62-1.17,4a7.92,7.92,0,0,0,1.22,5.52c1,1.67,2.23,3.17,3.13,4.89a3.5,3.5,0,0,0,1.08,1.48c.53.33,1.4.22,1.58-.37a1.4,1.4,0,0,0,0-.73,42.41,42.41,0,0,1-.79-11.24c.07-1.13,1-4,.46-5S371.19,49.66,370.29,49.56Z"/><path class="cls-1" d="M427.43,51.26a1.87,1.87,0,0,1,.91-.5,1.22,1.22,0,0,1,1.14.74,3.27,3.27,0,0,1,.21,1.39c0,5.2-.64,10.6-3.51,15a16.78,16.78,0,0,1-2.48,3,1.77,1.77,0,0,1-1.58.68c-.26-2,.39-4,.9-5.92a40.46,40.46,0,0,0,1.23-8.47c0-1-.27-2.42.26-3.35S426.6,52,427.43,51.26Z"/><path class="cls-1" d="M380.85,89.33a19.37,19.37,0,0,1-5.78,16.26,19.22,19.22,0,0,0-3,3.1,8.69,8.69,0,0,0-1.27,3.87c-.74,6.58,3.22,12.7,7.07,18.14,1.93,2.73,4,5.51,6.84,7.24a25,25,0,0,0,8.2,2.61c6.27,1.24,12.69,2.47,19,1.52,2.64-.4,5.21-1.17,7.86-1.45.33,0,.82.17.65.45,2.74-2.7,4-6.52,4.72-10.27s.95-7.59,2.08-11.23c.71-2.28,1.74-4.84.55-6.91-1.52-2.64-5.39-2.52-8.15-3.89a9.85,9.85,0,0,1-4.63-5.63,28.42,28.42,0,0,1-1.26-7.28c-.38-4.56,1.17-9.67-1.15-13.63-1.7-2.91-5.25-4.41-8.67-4.58s-6.79.8-10.06,1.79a27.33,27.33,0,0,0-4.57,1.72C385.8,83,383.24,86.27,380.85,89.33Z"/><path class="cls-1" d="M375.29,50.38l-.19,9.72a36.88,36.88,0,0,0,.75,7.62c.63,3.28,1.37,6.57,2,9.85a50,50,0,0,0,2.76,9.2c.53,1.24,1.12,2.25,1.76,3.43,1.57,2.89,4.66,4.63,7.69,6s6.82,1,10.17.83a14.87,14.87,0,0,0,5.22-1c.53-.22,1-.49,1.54-.76,3.72-2,6.27-5.85,8.2-9.55a75.81,75.81,0,0,0,4.53-11.64c1.81-5.51,3.4-11.12,3.5-16.91.12-6.94,2.08-13.85.68-20.65-.8-3.91-1.37-8-3.49-11.39-2.67-4.3-7.35-7-12-9a28.73,28.73,0,0,0-9.22-2.59,12.94,12.94,0,0,0-9.06,2.5,34.41,34.41,0,0,0-7.9,9c-1,1.66-2,3.33-3,5-2,3.44-2.21,7.71-3.21,11.54A36.8,36.8,0,0,0,375.29,50.38Z"/><path class="cls-3" d="M373.09,47.62a9.22,9.22,0,0,1-2.56-4,7.67,7.67,0,0,1-.21,3.09c0-2.26,0-4.51,0-6.77a.92.92,0,0,1-.76.7,18.51,18.51,0,0,1,.55-4.38,2.14,2.14,0,0,0-1.65.62,17,17,0,0,0,.84-2.77,3.67,3.67,0,0,0-1.94.27,78,78,0,0,0,2.46-7.92,15.68,15.68,0,0,1,1.4-4.14,2.38,2.38,0,0,0,2.54-2.67l-1.91-.07,1.33-2.09a1.08,1.08,0,0,0,.25-.83c-.07-.28-.53-.44-.67-.18a4.71,4.71,0,0,1,2-3.42,13.82,13.82,0,0,1,3.67-1.82c3-1.12,5.41-3.77,7.94-5.69s4.93-3.71,7.91-4.34,6,.06,9-.13C405.49,1,407.74.32,410,.55s4.64,1.68,4.85,3.89A3.09,3.09,0,0,1,419.14,6c1.89-.52,3.32,1.56,5,2.62,2.38,1.55,6.19,1.27,7.4,3.81.64,1.32.24,3,.94,4.27s2,1.81,2.56,3a5.34,5.34,0,0,1,.33,2.28l0,12-1.5-3.05a3,3,0,0,1-.28,2.7,2.17,2.17,0,0,1-.94-2.28v4.6c0-.5,0-.74.05-1.24a2.19,2.19,0,0,1,.69,1.86q.12,3.32.06,6.61-.22-2.92-.46-5.87a16.62,16.62,0,0,0-1.05,4,6.7,6.7,0,0,1-.52-2.73c-.47,1.9-.89,3.81-1.28,5.73,0-.49-.24-1.15-.65-1.2a.4.4,0,0,0-.23,0c-.6.28-2.95,5.56-3.59,7-.79.25-1.31.77-2.11,1a64.85,64.85,0,0,1-4.82-16.39l-1.7,4a13.21,13.21,0,0,0-.83-6.64,1.9,1.9,0,0,1-.42,2,13.79,13.79,0,0,0-2.24-6.3c-.72.7-1.41,1.43-2.06,2.2A6,6,0,0,0,410,23.41a6.29,6.29,0,0,0-6.77-1,12,12,0,0,0-3.05,2.36L393.65,31a28.5,28.5,0,0,1,.2-8.3l-4,8.1a9.08,9.08,0,0,0-1.55-3.09l-1.57,6.62-.89-1.69-1.16,7a1.78,1.78,0,0,1-1.26-1.55,11,11,0,0,1-.44,4.72l-1.27-1.91-.25,3.71-1.78-.43a2.66,2.66,0,0,1-.6,2.11l-4-2.21C375.59,45.82,374.19,46.15,373.09,47.62Z"/><path class="cls-5" d="M282,250.41c1.24,2.06,1.27,4.58,2,6.87.63,2.05,1.83,4.11,1.35,6.2"/><path class="cls-5" d="M277.47,253.49l1.57,4c.26.68.53,1.35.72,2,1.05,3.83-.17,8,.82,11.81"/><path class="cls-5" d="M271.27,252.65q1.82,6.66,3.08,13.45"/><path class="cls-1" d="M495.87,103.08c.59-.33.88-1.42,1.19-2.56a10.59,10.59,0,0,0,.25-1.23c.35-2.55-.34-4.43-.66-7.73,0-.2-.06-.62-.14-1.18A21.57,21.57,0,0,0,496,88c-1.08-8.28-1.91-14.43-2.54-17.5-.5-2.45-.18-5-.24-7.48a1.4,1.4,0,0,1,.17-.84,1.06,1.06,0,0,1,.49-.34,2.67,2.67,0,0,1,2.57.56A5.77,5.77,0,0,1,498,64.69a15,15,0,0,1,.75,2.26c0-3.41-.07-6.7-.07-10.11a1.63,1.63,0,0,1,.08-.62,1.16,1.16,0,0,1,.49-.54,2.83,2.83,0,0,1,3.45.77,8,8,0,0,1,1.46,3.47q.62,2.55,1.24,5.12a7.69,7.69,0,0,1,2.46-6.67,1.92,1.92,0,0,1,1.94-.63c.72.31.85,1.24.91,2a23,23,0,0,0,.92,4.86c.54,1.76,1.28,3.45,1.89,5.19a33.66,33.66,0,0,1,1.88,10.84,11.25,11.25,0,0,0,1.3,3.89c.14.34.5.74.8.52a.61.61,0,0,0,.18-.48,70.49,70.49,0,0,0-.5-13.7,5.85,5.85,0,0,1,.2-3.24c.44-1.1,1.45-2.39,2.36-2.25.21,0,.56.17,1.18,1.24a9.78,9.78,0,0,1,1.22,3.29c.48,3.42.57-.42,1.53,7,1,8.14,1.52,16.69,1.52,16.69.64,11.24.15,9.1.61,13.91.4,4.07.73,5.34.23,7.71-.41,2-1.21,3.91-1.84,7.94-.07.42-.17,1.06-.26,1.82a45.42,45.42,0,0,0,.33,10.5c.14,1.61,0,.76.18,8.55.2,8.64.37,9.14.43,13.24a244.23,244.23,0,0,1-1.53,25.76c-.16,1.64-.41,3.74-.89,6.38-.23,1.28-.38,1.9-1,4.68-1.77,7.87-1.86,8.52-2.66,9.84-.57.93-2.44,4-5.16,4.17a15.6,15.6,0,0,1-2.54-.5c-2.44-.55-3.67-.83-5.23-1.26-2.09-.58-3.68-1.12-3.95-1.21-4.74-1.65-10.1-8.7-11.57-10.71-.48-.57-1.21-1.43-2.13-2.43-1.43-1.55-2.29-2.33-3.25-3.32a51,51,0,0,1-3.91-4.57c-7.75-9.8-11.62-14.7-10.62-18.3,1-3.75,7.41-5.26,16.47-7.63,1.71-.45,2.59-1,3.9-.9,4.38.41,8.48,5.92,10.41,10,.59,1.26,1,2.41,1.49,2.36.78-.08.91-3.11,1.6-8,.65-4.58.79-3.74,1.6-9a96.65,96.65,0,0,0,1.38-12.34,62,62,0,0,0-.58-11.45c-.55-3.64-.83-5.46-1.48-6.51-3.09-5-9-2.89-13.74-8.31-1.89-2.17-.77-2.32-3.66-6.4a34.57,34.57,0,0,0-7.32-8.08c-2.78-2.14-4.55-2.69-4.47-3.92s2.24-2.51,4.12-2.59c.43,0,1.76,0,4.92,2.25,2.47,1.76,3.07,2.77,6.18,5.27S495.3,103.4,495.87,103.08Z"/><path class="cls-5" d="M502.17,170.43a14.59,14.59,0,0,0,.27,5.51c.17.69.8,2.68.6,2-.6-2,1.14,3.75,1.63,5.65"/><path class="cls-5" d="M499.23,74.4a77.33,77.33,0,0,1,2.8,8.95"/><path class="cls-5" d="M506.13,68.42a12.16,12.16,0,0,0-.08,5.2c.38,1.9,1.21,3.75,1.11,5.68"/><path class="cls-5" d="M495.32,102.81c1.69-.07,3.38-.08,5.08,0a8.94,8.94,0,0,1,3.71.69,4.67,4.67,0,0,1,2.13,2.15c.32.65.47,1.37.77,2a2.57,2.57,0,0,0,1.5,1.51"/><path class="cls-5" d="M507.37,80.69l.24,2.12"/><path class="cls-5" d="M505.88,65.8v1.75"/><path class="cls-2" d="M355.51,366.37c1.68,7,2.79,8.76,6.45,23.13.8,3.14,2.15,8.46,3.58,15.07,0,0,3,13.89,4.65,25.94,2.73,20-2.64,24.4-1.79,44.87.89,21.15,8.31,56.7,15,69.4.84,1.58,4.17,7.55,1.79,11.92a10.13,10.13,0,0,1-3.78,3.65c-.07-.07,4.94-6.61,11.3-6.81,3.05-.09,6.16,1.28,6.08,1.76s-2.11.29-3.58.35c-3.19.12-7.83,1-13.8,4.7,17.11,5.64,31.85,7.81,37.43,1.26,4.37-5.12-.57-11.19-4.65-35.06s-.84-27.78-6.09-52.92c-1.66-8-2.61-10.58-3.22-17.18-1.19-12.89.53-23.44,2.15-32.95,3.1-18.21,5.23-15.91,5-24.18-.21-8-2.33-14.73-2.15-28.05,0-.49.05-3.28.36-7,.69-8.29,1.34-16.18,3.22-16.47,2.92-.45,9.16,17.37,12.18,34,1.09,6,.53,5.12,3.31,24.82,1.48,10.49,2.19,15.86,3.31,21.13,1.82,8.48,6.35,16.52,6.69,25.15.43,11.08,4.69,22.61,3.79,33.67-.5,6.19-1.63,12.39-.9,18.56.63,5.35,2.65,10.5,3.64,15.81a83.39,83.39,0,0,1,.91,16l-.25,33.32c11.68-3.84,24.55,1,36.93-.34a8.89,8.89,0,0,0,3.37-.88,5.31,5.31,0,0,0,2.46-5.22,13.43,13.43,0,0,0-1.86-5.68c-2.34-3.46-2.85-9.18-3.78-20.47-2-24.41-1.81-41-1.81-41,.43-35-2.39-73.87-4.26-89.31a160.8,160.8,0,0,1-1.43-23.14c.05-4.24.24-5.05.48-13.44.24-8.65.25-15.34.23-19.15,0-9.77-.08-14.78-.73-21-.15-1.49-.52-4.79-1.06-8.77-.66-5-1-6.63-1.43-9.81-1-7.64-.4-7.68-1.17-13.18,0,0-1.8-12.81-7.63-20.61a12.36,12.36,0,0,0-4.12-3.7,17,17,0,0,0-6-1.47c-10.35-1.19-21.14-2-31.58-1.5-8.24.42-18.66-1.62-26.26,1.79-4.5,2-7.5,5.85-11.17,8.9a37.17,37.17,0,0,1-22.22,8.24c-2.71.1-6,.2-7.26,2.33a15.85,15.85,0,0,0-.82,2.64c-1,2.71-4.65,3.62-7.44,2.74a20.1,20.1,0,0,0-4.35,8.5c-2,9,4.13,14.22,8.26,25.3C356.55,345.39,350.55,345.62,355.51,366.37Z"/><path class="cls-3" d="M375.26,102.68c.3.31.79.28,1.21.35s.9.42.74.81c-.09.23-.35.33-.56.44a2.78,2.78,0,0,0-1.27,1.77,7.7,7.7,0,0,0-.16,2.2,4.32,4.32,0,0,0,.19,1.44,4.88,4.88,0,0,0,.46.8l2.35,3.49a11.66,11.66,0,0,0,3,3.18,7.82,7.82,0,0,0,1.57.75c3.58,1.44,6.72,3.91,10.47,4.88,7.08,1.85,15,2.65,21.8,0,1.65-.62,3.65-.15,5.33-.71a8.16,8.16,0,0,0,4.25-3,7.17,7.17,0,0,0-.67-8.38,3.57,3.57,0,0,1-.9-1.45,22.19,22.19,0,0,1,2.8.62l6.21,1.65c.55.14.53.72.95,1.1.17.16.32.35.51.5a2.56,2.56,0,0,0,2,.42,15.64,15.64,0,0,0,2-.56,10.28,10.28,0,0,1,4.9-.2c4,.82,8.18,1.48,12.23,2.16a20.44,20.44,0,0,1,3.86.91c2.59,1,4.66,2.9,6.65,4.79,2.91,2.76,4.82,6.41,7.69,9.2a1,1,0,0,1,.41.74c2.59,3,5.21,5.82,7.8,8.85a10.73,10.73,0,0,1,1.72,2.43c.34.75.5,1.58.88,2.32a9,9,0,0,0,2.25,2.55l13.46,11.84c1.53,1.35,3.31,2.59,4.88,3.9-.25.84-.34,1.78-.58,2.63a11.88,11.88,0,0,0-.58,2.68c-.06,1,.15,2.08,0,3.12a2.79,2.79,0,0,1-1.64,2.46c-1,.33-1.95,1-2.92,1.39a12.09,12.09,0,0,0-1.72.78,22.63,22.63,0,0,0-3,2.79,8.16,8.16,0,0,1-2.28,1.42c-3.74,1.57-6.77,4.82-9.83,7.45-1.67,1.43-3.41,3-4,5.07-.48.12-.91-.28-1.23-.65A64.06,64.06,0,0,1,472,186c-2.53-3.73-8.63-3.07-13.2-3.36a4.47,4.47,0,0,0-2,.18c-1,.43-1.61,1.54-2.6,2,3.3,6.55.31,14.88,2.48,21.86,2,6.42.87,13.64-.12,20.28a17.78,17.78,0,0,0-.32,4,20.75,20.75,0,0,0,1.08,4.36c1.56,5.19,1.81,10.66,2.05,16.07.3,6.95,7.32,12.29,8,19.22.34,3.44-.53,6.94,0,10.36.48,3.1,2.09,5.91,3.36,8.79s2.24,6.1,1.39,9.12l-1-.06a20.49,20.49,0,0,1,.74,4.3,2.68,2.68,0,0,1-.2,1.32,2.85,2.85,0,0,1-2.48,1.17c-4.5.37-8.94-.93-13.35-1.91s-9.12-1.64-13.34-.07a47.54,47.54,0,0,0-4.37,2.12,31.94,31.94,0,0,1-16.6,3.24c-10.28,1.63-20.2,1-30.58.21-9.22-.72-18.43-1.86-27.67-1.65A93.55,93.55,0,0,0,347,309.36a7.56,7.56,0,0,1-3.06.2,12.58,12.58,0,0,1-2.38-1.05,8.09,8.09,0,0,0-3.88-.69c-.07-.21-.16-.93-.23-1.15l.88,1.25A1.6,1.6,0,0,1,337,306.4a7,7,0,0,1,1.85-5.24,10.49,10.49,0,0,0,1.9-2.16,5.72,5.72,0,0,0,.45-1.83l2-14.24c.44-3.3-.88-6.57-1-9.9-.23-5.79.5-11.57.58-17.37s-.53-11.77-3.26-16.91c1.1-9.79-1.17-19.67-2.57-29.42l-1.41-9.83a9.78,9.78,0,0,0-.94-3.46c-2.63-4.76-3-10.33-4.23-15.6-.73-3.05-1.56-6.28-3.88-8.42-1.82-1.69-4.4-2.53-6-4.44-2.46-3-6.21-5.85-10-6.71a12.39,12.39,0,0,0-10.94,2.58,5.94,5.94,0,0,1-2.24,1.6c-.9.24-2.09-.38-2-1.29-5.72-7.7-11.55-15.69-16.69-23.77a5,5,0,0,1-1-2.58,1.79,1.79,0,0,1,1.7-1.87c2.62.2,4.13-1.36,6.55-2.37,1.82-.77,3.77-1.23,5.56-2.09a26.14,26.14,0,0,0,3.31-2l12.83-8.67a83.23,83.23,0,0,1,17-9.09c1.48-.56,3-1.07,4.46-1.66a7,7,0,0,0,2.58-1.54,2.56,2.56,0,0,0,.62-2.75,34.71,34.71,0,0,0,11.37,0c2.83-.39,6-.88,8.35.67,2.27,0,4.9-.21,7.17-.24a20.05,20.05,0,0,0,5.13-.52c2.59-.73,4.82-2.51,7.49-2.94C373,102.09,374.36,101.72,375.26,102.68Z"/><path class="cls-1" d="M1020.28,64.85a43.51,43.51,0,0,1-.92,4.81,31.14,31.14,0,0,0-.46,5.73,41.57,41.57,0,0,0,1.15,9.4c.9,4.42,1.36,6.63,2.52,9.18a21.48,21.48,0,0,0,6.19,8.48c5.06,3.92,12.86,5.27,19,2.29,4.16-2,6.45-5.44,8-7.79,1.19-1.78,2.26-4.42,4.36-9.63a94.78,94.78,0,0,0,3.67-9.86A46.81,46.81,0,0,0,1065,64.39,56.55,56.55,0,0,0,1063.62,52c-1.24-5.39-2.31-10.06-6-14.67-1.8-2.27-6.44-8.13-13.53-8.48-4.05-.21-7.05,1.48-10.55,3.44s-8.45,4.73-10.32,10.08c-1.23,3.52.48,3.7-.92,9.41-1,3.92-2.13,5.34-2.06,8.94A28,28,0,0,1,1020.28,64.85Z"/><path class="cls-3" d="M1017.25,64.17a26.31,26.31,0,0,1-.84-9.22,2.38,2.38,0,0,0-1.35,2.24l.2-3.73a3.39,3.39,0,0,0-1.29,2.2l.39-3.48a2.18,2.18,0,0,0-1,2.58c-.4.12-.53-.52-.43-.91a24.72,24.72,0,0,1,5.59-10.41,5.35,5.35,0,0,0-3.88,2.78,5.48,5.48,0,0,1,3.2-3.93,3.21,3.21,0,0,1-2,.69,5.85,5.85,0,0,1,3.12-.73,4.24,4.24,0,0,0-3.87-.28,13.65,13.65,0,0,1,4.37-.25l-2.62-.63a17.35,17.35,0,0,1,3-.08,24.52,24.52,0,0,1,.17-6.9,1.41,1.41,0,0,0-1.39,1,3.4,3.4,0,0,0,.06,1.87c.38-3,3.18-5.12,5.86-6.59a3,3,0,0,0-2.83,2,7.34,7.34,0,0,1,.79-2.38,2.56,2.56,0,0,1,2-1.32l-3.2.3,4.93-1.63a5.34,5.34,0,0,0-1.69-.56,3,3,0,0,1,2.59-.69c2.72.56,5.06-1.83,7.62-2.9l-2.27-.31,3.13-.13a1,1,0,0,0-.54-1,19.46,19.46,0,0,1,3.58-.11l-1,0a35.9,35.9,0,0,0,6.22-.26c3.17-.4,6.62,0,9.81,0a8.25,8.25,0,0,0-3.35.29,28.4,28.4,0,0,1,5.68,1.25,1.91,1.91,0,0,1-.92,0l4.66,1a9.86,9.86,0,0,1-3,.48l1.75.9c5.17,2.68,10.18,6.13,13.61,10.83a3,3,0,0,0-2.3-.72,3.19,3.19,0,0,1,2,1.36c.36.75-.32,1.9-1.1,1.6a8.73,8.73,0,0,1,5.21,5.58,4.91,4.91,0,0,1-2.61-1,6.46,6.46,0,0,1,2.19,4.13l-1-.29a13.67,13.67,0,0,1,1.65,7.12,3.45,3.45,0,0,0-.24-1.85l-.79,3.31c-.48,2-1.57,4.35-2.24,6.28a18.63,18.63,0,0,1-2.4,5.15c-.43.58-.93,1.11-1.34,1.7a24.27,24.27,0,0,0-2,4c-.27.59-.83,1.28-1.43,1a1.31,1.31,0,0,1-.61-1,29.21,29.21,0,0,1-.7-5.66c-.09-3.73.47-7.68-1.22-11-1-2-3.18-3.51-5-4.83.73-.12,1.2.9.88,1.57a3.07,3.07,0,0,1-1.72,1.3l0-3.78c-.62-.24-1.2.42-1.44,1s-.5,1.35-1.13,1.52l.86-2.25a.6.6,0,0,0,.06-.41c-.1-.27-.47-.27-.74-.18a2.31,2.31,0,0,0-1.48,2.16,5,5,0,0,1,.92-3.38c-.4-.35-1,.16-1.23.62l-3.76,6.32a13.56,13.56,0,0,1,.51-5.87l-1.5,3.46a12.34,12.34,0,0,1,0-5.1,6.46,6.46,0,0,0-1.35,3.36c-.61-1-.11-2.31-.3-3.47-.29-1.88-2.23-3-3.95-3.78-.74-.35-1.8-.47-1.87.34a2,2,0,0,0-.2-2.57l-.9,2.1a1,1,0,0,1-.43.56c-.41.18-.82-.23-1.07-.59a30.21,30.21,0,0,1-2.37-4.13,19.94,19.94,0,0,1,1.44,3.74,5.86,5.86,0,0,1-4.36-.76,1.53,1.53,0,0,1,1,1.21,23.16,23.16,0,0,1-5.61-2.85l.46,2.87c-1,.54-2.29-.74-3.23-.15a2,2,0,0,0-.67,1.4c-1.24,7.41-2.59,14.89-5.56,21.79A6.23,6.23,0,0,1,1017.25,64.17Z"/><path class="cls-1" d="M1069.76,73.23a1.51,1.51,0,0,1,1,1.22,4.29,4.29,0,0,1-.11,1.67q-.59,2.89-1.16,5.8c-.15.7-.29,1.4-.48,2.09-.61,2.24-1.93,4.53-4.13,5.27a9,9,0,0,1-3.48.25,2.48,2.48,0,0,1,.32-2.51,17.64,17.64,0,0,0,1.48-2.2C1064.21,82.54,1064.53,72,1069.76,73.23Z"/><path class="cls-1" d="M1013,66.91c-.28,2.84-1.87,5.66-1,8.38a10.44,10.44,0,0,1,.81,2.62c0,.74-.25,1.54.1,2.2a4,4,0,0,0,.72.81c.68.71,1,1.67,1.7,2.4s1.88,1.15,2.6.49c.45-1.63-.16-3.33-.52-5-.71-3.3.28-5.79.62-9C1018.41,66,1015.8,67.55,1013,66.91Z"/><path class="cls-3" d="M979.24,146.71a33.71,33.71,0,0,1,8.48-9.55,37.92,37.92,0,0,1,11.46-6s8.92-4.55,14.45-5.61c.39-.07.71-.1,2.19-.35,2-.35,2.44-.47,2.63-.27.47.52-1.6,1.89-1.38,3.53.17,1.24,1.54,2,3.21,2.91,4.46,2.41,6.68,3.61,7.57,3.94,8.51,3.14,7.76,5.29,14.9,7.47,3.26,1,8.54,2.55,14.22.83a15.08,15.08,0,0,0,6.19-3.52c1.36-1.33,3.21-3.14,3-5.61s-2.31-3.88-3.21-4.57c-2.41-1.82-4.64-1.87-4.59-2.28.1-.7,6.76-.83,14,0a49.49,49.49,0,0,1,8.71,1.45,37.06,37.06,0,0,1,14.91,8.51,65.8,65.8,0,0,1,6.42,7.48c4.86,6.11,5.11,7.11,9.63,13.08,6.57,8.67,8.73,10.09,10.32,15.15,1.66,5.27.68,8.07.23,9.13-1.13,2.64-3.16,4.14-6,6.23-5.43,4-8.41,3.49-11.24,7.27-.67.89-1.23,1.89-2.06,1.86-2-.05-2.83-5.71-3.9-5.6-.7.07-.94,2.52-1.15,4.57-1.16,11.43-1,7.21-1.14,10.58-.36,7.79-.53,11.69-.46,12.66.25,3.73.69,3.9,3,15,1.76,8.49,1.61,8.92,2.52,11.83,1.94,6.22,3.71,7.79,6,12.87,6.44,14.55,4.72,30.53,9.86,33.84a7.56,7.56,0,0,1,3,3.11,6.35,6.35,0,0,1,.46,3.74,9.19,9.19,0,0,1-2.75,5c-10.94,11-30.5,15.78-30.5,15.78-11.13,2.69-19.2,3.4-32.56,4.56-26.53,2.32-20.64-.91-38.06,1.25-2.25.28-18.18,2.29-22.47-1.87-.48-.46-1.9-1.84-1.61-3.32s2.08-2.15,3-2.7c4.49-2.71,1.63-10.58,3.21-22,.84-6.06,1.87-5.48,2.75-12.25.72-5.49.48-9.23.23-14.74-.49-10.79-.59-21.59-.91-32.38-.15-5-1.19-10-.69-14.95.47-4.65,1.55-8.8-.92-10.58-1.47-1.07-3.07-.47-6.19-2.08a17.59,17.59,0,0,1-3.67-2.7c-4.74-4.55-5.14-17.07-7.79-29.47-1.58-7.37-2.42-7.55-3.21-13.5A66.87,66.87,0,0,1,979.24,146.71Z"/><path class="cls-5" d="M993,215.61c3.13-1,5.67-3.34,8.78-4.38,5.87-2,12.35,1.06,18.46,0,3.5-.6,7-2.53,10.4-1.58a7.6,7.6,0,0,0-.34-5.94c-.8-1.87-2-3.54-3-5.35-5.56-10.58-1.49-23.9-5.54-35.14l-.31,1.83"/><path class="cls-6" d="M1018.21,171c-2.79-3.15-4.36-7.23-7.19-10.35a33.33,33.33,0,0,0-4.78-4.08l-5.32-4c-3.3-2.48-6.86-5.06-11-5.34"/><path class="cls-6" d="M1001.64,177.4c4.19,4,9.71,6.38,15.09,8.62"/><path class="cls-6" d="M1099.57,155.89a123.17,123.17,0,0,1-.44,42.86"/><path class="cls-1" d="M1000.67,213.19a71,71,0,0,0,3.87,8.37c3.75,6.89,9.38,13.9,14.24,21.11a19.5,19.5,0,0,1,2.76,5.14c.36,1.21.48,2.48.87,3.68a14.75,14.75,0,0,0,4.42,6.27,130.47,130.47,0,0,1,13.4,15.29c2.25,2.86,2.85,4,5,7.11,5.66,8,10.72,13.42,19.49,22.7,12,12.72,18.07,19.09,18.58,19.49a19.9,19.9,0,0,1,6,7.11c.72,1.52.63,1.91,2.06,7.79.7,2.88,1.46,5.36,3,10.32,1.17,3.8,1.74,5.43,3.21,6s2.46-.4,4.13.46c1.43.75,1.34,1.77,2.52,2.07,1.45.35,2-1.08,3.9-1.15,2.13-.07,2.71,1.66,4.36,1.38,2-.34,2.09-3,3.44-3,1.76,0,2,4.38,6.19,7.11,1.56,1,2.46,1,3,.92,1.64-.32,2.63-2.16,3-3.44.65-2.39-.51-4.55-1.38-6.19-1.35-2.56-3-3.86-4.72-7.6a2.16,2.16,0,0,1-.09-.2c-1.44-3.29-1.78-6.27-1.38-6.42s2.68,4.54,6.88,10.32a6.77,6.77,0,0,0,3.44,2.75,5.83,5.83,0,0,0,3.9-.23c.47-.2,2.68-1.15,2.75-2.52.09-1.87-4-2-7.56-6-1.4-1.54-2.23-3.17-3.9-6.42s-1.41-3.44-2.3-5.05c-2.53-4.59-6.87-6.93-11.46-9.4s-4.76-1.71-7.34-3.44c-5-3.35-7.18-8.13-8.25-10.31-7.2-14.66-15.23-15-27.75-36.69-3-5.18-4-7.78-7.57-12.38-2-2.6-5.22-6.24-11.69-13.53a46.33,46.33,0,0,1-6-7.8,47.93,47.93,0,0,1-3.44-7.34c-2.65-6.65-2.43-8.59-4.59-13.53a49.78,49.78,0,0,0-4.56-8.09c-6.44-9.7-10.67-16.08-17.22-16.67-7.24-.65-15.46,5.95-16.05,12.15C997.61,205.44,998.63,208,1000.67,213.19Z"/><path class="cls-5" d="M131.19,59.27a5.45,5.45,0,0,1,1.46-1.49,1.82,1.82,0,0,1,2,0,2,2,0,0,1,.21,2.52,23.33,23.33,0,0,1-1.73,2.13c-1.05,1.43-1.32,3.37-2.55,4.65a2.3,2.3,0,0,1-1.77.82,6.19,6.19,0,0,1,.68-3.38"/><path class="cls-3" d="M88.44,30.33a10.9,10.9,0,0,1,7.71-6.23,15.67,15.67,0,0,1-.87,7.7l3.56-4.24a29.81,29.81,0,0,1-2.48,10.81q3.9-4.45,8.11-8.64a11,11,0,0,1-.81,4.51l4.49-4.55a15.25,15.25,0,0,1-.84,3.32,29.28,29.28,0,0,1,4.81-3.77,18.28,18.28,0,0,1-3.36,6.85,28.9,28.9,0,0,0,5.78-4.62l-2.25,6.88,5.84-5.74a13,13,0,0,1-2.7,8A7.82,7.82,0,0,0,119.16,38a4.08,4.08,0,0,0-.67,2L121,38.9a17.6,17.6,0,0,1-1.5,4.05,2.1,2.1,0,0,1,2.68-1.16,2.08,2.08,0,0,1,1,2.75L124,42l.7,3a25.13,25.13,0,0,0,.07-22.12,23.19,23.19,0,0,0-18-12.52A12.23,12.23,0,0,0,101,11a16.87,16.87,0,0,0-4.36,2.91c-3,2.51-6.08,5.08-8.14,8.41s-3,7.62-1.39,11.21A17.37,17.37,0,0,0,89.7,30l1.07,3.14a8,8,0,0,1,2.16-7.24"/></g></g></svg>