<svg xmlns="http://www.w3.org/2000/svg" viewBox="0 0 443.9 176.54"><defs><style>.cls-1{font-size:1.85px;font-family:TimesNewRomanPSMT, Times New Roman;}.cls-1,.cls-2{fill:#2b3e98;}.cls-2{stroke:#231f20;stroke-miterlimit:10;stroke-width:0.5px;}</style></defs><g id="Layer_2" data-name="Layer 2"><g id="Layer_1-2" data-name="Layer 1"><text class="cls-1" transform="translate(349.36 148.51) scale(1.15 1)"> </text><path class="cls-2" d="M290.17,163.94a6.32,6.32,0,0,1-1.16.45,1.41,1.41,0,0,1-1.17-.65c-.12.34-.24.68-.39,1a3.42,3.42,0,0,0-.54,2.13,3.26,3.26,0,0,0,1.16,1.52,2.06,2.06,0,0,0,.57.39,2.14,2.14,0,0,0,.84.11,4.1,4.1,0,0,0,2.91-.85,2.44,2.44,0,0,0,.56-1.85c-.05-.65-.24-1.29-.35-1.94,0-.21,0-.42-.06-.64h-.17A4.82,4.82,0,0,0,290.17,163.94Z"/><path class="cls-2" d="M292.54,161.31a.83.83,0,0,0-.28-.34,3.09,3.09,0,0,0,.34.65A1.13,1.13,0,0,0,292.54,161.31Z"/><path class="cls-2" d="M349.6,133.22a.53.53,0,0,0-.38,0c-.87.06-1.36.89-1.92,1.48a4.41,4.41,0,0,1-2.64,1.31,25.85,25.85,0,0,0-3.31.16,6.05,6.05,0,0,0-.92.36c-.2.68-.39,1.37-.65,2-.44,1.14-1.09,2.42-2.39,2.74a1.44,1.44,0,0,0-.65-1.31l-.14,0c.95,2.1,2.67,4.36,4,3.87.9-.33,1.13-1.34,1.48-2.15a6.09,6.09,0,0,1,5.86-3.38,2,2,0,0,0,.82-.06,1.25,1.25,0,0,0,.64-.87,8.37,8.37,0,0,0,.38-2.76l.09-1A.44.44,0,0,0,349.6,133.22Z"/><path class="cls-2" d="M292.54,163.62a1.06,1.06,0,0,0,.85-.16.63.63,0,0,0,.07-.77,3.72,3.72,0,0,0-.55-.65,3.25,3.25,0,0,1-.31-.42,3.07,3.07,0,0,1,0,.68A7.28,7.28,0,0,0,292.54,163.62Z"/><path class="cls-2" d="M285.06,155.74a11.91,11.91,0,0,0,.4,3.31,11.57,11.57,0,0,0,1.05,2.26l1.29,2.38,0,.05a11.37,11.37,0,0,0,.46-1.71c.09-.58.05-2,1.1-1.11a3.65,3.65,0,0,0,.78.63,1,1,0,0,0,1.22-.4.88.88,0,0,1,.12-.21.42.42,0,0,1,.16-.09.64.64,0,0,1,.58.12,3.1,3.1,0,0,1-.15-1.83l.23-.57a25.73,25.73,0,0,0,.24-3.5H285Z"/><path class="cls-2" d="M336.12,136.81c.42-.26.93.15,1.39.34a2.66,2.66,0,0,0,2-.16c.32-.14.62-.3.93-.45.09-.27.16-.55.25-.81-.37-.11-.83-.3-.81-.66,0-.08,0-.16,0-.23s-.13-.05-.2-.06l-1.3,0c.21-.59.36-1.34-.17-1.72a1.94,1.94,0,0,0-.79-.26c-1.73-.33-3.18-1.45-4.82-2-2-.71-3.39-2.38-5-3.67l-1.8-1.46a12.67,12.67,0,0,1-2.13-2c-.16-.21-.29-.56-.51-.71a49,49,0,0,1-4.07-3c-.31-.27-1-.62-1.2-1s-.62-.36-1-.39a9.88,9.88,0,0,1-3.78-1.52c-1.73-1-3.7-1.67-5.46-2.58v6.5l.48-.18-.48.21v4l1.61.55c1.18.4,2.45.55,3.66.85a15,15,0,0,1,6.32,3.22,33,33,0,0,0,3.08,2.71,8.67,8.67,0,0,0,4.73,1.41,25,25,0,0,0,5.1,3.24,8.21,8.21,0,0,1,1.73.86c.85.65,1.33,1.73,2.39,2l.36.1C335.93,138.49,335.64,137.11,336.12,136.81Z"/><path class="cls-2" d="M309,85.1c1.53-.48,3-1,4.53-1.62.85-.32,1.8-.78,2.67-1.07a14.44,14.44,0,0,0,2.53-1.15,2.52,2.52,0,0,1,.95-.41,3.85,3.85,0,0,1,2.58-.65,6.77,6.77,0,0,0,2.68-.52,18.15,18.15,0,0,1,2.19-.87,9.54,9.54,0,0,1,1.14-.49,2.75,2.75,0,0,0,.94-.27.77.77,0,0,0,.42-.75l-.21,0,.23-.08a4.44,4.44,0,0,0,1.43-.75.32.32,0,0,0,.14-.21.23.23,0,0,0-.21-.2c-.11,0-.22-.14-.32-.12a1.32,1.32,0,0,0,.68-.14.7.7,0,0,0,.36-.53.29.29,0,0,0-.07-.2.46.46,0,0,0-.35-.07c-.36,0-.73,0-1.09,0a.25.25,0,0,0,.23-.33.49.49,0,0,0-.38-.26,1.4,1.4,0,0,0-.5,0l-2,.39c-.55.11-1.08.06-1.63.17l-1.54.33a1.59,1.59,0,0,1-.38,0c.54-.48,1.11-.93,1.69-1.36a.8.8,0,0,0,.14-1.15,2.25,2.25,0,0,0-1.34.76,4.18,4.18,0,0,1-1.35.85,2.54,2.54,0,0,0-.38.16c-.41.22-.47.67-.79,1-.56.57-.85,1.43-1.57,1.83a8.91,8.91,0,0,1-1.86.84c-.44.12-.87.25-1.29.41l-.74.3a6.17,6.17,0,0,1-2.15.7,3.88,3.88,0,0,0-1.2.28c-.66.21-1.4.28-2.05.5-1,.32-2,.34-3.08.58a3.33,3.33,0,0,0-.45.13v4.24C308.08,85.38,308.54,85.25,309,85.1Z"/><path class="cls-2" d="M284.4,133.79c0-1.08,0-2.23-.06-3.31a11.8,11.8,0,0,0-.16-1.47.83.83,0,0,1-.44-.15l-.14.19a1.1,1.1,0,0,1-.75-.38,1.83,1.83,0,0,1-.37-.72c-.21.11-.45-.06-.6-.22a14.38,14.38,0,0,1-1-1.2l-.24-.3a4.74,4.74,0,0,1-.37-.51,5.85,5.85,0,0,1-.91-3c0-1.39,0-2.85.07-4.24a9.86,9.86,0,0,0-.37-1.92,5.7,5.7,0,0,1,0-.82,14.43,14.43,0,0,0,0-3.22,19.77,19.77,0,0,1-.17-3.77c0-1.25-.19-2.49-.34-3.73-.09-.66-.13-1.39-.19-2.06a7.49,7.49,0,0,0-.65-2.08,8.41,8.41,0,0,1-.43-1.85,14.79,14.79,0,0,0-1.6-4.12,2.11,2.11,0,0,0-.3.16l-.12-.29a6.44,6.44,0,0,1-.49-2.25c0-.61,0-1.22,0-1.84a10.07,10.07,0,0,1-.26-2.24,5.15,5.15,0,0,1,.33-2.29,9.52,9.52,0,0,0,.78-1.17c.08-.18.15-.39.33-.48a1.83,1.83,0,0,1,.33-.11c.11,0,.22-.12.21-.22A12,12,0,0,1,280.91,83a2.24,2.24,0,0,1,1.34.14l.29-.27a8,8,0,0,0,2.08-3.26,7.1,7.1,0,0,0,.35-1.87c0-.45.26-.7.63-.66v0a.62.62,0,0,0-.22-.43.74.74,0,0,1-.12-.13.33.33,0,0,1,0-.17,1.57,1.57,0,0,0,0-.57,4.34,4.34,0,0,1-.13-.79,1.49,1.49,0,0,1,.81-1,.92.92,0,0,1,.32-.14h.11a.44.44,0,0,0-.23,0,1.23,1.23,0,0,0-1,.45A2.45,2.45,0,0,0,285,75c-.08.34-.33.68-.19,1a1.16,1.16,0,0,0,.14.24,1.16,1.16,0,0,1,.05.74c0,.28-.07.56-.11.84a.39.39,0,0,1-.06.18.13.13,0,0,1-.19,0c.17-.52-.24-1.06-.23-1.61,0-.2.06-.4.08-.61a5.44,5.44,0,0,0,0-.57,2.69,2.69,0,0,1,.41-1.31,2.83,2.83,0,0,1,.52-1.5,2,2,0,0,1,.39-.52,1.94,1.94,0,0,0-.48.42,10.92,10.92,0,0,0,.73-1.05l1.33-.57-.36,0a4.21,4.21,0,0,1,1.72-.36l-.36-.07a8.46,8.46,0,0,1,1.32.22.6.6,0,0,0-.31-.48l.53.41.06-.69.32.66a2.49,2.49,0,0,1,.46-1l-.13.89a2.8,2.8,0,0,1,.72-.89,1.9,1.9,0,0,0-.36.79,3.77,3.77,0,0,1,2.23-.14c.15,0,.33.14.26.26s-.27.11-.28.23a3.83,3.83,0,0,1,1.66.47l-.21.19c.32.16.64.31,1,.44a2.56,2.56,0,0,0,1,.88l-.39,0a1.87,1.87,0,0,1,1,.87l-.67-.38a3.37,3.37,0,0,1,.65,3.11s0,0,.05,0-.05.07-.06,0a.13.13,0,0,1,0-.06l-.06,0a.2.2,0,0,0,0,.11,2.37,2.37,0,0,1-1.73,2.25.77.77,0,0,1-.14.39,2,2,0,0,1-.72.46c-.44.24-.56.72-.84,1.1a7.16,7.16,0,0,1-.75.9,6.12,6.12,0,0,1-.48.41c-.6.47-1.34.82-1.93,1.3a1.81,1.81,0,0,1-.44.3,1.19,1.19,0,0,1-1,0l-.07,0c-.05.12-.09.25-.15.37a2.67,2.67,0,0,0-.09.26,1.51,1.51,0,0,0,0,.3,5.43,5.43,0,0,0,.09.69.36.36,0,0,1,.23,0l.71.21.21,0a.7.7,0,0,1,.66-.46c.13,0,.27,0,.37,0s.11-.2.22-.22a.63.63,0,0,1,.19,0c.15,0,.22-.17.35-.24a.74.74,0,0,1,.52.07,2.54,2.54,0,0,0,1.31.13,11.61,11.61,0,0,1,2.42-.23.29.29,0,0,1,.12-.25.45.45,0,0,0,.5.19A2.77,2.77,0,0,0,297,84a1,1,0,0,1,.38,0,6.47,6.47,0,0,0,1.76.09c.71,0,1.28-.65,2-.8a.22.22,0,0,1,0,.14,2.67,2.67,0,0,1,1.09-.37,8.81,8.81,0,0,0,1.73-.45,17.52,17.52,0,0,0,2.16-.69c.5-.22,1-.48,1.49-.66V.25H181.18V155.07h10.51A62.07,62.07,0,0,1,188,149.6c-7.27-11.69-6.47-22.89-5.51-36.39,1-13.66,2-27.35,13.07-37.67,2.66-2.46,10.07-9.34,20.64-9.57,13.19-.3,22.12,9.94,29.58,18.51,4.89,5.61,6.26,9.24,6.19,12.77-.08,4.26-2.28,9.76-6.19,10.85-1.83.51-2.54-.36-9.63-1.91-4-.88-6-1.32-7.57-1.28-6.64.16-11.54,6-12.38,7-6.8,8.41-6.06,23.25,1.38,26.81,3.16,1.52,8.1,1.26,11-1.27,5.91-5.15-1.17-15.7,3.44-19.15,4.11-3.08,15.8.77,20.64,8.29,7.26,11.3-4,26.12-5.5,28.09l-.29.37H285l-.18-6C284.72,144,284.44,138.81,284.4,133.79Z"/><path class="cls-2" d="M306.05,86.1c-.42.05-.86,0-1.28.07-1.95.16-3.54,1.39-5.33,2.08a1.74,1.74,0,0,1-.22,0,2.86,2.86,0,0,0,0,1.3c.07.23.16.5,0,.7s-.47.22-.74.25a3.63,3.63,0,0,0-2.69,1.66,5.74,5.74,0,0,0-.56,1.44c-.69,2.35.3,4.94.94,7.31.09.36.2.71.26,1.07.1.52,0,.68.11,1a5.82,5.82,0,0,0,.42.75c.12.21.22.38.28.5,0,.33-.06.57-.08.75l.3,0a.85.85,0,0,0-.19.19l.29.11a4.16,4.16,0,0,1-.64,4.05c-.1.12-.19.32,0,.4l.11,0a7.41,7.41,0,0,1,2.85.52.86.86,0,0,1,.26.24c1.57,0,2.93,1.41,4.31,2.16l1.08.58,1.82,1,.27.13V85.51l-.38.11A7.59,7.59,0,0,1,306.05,86.1Zm-6,2.56a1.5,1.5,0,0,0-.08.47,1.75,1.75,0,0,1-.48,1,5,5,0,0,1-.18-1.6c.1-.31.78-.42,1.1-.54a1.25,1.25,0,0,1,.39-.11C300.72,88.19,300.25,88.33,300.09,88.66Z"/><path class="cls-2" d="M277.85,95.47a5.42,5.42,0,0,0,2.31.29c-.69-.19-1.4-.31-2.08-.52l-.71-.24A1.66,1.66,0,0,0,277.85,95.47Z"/><path class="cls-2" d="M281.67,96.94a1.94,1.94,0,0,1,0-.24.66.66,0,0,0-.1-.37.88.88,0,0,0-.25-.18h-.05a1.34,1.34,0,0,1,.18.28Z"/><path class="cls-2" d="M295.46,78.32a.53.53,0,0,0,0-.12.24.24,0,0,0,0,.08A.06.06,0,0,1,295.46,78.32Z"/><path class="cls-2" d="M275.58,94.91a1.93,1.93,0,0,0,.62-.11A2.07,2.07,0,0,0,275.58,94.91Z"/><path class="cls-2" d="M297.19,105.2s0-.08,0-.12l-.26,0Z"/><path class="cls-2" d="M287.56,75.26l.06-.1a.86.86,0,0,1-.37-.29,1.75,1.75,0,0,1-.25.4c-.49.66-.13,1.48-.93,2h0l.1.07a.67.67,0,0,1,.06-.12C286.71,76.59,287.15,75.93,287.56,75.26Z"/><path class="cls-2" d="M297.18,105.5s0-.07.06-.16a.86.86,0,0,1,.07-.1l-.12,0A.93.93,0,0,0,297.18,105.5Z"/><path class="cls-2" d="M297.46,124.15a26.52,26.52,0,0,0-2.15,3.9q.17-.3.36-.6Z"/><path class="cls-2" d="M298.4,122.94l-.33.73a1.24,1.24,0,0,1,.05-.47l0,0-.36.52c-.24,1.36-1.27,2.49-2.07,3.7l-.58,1.06c0,.07-.06.13-.08.2-.73,1.74-2.06,3.28-2.74,5a13.39,13.39,0,0,0-.66,4.07,21.76,21.76,0,0,1-.57,3,4.87,4.87,0,0,0-.14,1.74,5.81,5.81,0,0,0,.24.91,9.26,9.26,0,0,1,.28,4,7.68,7.68,0,0,0,.25,3.37c.12.41.3.81.44,1.22a9.27,9.27,0,0,1,.47,3h15V125a33.06,33.06,0,0,0-8.57-2.15A1.19,1.19,0,0,0,298.4,122.94Z"/><path class="cls-2" d="M289,81.37c-.2-.18-.47-.3-.67-.48a1.78,1.78,0,0,1-.47-1.43,1.6,1.6,0,0,0,0-.44.87.87,0,0,0-.16-.3,4.93,4.93,0,0,0-1.44-1.36,5.84,5.84,0,0,0-.36,1.12,4.32,4.32,0,0,0-.06,1.14,15.44,15.44,0,0,0,1.74,2.32,6.46,6.46,0,0,0,1.61,1.32,2.65,2.65,0,0,0,.21-.78A1.31,1.31,0,0,0,289,81.37Z"/><path class="cls-2" d="M287.89,75.17a.6.6,0,0,0,.23-.16,5.47,5.47,0,0,0,.66-.7.28.28,0,0,0,0,.22.92.92,0,0,0,.26-.26c0,.11.24.06.32,0s.2-.21.33-.16.09.07.15.07a.18.18,0,0,0,.13-.09,1.49,1.49,0,0,1,.86-.55.76.76,0,0,1-.07.49c.41-.19.55-.77,1-.81a.88.88,0,0,1,.58.21,5.08,5.08,0,0,1,.72.58.32.32,0,0,1,.14-.29,9.59,9.59,0,0,1,.76,1.36.42.42,0,0,1,.18-.35l.18.88a3.32,3.32,0,0,0,.54,1.1l0-.3a1.62,1.62,0,0,0,.22,1.09,2.1,2.1,0,0,1,.37.73,7.62,7.62,0,0,0,.36-1.52,4.85,4.85,0,0,0-.47-1.56,5.8,5.8,0,0,0-.6-1.05,4.23,4.23,0,0,0-2.52-1.52,4.51,4.51,0,0,0-3,.45,2,2,0,0,0-.48.34,2.2,2.2,0,0,0-.4.56c-.24.41-.51.85-.76,1.26A.41.41,0,0,0,287.89,75.17Z"/><path class="cls-2" d="M295.44,78.45h0s0-.08,0-.12A.3.3,0,0,1,295.44,78.45Z"/><path class="cls-2" d="M286,77.3l0,0a1.09,1.09,0,0,0-.47-.16.27.27,0,0,0,.06.21C285.75,77.42,285.93,77.37,286,77.3Z"/><path class="cls-2" d="M287.12,74.69l.13.18a.53.53,0,0,0,0-.29.94.94,0,0,0-.88-.69.33.33,0,0,1,.13.13C286.68,74.24,287,74.46,287.12,74.69Z"/><path class="cls-2" d="M297.27,110.46c-.28-.06-.56-.13-.85-.17a3.92,3.92,0,0,0-3.35,1c-1.65-.84-3.34-1.62-5.07-2.32a2.74,2.74,0,0,0-.92-.25,2.34,2.34,0,0,0-1.64.81,11.39,11.39,0,0,0-2.76,5.4,7.35,7.35,0,0,0,.24,1.39l.45,1.63c0,.14.08.29.13.43l.15.32a4.06,4.06,0,0,0,1.15.12,2.5,2.5,0,0,1,1.5-.24c1.72,0,3.33-.91,5.05-.84.49,0,1,.11,1.47.14a8.78,8.78,0,0,0,4.11-1.11l1-2.5a2.09,2.09,0,0,1,.79-1.14c.27-.16.65-.24.8-.5s0-.58-.06-.87,0-.68.28-.76a1.28,1.28,0,0,0,.35-.08.26.26,0,0,0,.08-.33s0,0,0,0h-.21A8.79,8.79,0,0,1,297.27,110.46Z"/><path class="cls-2" d="M298.92,84.88a11.69,11.69,0,0,0-2.53,2c0,.1.12.14.08.24s-.05.06-.08.09a.36.36,0,0,0-.09.39.66.66,0,0,0,.39.34,3.82,3.82,0,0,0,2.53.33,5.47,5.47,0,0,1,.55-1.47l-.14.21a1.24,1.24,0,0,1,.25-.43,1.87,1.87,0,0,0,.21-.85,2.48,2.48,0,0,1,.18-.66l.21-.6a1.51,1.51,0,0,1,.28-.55c.09-.1.21-.18.3-.29a.43.43,0,0,0,.09-.22,6.41,6.41,0,0,0-.62.38Z"/><path class="cls-2" d="M281.92,84.87c.16.12.38.17.56.28a1.58,1.58,0,0,1,.45.51c.46.69.95,1.37,1.48,2a3.22,3.22,0,0,0,1.28,1.06,3.71,3.71,0,0,0,.88.17,5.15,5.15,0,0,0,1,0,4,4,0,0,0,1.12-.35,4.4,4.4,0,0,0,1.63-1.17,1.84,1.84,0,0,0,.35-1.8.88.88,0,0,0-.36-.45,1,1,0,0,0-.25-.08s0,0,0,0l-.2-.06a7.06,7.06,0,0,1-.92,0c0-.06,0-.12,0-.19s-.05,0-.06,0,0,.18.1.25a2,2,0,0,1,.62,1.62,3.84,3.84,0,0,1-1.54-.26c-.5-.19-1-.38-1.48-.59a7.84,7.84,0,0,1-1.84-1c-.32-.24-.61-.53-.95-.75a10.29,10.29,0,0,1-1.37-.93,1.74,1.74,0,0,0-.18-.11,2.36,2.36,0,0,0-.51.63A.83.83,0,0,0,281.92,84.87Z"/><path class="cls-2" d="M299.77,86.83l.24-.36a.86.86,0,0,0-.13.14l0,0Z"/><path class="cls-2" d="M282,117.83a13.81,13.81,0,0,0,.75,5.85,44.4,44.4,0,0,1,1.47,5.33h.13a7.82,7.82,0,0,0,.11-2.77,6.57,6.57,0,0,1-.16-1.92c0-.28.07-.6.11-.88a1.45,1.45,0,0,0,0-.36,4.92,4.92,0,0,0,1.39,2.38.5.5,0,0,0,.27.18.38.38,0,0,0,.38-.2.54.54,0,0,0,.06-.41,1.31,1.31,0,0,0-.23-.65c-.39-.61-.27-1.51-.87-2.81a24.19,24.19,0,0,0-1.46-2.39c0-.07-.14-.24-.26-.48a3.69,3.69,0,0,1-1.4-.62A2.43,2.43,0,0,1,282,117.83Z"/><path class="cls-2" d="M281.81,99.55c-.95,3.89-.17,7.87-.26,11.86,0,1.54-.92,3-.65,4.58a3.36,3.36,0,0,0,1.06,1.84,9.18,9.18,0,0,1,.2-1c.18-.62.34-1.25.52-1.87-.13-1.42.06-2.89,0-4.31a53.59,53.59,0,0,1,.1-7.28c.23-1.9-.62-3.79-.91-5.68a3,3,0,0,0-.24-.73A7.68,7.68,0,0,1,281.81,99.55Z"/><path class="cls-2" d="M281.22,96.09a1,1,0,0,0-.54-.26,3,3,0,0,0-.52-.07,5.86,5.86,0,0,1,1.09.38Z"/><polygon class="cls-2" points="275.57 94.91 275.57 94.91 275.58 94.91 275.57 94.91"/><path class="cls-2" d="M277.37,95c-.21-.28-.35-.53-.58-.5s-.16.1-.37.22a1.43,1.43,0,0,1-.22.08,2.58,2.58,0,0,1,.48,0A5.35,5.35,0,0,1,277.37,95Z"/><path class="cls-2" d="M283.66,128.42a10.84,10.84,0,0,0-.41-1.86,3.18,3.18,0,0,1-.18-.69c0-.13,0-.26,0-.39a2.1,2.1,0,0,0-.45-.81Z"/><path class="cls-2" d="M280.94,124.11l1.38,3.56-.51-1.67A5.17,5.17,0,0,0,280.94,124.11Z"/><path class="cls-2" d="M280.74,126.3l-.62-2.33A12.72,12.72,0,0,0,280.74,126.3Z"/><path class="cls-2" d="M297.08,121.62a8.26,8.26,0,0,0,1.59-6.48Z"/><path class="cls-2" d="M298.4,122.94l.45-1a3.86,3.86,0,0,0-.73,1.24,1,1,0,0,1,.25-.26Z"/><path class="cls-2" d="M301,117.8c.46-1.17.93-2.34,1.39-3.52L298.85,122l.13-.17A16.76,16.76,0,0,0,301,117.8Z"/><path class="cls-2" d="M306.6,116.62l-6.21,5.51A66.73,66.73,0,0,0,306.6,116.62Z"/><path class="cls-2" d="M305.06,115.35l-4.48,4.8A15,15,0,0,0,305.06,115.35Z"/><path class="cls-2" d="M307.62,121v0l-4.47,1.7A17.75,17.75,0,0,0,307.62,121Z"/><path class="cls-2" d="M297.78,123.57l-.32.58c.09-.13.19-.26.28-.4S297.77,123.63,297.78,123.57Z"/><path class="cls-2" d="M295,128.72l.11-.21.22-.46A4.62,4.62,0,0,0,295,128.72Z"/><path class="cls-2" d="M58.2,137.48c-15.15.2-21.75,5.52-25.46,2.11-1.05-1-3.11-3.79,1.38-19.62C40.7,96.8,47.73,93.63,47.19,82.13c-.43-9.22-5.62-21.62-15.82-24.53C23,55.22,13.25,59.79,8.67,66.71,5.07,72.15,6.38,76.44,8,97.54c2.3,30.44.75,37-.69,41.35-3.61,10.9-7.94,12-6.88,16.81,3.15,14.42,45.87,25.28,66,7.71,6.71-5.85,12.7-16.39,9.63-21.72C73.55,137.29,65.43,137.39,58.2,137.48Z"/><path class="cls-2" d="M134.54,75.89c-2.7,3.36-4.42,10.52-4.65,16.21,0,0,0,.22,0,.52-.46,16.13,11.13,40.16,3.3,47.11-2.52,2.23-6.63,2-8.94,1.28-8.89-2.81-9.58-19.2-9.63-21.07-.21-6.8,1.69-13.26,5.5-26.18,2.7-9.16,4-11.76,2.75-16-1.52-5-6.57-11.73-14.45-12.13S94.6,71.52,92.58,76.53c-1.88,4.68-.38,8.25.69,14,.45,2.44.49,3.49-.69,27.45-1.38,28.12-1.71,30.62.69,35.12,5.12,9.6,14.07,14.13,16.51,15.32,12.39,6.06,30.08,6.72,40.59-1.28,9.18-7,5.24-14.8,11-50.43,4.52-27.93,9.08-36.35,2.75-42.14C156.81,67.92,139.9,69.23,134.54,75.89Z"/><path class="cls-2" d="M215.47,169.39c17.36,1.75,29.14-11.59,31.36-14.32H191.69C196.11,160.82,203.76,168.21,215.47,169.39Z"/><path class="cls-2" d="M432.63,66.51c-6.48-3-16.67-2.68-21.31,2-6.37,6.44,2.78,16-3.45,31.17-1.45,3.5-4,9.61-8.07,10-7,.75-15.28-15.24-22.46-33.18-8.3-3.61-15.56-4.28-18.43-1.51-2.69,2.61-.8,7.58.58,11.06,5.23,13.25,15.58,17,27.07,33.69,3.08,4.48,4.26,7,4,10-.42,5.38-5.1,9.34-12.67,15.59-9.43,7.77-12.2,7.59-13.83,11.56-2.64,6.44.89,16,8.07,18.6,7.7,2.79,16.52-3.58,21.31-7,11.68-8.44,13.6-16.7,21.89-31.17,16.1-28.13,27.4-29.34,28.22-45.75C443.72,88.76,444.56,72,432.63,66.51Z"/></g></g></svg>