<svg xmlns="http://www.w3.org/2000/svg" viewBox="0 0 195.93 593.77"><defs><style>.cls-1{fill:#fff;}.cls-1,.cls-2,.cls-3,.cls-5{stroke:#231f20;stroke-miterlimit:10;}.cls-2{fill:#231f20;}.cls-3{fill:#362063;}.cls-4,.cls-5{fill:none;}</style></defs><g id="Layer_2" data-name="Layer 2"><g id="Layer_1-2" data-name="Layer 1"><path class="cls-1" d="M132.09,569c-.89,2.25-2.61,5-.85,6.7.9.85,2.28.83,3.52,1,7.27.7,12,7.7,18.08,11.76,6.34,4.24,14.34,5.27,21.95,4.77,3.31-.22,6.74-.76,9.47-2.66s4.5-5.49,3.39-8.62c-.87-2.42-3.19-4-5.51-5.09-5-2.33-10.49-3.16-15.58-5.18s-10.06-5.74-11.22-11.09c-1.53-7.11,4.12-14.41,2.32-21.46a6.27,6.27,0,0,0-2.69-4c-5.75-3.33-15.94,7.48-19.58,11.47C129.33,553.17,135,561.58,132.09,569Z"/><path class="cls-1" d="M189.86,288.29c-.25,14.14,3.92,17.92,2.29,26.63-.47,2.49-1.24,6.57-4.52,8.68-2,1.29-4.52,1.49-6.91,1.59q-6,.26-12,0c-1.08,0-2.41-.27-2.72-1.31s.8-2,1.7-2.77a12.57,12.57,0,0,0,4.17-12.57,2.22,2.22,0,0,0-2.41,1.4,8.7,8.7,0,0,0-.5,3,16.15,16.15,0,0,1-3.61,8.85c-.68.83-1.7,1.66-2.72,1.32a2.78,2.78,0,0,1-1.48-2.12c-1.89-7.31.85-14.95,3.79-21.91q2.78-6.54,5.84-12.95c.67-1.41,1.19-1.61,2.33-2.68,1.75-1.64,2.17-4.21,2.44-6.59a143.73,143.73,0,0,0,.61-24.89c-.86-13.73-1-27.62-4.82-40.82-.93-3.2-2-6.36-2.78-9.6a111.75,111.75,0,0,1-2.16-14.34c-1.16-10.89-2.32-21.77-3.12-32.69-.14-1.88,0-4.25,1.75-5,1.07-.46,2.33-.05,3.47-.31,1.39-.33,2.68-1.65,4-1.18a3.42,3.42,0,0,1,1.64,1.75c3.29,5.94,7.18,8.35,11.66,21a93.1,93.1,0,0,1,2.7,9.18c1.2,4.82,1.75,8.31,2.29,11.62,2.43,14.77,2.74,13.19,3.52,19.56.56,4.64.68,10.08.92,20.95.18,8.69.27,13.14-.16,17.88-.32,3.55-1,7.51-2.44,15.44-1.23,6.88-2.41,12.42-2.75,20.79C189.9,286.91,189.87,287.48,189.86,288.29Z"/><path class="cls-1" d="M32.1,176.1c-.77,6.86-1.54,13.75-3.34,20.42-1.32,4.85-3.17,9.54-4.69,14.34-1.68,5.3-2.94,10.72-4.21,16.13Q14.4,250.35,8.93,273.7c-2.32,9.92-3.16,20.53-6.82,30a20.66,20.66,0,0,0-1.57,5.35,14.27,14.27,0,0,0,.21,3.63,29.09,29.09,0,0,0,3.77,10.2c4.24,7,14.79,7.25,23,7.12a7.74,7.74,0,0,0-8.25-4.36l11.25-.1c-2.91-3.38-8.17-2.7-12.57-3.35a3.73,3.73,0,0,1-2.4-1.07,4.05,4.05,0,0,1-.68-2.08L13.2,306.82a35.15,35.15,0,0,0,3.34,8.56c1.41,2.57,3.62,5.23,6.56,5.21a2.5,2.5,0,0,0,1.61-.51c1.06-.92.54-2.63.08-4a21.48,21.48,0,0,1-.68-11.73c.61-2.75,1.77-5.38,2-8.18.41-5-2.21-9.75-4.74-14.11-2.71-4.68-.35-11.47,2.09-16.3s6-8.95,9-13.5c3.32-5.16,5.75-10.84,8.17-16.48,5.5-12.86,11.13-26.56,9-40.39,2.17-4.16,4.37-8.41,6.55-12.57,2.42-4.64,4.94-10.13,3.94-15.26-.83-4.25-4.5-7.51-8.57-9s-8.5-1.52-12.83-1.4C36.52,163.81,32.87,169.18,32.1,176.1Z"/><path class="cls-1" d="M88.36,74.81c-.36,3.07-.26,6.19-.6,9.26a16.18,16.18,0,0,1-3.12,8.61,23.07,23.07,0,0,1-2.55,2.49l-4.82,4.2a16.48,16.48,0,0,0-3,3.07c-2.32,3.48-1.63,8.09-.83,12.2.82,4.27,1.9,9,5.42,11.5A17,17,0,0,0,84,128.36q3.65,1.14,7.3,2.2a16.28,16.28,0,0,0,5.1.89c3.92-.15,7.13-3,10.21-5.39a75.36,75.36,0,0,1,9.39-6.34,39.34,39.34,0,0,0,6.74-4.3c4.75-4.17,6.51-10.69,9.49-16.27a2.48,2.48,0,0,0,.43-1.49c-.17-1-1.46-1.33-2.48-1.56a12.73,12.73,0,0,1-8.94-8.48,17.65,17.65,0,0,1,.91-12.57c.67-1.53-1.61-2.84-3.19-3.4a12.19,12.19,0,0,0-5-.23,53.64,53.64,0,0,1-14.58-.92,19.28,19.28,0,0,0-4-.57C92.06,70,88.75,71.57,88.36,74.81Z"/><path class="cls-1" d="M137.29,44.68c1.18.62,1,2.33.63,3.6l-2.8,9.89a6.28,6.28,0,0,1-.61,1.61c-.79,1.3-2.35,1.87-3.55,2.8-.87.67-1.57,1.53-2.44,2.19a3.38,3.38,0,0,1-3.06.75.75.75,0,0,1-.36-.22.86.86,0,0,1-.11-.5,16.3,16.3,0,0,1,1.74-7.13,16,16,0,0,0,2-5.57c.13-1.46-.26-3.14.38-4.52C130.13,45.35,135.18,43.57,137.29,44.68Z"/><path class="cls-2" d="M126.17,49.11c1.81-.08,2.89-2,4.37-3.07s3.68-1.31,5.35-2.31c2.52-1.52,3.56-4.6,4.41-7.42.4-1.3.66-2.74,1.07-4a11.57,11.57,0,0,0-.4-8c-.75-1.76-.67-3.87-1.82-5.39a11.45,11.45,0,0,1-1.28-1.76c-.27-.53-.39-1.12-.62-1.67a4.91,4.91,0,0,0-3.46-2.86,20.34,20.34,0,0,0-3.24-2.89c-1.14-1-1.92-2.37-3-3.49-3.11-3.32-8.06-4-12.59-4.44-2.76-.28-5.53-.87-8.29-1.13A15.3,15.3,0,0,0,100.1,1c-.88.31-1.69.78-2.55,1.14a21.5,21.5,0,0,1-3.33,1L86.32,5c-2.84.67-1.29,2.76-5.39,7.45-2.11,2.4-3.48,3.24-3.38,4.88s1.44,2.41,1.09,4.12c-.22,1-.75,1-1,2-.21.81-.11,1.85,1.76,4.89a41.72,41.72,0,0,0,3.24,4.55A1.21,1.21,0,0,0,84,32.05,38.59,38.59,0,0,1,93,30.59a5.86,5.86,0,0,1,2.09.12c.95.3,1.69,1.05,2.62,1.41a3.59,3.59,0,0,0,3.83-.84,29.07,29.07,0,0,1,7,1.33,10.24,10.24,0,0,1,5.61,4.47c.46.83.75,1.74,1.24,2.55a3.35,3.35,0,0,0,2.14,1.73c3.17.57,2.51,3.31,5.36,5.67A15.78,15.78,0,0,0,126.17,49.11Z"/><path class="cls-1" d="M85.37,27.68l3.14-5.33c1.55-2.61,3.33-5.43,6.21-6.39A12.05,12.05,0,0,1,98,15.47a46.65,46.65,0,0,1,11.92.64,21.56,21.56,0,0,1,10.58,5.26c1.6,1.54,3,3.85,2.11,5.91a5.4,5.4,0,0,0-.52,1.33c-.1.9.61,1.66,1.23,2.32,9.65,10.34,4,25.37-.06,36.89-1.77,5.07-6.64,8.59-11.82,10s-11,2.18-16.07.31A15.72,15.72,0,0,1,88.47,73a27.64,27.64,0,0,1-2.24-3.59c-1.44-2.63-3.12-5.43-3.68-8.38a56.43,56.43,0,0,1,4.07-33.78c-.46,0-.93.92-1.39.92l0,.39A2.14,2.14,0,0,1,85.37,27.68Z"/><path class="cls-3" d="M43.18,328.64c-.44,7.2-2.26,14.46-.91,21.55.4,2.14,1.09,4.2,1.53,6.33a57.28,57.28,0,0,1,.82,12.07q-.07,16.44-.45,32.88c-1,44.28-2.88,88,.59,132.13a22.08,22.08,0,0,0,1.33,6.95C48,545,52.38,547.63,56.53,550a3.25,3.25,0,0,0,1.53.57,2.93,2.93,0,0,0,1.87-.84c2.71-2.24,4.25-5.59,6.7-8.1s6.78-4,9.39-1.65c3.4-4.54,4.68-10.37,4.75-16S79.82,512.66,79,507c-1.89-13.69-2.27-27.75.89-41.21,1.28-5.48,3.15-10.83,4.28-16.35a118.37,118.37,0,0,0,1.89-18.8q1.28-29.71.5-59.48c-.23-8.68,7.38-15.06,8.87-23.62.53-3.06.36-6.29,1.55-9.17s4.49-5.28,7.34-4c.26,9.13.56,18.44,3.7,27,2.88,7.87,8.07,14.82,10.33,22.89,2,6.94,1.62,14.32,3,21.41,1.62,8.59,5.66,16.73,6,25.47.39,11.23,4.18,22.9,3.38,34.11-.45,6.26-1.46,12.54-.81,18.79.57,5.42,2.36,10.64,3.25,16a95.84,95.84,0,0,1,.81,16.25q-.1,16.88-.22,33.75c10.41-3.9,21.87,1,32.9-.35a7.11,7.11,0,0,0,3-.89,5.66,5.66,0,0,0,2.19-5.28,23,23,0,0,0-1.66-5.76c-2.76-7.68-3.16-16-3.53-24.13-.59-12.71-1.17-25.42-1.45-38.14-.68-30.69.39-61.47-2.21-92.07-.64-7.63-5.7-14.54-5.54-22.2.1-4.55,1.85-8.87,3.11-13.24a62.41,62.41,0,0,0,2.33-20.52c-.39-7.07-3.91-13.19-2.78-20.18.54-3.28,1.54-6.51,1.6-9.83s-.87-6.74-1.1-10.13c-.25-4,.46-7.94.08-11.89-.75-8-5.79-14.81-10.64-21.2a13.9,13.9,0,0,0-3.67-3.74A13.42,13.42,0,0,0,141,249a151.34,151.34,0,0,0-28.13-1.52c-7.35.42-16.63-1.65-23.41,1.81-4,2.05-6.68,5.93-10,9a30.85,30.85,0,0,1-19.79,8.34c-2.42.1-5.38.21-6.47,2.36a17.26,17.26,0,0,0-.73,2.67c-.9,2.75-4.15,3.68-6.64,2.78-.72,3.36-2.6,5.58-3.87,8.62-1.76,4.19-1.28,9.53-1,14C41.56,307.6,43.84,318.05,43.18,328.64Z"/><path class="cls-2" d="M81.31,95.37c-4.58,1.33-6.12,7.15-5.63,11.89a10.08,10.08,0,0,0,1.52,4.87c2.15,3.05,6.42,3.51,10.15,3.67,6.51.3,13.11.56,19.46-.91s12.51-4.92,15.84-10.52c2.12-3.57,3.74-8.43,7.85-9a10.09,10.09,0,0,1,4.57.81l15.37,5.24c6.55,2.23,13.38,4.64,18.1,9.71,2.87,3.09,4.74,6.95,6.5,10.79q5.55,12.08,10.13,24.57c2.49,6.78,6.15,13.12,9.38,19.59a3.5,3.5,0,0,1,.55,2.45,3.54,3.54,0,0,1-1.63,1.79l-6.16,4.21,3.06-4.28a60.23,60.23,0,0,0-13.72,5.45c-3.34,1.83-6.81,4-10.6,3.73-3.34-.28-6.16-2.47-8.77-4.57,2,3.22,1.81,7.35.87,11s-2.6,7.14-3.38,10.84a29.71,29.71,0,0,0,.38,13c1.38,5.74,3.35,11.45,2.78,17.33a2.2,2.2,0,0,1-.35,1.16c-.19.25-.48.4-.65.66a1.87,1.87,0,0,0-.2,1.05l0,4.3c4.52,4,2.43,11.87,4,17.71.83,3.05,2.7,5.85,2.83,9,.08,1.83-.62,3.87-2.28,4.65a6.32,6.32,0,0,1-3,.36c-12.06-.56-24.14-3.39-36.1-1.73-3.36.47-6.65,1.29-10,2A236.3,236.3,0,0,1,58.61,272c-2.94,1.65-5.51,3.66-8.37,5.44s-6.4,3-9.6,1.91c-.92-21.65,14.41-41.17,15-62.83a64,64,0,0,1,.36-8.43c.33-2.08,1-4.11,1.14-6.22.19-3-.71-6-1.39-8.91a58.76,58.76,0,0,1-1.24-18.32c-1.05.06-1.47,1.44-2,2.34-1,1.63-3.4,1.53-5.26,1.05-6.47-1.69-12.76-5.67-19.32-4.4-1.44.28-2.91.81-4.33.47s-2.6-2.14-1.7-3.3c-.68-19.07,10.34-36.19,16.13-54.37,1.14-3.56,4.84-5.41,8.38-6.6s7.3-1.67,10.82-2.93C65.11,104.09,73.09,96.89,81.31,95.37Z"/><path class="cls-1" d="M43.22,566.31c-1.45,3.5-3.27,7.19-2.48,10.9.66,3.12,3,5.53,5.33,7.76a9.67,9.67,0,0,0,2.63,2,9.26,9.26,0,0,0,3.89.54c4.85-.06,10.26-.66,13.4-4.35,2.17-2.55,2.78-6.12,2.59-9.47s-1.1-6.61-1.59-9.92a40.09,40.09,0,0,1-.2-10,11.79,11.79,0,0,0-.1-5.09c-.57-1.62-2.35-3-4-2.38a1.85,1.85,0,0,0-.74.49,4.31,4.31,0,0,0-.53,1.05,4.37,4.37,0,0,1-5.66,2.08c-1.46-.71-2.37-2.16-3.57-3.25-4.86-4.41-4.65,2.74-5.11,5.69A60.84,60.84,0,0,1,43.22,566.31Z"/><path class="cls-4" d="M78.64,21.45a28.84,28.84,0,0,1-.76,10.09"/><path class="cls-5" d="M79.45,29.25l-.53,3.66"/><path class="cls-5" d="M77.52,21.45a17.76,17.76,0,0,1-.72,7.49"/><path class="cls-5" d="M78,19,75.15,23.3"/><path class="cls-5" d="M79.39,16.32a12,12,0,0,1-5.92-2.86"/><path class="cls-5" d="M77.31,12.07a15.22,15.22,0,0,0,3.44,2.41"/><path class="cls-5" d="M78.3,9.23a14.54,14.54,0,0,0,3.61,6.34"/><path class="cls-5" d="M79.57,6.47a7.69,7.69,0,0,0,1.78,5.38"/><path class="cls-5" d="M77.58,18.93a21.11,21.11,0,0,1-7.64-.32"/><path class="cls-5" d="M71.29,15.66a11,11,0,0,0,7,1.61"/><path class="cls-5" d="M71.45,22.34A13.65,13.65,0,0,0,77.7,20.2"/><path class="cls-5" d="M73.43,26.32A9.54,9.54,0,0,0,76,23.11"/><path class="cls-5" d="M78.64,25.72c0,3.2-.13,6.6-1.92,9.25"/><path class="cls-5" d="M79.86,29.7v4.13"/><path class="cls-5" d="M81.38,31.38a13.45,13.45,0,0,1-1,4.76"/><path class="cls-5" d="M75.56,12.28a4.52,4.52,0,0,0,3.69,3.19"/><path class="cls-5" d="M72.13,14.17a12.44,12.44,0,0,0,5,2.13"/><path class="cls-5" d="M69.63,17.14a10.78,10.78,0,0,0,5,1"/><path class="cls-5" d="M69.62,21.42a33.74,33.74,0,0,0,6.74-.21"/><path class="cls-5" d="M80.93,10.75V6.92C81.1,8.2,80.76,9.47,80.93,10.75Z"/><path class="cls-5" d="M82.65,6.93l-.19,2.13"/><path class="cls-5" d="M137.32,41.78a14.13,14.13,0,0,1-1.12,7"/><path class="cls-5" d="M70.46,24.7A7,7,0,0,0,75,21.94"/><path class="cls-5" d="M73.64,28.76a17,17,0,0,0,3-6.18"/><path class="cls-5" d="M69.61,20a10.53,10.53,0,0,0,4.52.61"/><path class="cls-5" d="M76.5,10.52l1,1.93"/></g></g></svg>