<svg xmlns="http://www.w3.org/2000/svg" xmlns:xlink="http://www.w3.org/1999/xlink" viewBox="0 0 443.9 129.07"><defs><style>.cls-1,.cls-7{fill:none;}.cls-2{fill:#fff;}.cls-10,.cls-11,.cls-2,.cls-3,.cls-6,.cls-7,.cls-8,.cls-9{stroke:#231f20;stroke-miterlimit:10;}.cls-3{fill:#362063;}.cls-4{clip-path:url(#clip-path);}.cls-5{font-size:2px;font-family:TimesNewRomanPSMT, Times New Roman;}.cls-6{fill:#231f20;}.cls-8{fill:#394da1;}.cls-10,.cls-11,.cls-8,.cls-9{stroke-width:0.5px;}.cls-9{fill:#3a54a5;}.cls-10{fill:#2b3e98;}.cls-11{fill:#2b328d;}</style><clipPath id="clip-path" transform="translate(0 -60.86)"><rect class="cls-1" x="181.18" width="126.44" height="166.82"/></clipPath></defs><g id="Layer_2" data-name="Layer 2"><g id="Layer_1-2" data-name="Layer 1"><path class="cls-2" d="M287.45,177.26a3.87,3.87,0,0,0-.54,2.29,3.5,3.5,0,0,0,1.16,1.63,2.19,2.19,0,0,0,.57.43,2.14,2.14,0,0,0,.84.11,3.84,3.84,0,0,0,2.91-.92,2.74,2.74,0,0,0,.56-2c-.05-.7-.24-1.39-.35-2.09a8.27,8.27,0,0,1,0-2.11,2.41,2.41,0,0,0,0-1.07.74.74,0,0,0-.86-.5.36.36,0,0,0-.16.11.78.78,0,0,0-.12.22.94.94,0,0,1-1.22.43,3.35,3.35,0,0,1-.78-.68c-1-.93-1,.58-1.1,1.2A12.82,12.82,0,0,1,287.45,177.26Z" transform="translate(0 -60.86)"/><path class="cls-2" d="M340.59,154.71c.9-.35,1.13-1.44,1.48-2.32a6,6,0,0,1,5.86-3.64,1.87,1.87,0,0,0,.82-.06,1.38,1.38,0,0,0,.64-.94,9.66,9.66,0,0,0,.38-3l.09-1.11a.46.46,0,0,0-.26-.39.48.48,0,0,0-.38,0c-.87.06-1.36,1-1.92,1.6a4.27,4.27,0,0,1-2.64,1.4,24.13,24.13,0,0,0-3.31.18,13,13,0,0,0-1.85.87,2.48,2.48,0,0,1-2,.17c-.46-.21-1-.65-1.39-.37C335,147.92,338.34,155.61,340.59,154.71Z" transform="translate(0 -60.86)"/><path class="cls-3" d="M292.11,171.21a3.62,3.62,0,0,0,.8,3.12,3.75,3.75,0,0,1,.55.71.72.72,0,0,1-.07.83c-.25.24-.66.18-1,.15a4.47,4.47,0,0,0-2.2.36,5.8,5.8,0,0,1-1.16.48c-.42.09-1-.38-1.21-.75l-1.29-2.56a13.11,13.11,0,0,1-1.05-2.44,13.82,13.82,0,0,1-.4-3.57l-.2-7.24c-.14-5.4-.42-11-.46-16.41,0-1.16,0-2.41-.06-3.57a32.78,32.78,0,0,0-1.63-7.32,14.29,14.29,0,0,1-.55-7.4c.73-2.79,1.27-5.73,3.28-7.84a2.26,2.26,0,0,1,1.64-.87,2.56,2.56,0,0,1,.92.27c1.73.75,3.42,1.59,5.07,2.49a3.73,3.73,0,0,1,3.35-1.08c.29,0,.57.12.85.18a8.2,8.2,0,0,0,2.66.13c1.66-.2,3.08,1.49,4.52,2.33l1.08.62,1.82,1.07c1.83,1.06,3.92,1.83,5.73,2.92a9.51,9.51,0,0,0,3.78,1.64c.38,0,.86.08,1,.42s.89.76,1.2,1.05a45.31,45.31,0,0,0,4.07,3.22,3.43,3.43,0,0,1,.51.77,13.18,13.18,0,0,0,2.13,2.16l1.8,1.57c1.6,1.39,3,3.19,5,3.95,1.64.62,3.09,1.83,4.82,2.19a1.83,1.83,0,0,1,.79.28c.53.41.38,1.22.17,1.85l1.3,0a.24.24,0,0,1,.2.07c.06.06,0,.16,0,.24,0,.39.44.6.81.71-.32,1-.54,2.07-.9,3.06-.44,1.23-1.09,2.61-2.39,3,0-.54-.15-1.17-.65-1.41a2.91,2.91,0,0,0-.5-.16c-1.06-.31-1.54-1.48-2.39-2.17a7.57,7.57,0,0,0-1.73-.93,25.32,25.32,0,0,1-5.1-3.49,8.3,8.3,0,0,1-4.73-1.52,35.35,35.35,0,0,1-3.08-2.92,14.71,14.71,0,0,0-6.32-3.47c-1.21-.32-2.48-.49-3.66-.91-3.33-1.21-6.63-2.66-10.18-2.92a1.21,1.21,0,0,0-.68.1,1.34,1.34,0,0,0-.27.31,29.62,29.62,0,0,0-3.09,5.9c-.73,1.89-2.06,3.54-2.74,5.44a15.39,15.39,0,0,0-.66,4.38,25.1,25.1,0,0,1-.57,3.19,5.64,5.64,0,0,0-.14,1.87,6.8,6.8,0,0,0,.24,1,10.74,10.74,0,0,1,.28,4.37,8.92,8.92,0,0,0,.25,3.63c.12.44.3.87.44,1.3a17.22,17.22,0,0,1,.24,7" transform="translate(0 -60.86)"/><path class="cls-2" d="M296.39,93.38a11.8,11.8,0,0,1,2.53-2.19L300.53,90a3.55,3.55,0,0,1,1.71-.8,8.28,8.28,0,0,0,1.73-.49,16.18,16.18,0,0,0,2.16-.74,10.11,10.11,0,0,1,1.94-.85c1-.25,2.07-.28,3.08-.63.65-.23,1.39-.3,2.05-.54a3.92,3.92,0,0,1,1.2-.3,5.88,5.88,0,0,0,2.15-.75l.74-.32q.63-.25,1.29-.45a8.19,8.19,0,0,0,1.86-.9c.72-.43,1-1.36,1.57-2,.32-.34.38-.83.79-1.07.12-.07.25-.12.38-.18a4,4,0,0,0,1.35-.91,2.24,2.24,0,0,1,1.34-.82.92.92,0,0,1-.14,1.25c-.58.46-1.15.94-1.69,1.45a1.2,1.2,0,0,0,.38,0l1.54-.36c.55-.12,1.09-.06,1.63-.18l2-.43a1.4,1.4,0,0,1,.5,0,.45.45,0,0,1,.38.28.27.27,0,0,1-.23.35c.36,0,.73,0,1.09,0,.12,0,.27,0,.35.07a.34.34,0,0,1,.07.22.75.75,0,0,1-.36.57,1.24,1.24,0,0,1-.68.15c.1,0,.21.1.32.13a.23.23,0,0,1,.21.21.33.33,0,0,1-.14.23,4.39,4.39,0,0,1-1.43.81,19,19,0,0,1-2.56.81,8.46,8.46,0,0,1,2.54-.76.83.83,0,0,1-.42.81,2.59,2.59,0,0,1-.94.3,8.33,8.33,0,0,0-1.14.52,18.45,18.45,0,0,0-2.19.93,6.33,6.33,0,0,1-2.68.57,3.57,3.57,0,0,0-2.58.7,2.29,2.29,0,0,0-.95.44,14.12,14.12,0,0,1-2.53,1.24c-.87.31-1.82.8-2.67,1.15-1.5.61-3,1.23-4.53,1.75-.58.2-1.16.39-1.75.56-.41.12-.76.46-1.19.51s-.86,0-1.28.08c-1.95.17-3.54,1.49-5.33,2.24a3.42,3.42,0,0,1-2.75-.3.69.69,0,0,1-.39-.36.42.42,0,0,1,.09-.43s.07,0,.08-.09S296.42,93.49,296.39,93.38Z" transform="translate(0 -60.86)"/><path class="cls-2" d="M282.54,89.06a3.51,3.51,0,0,0-.8,1,1,1,0,0,0,.18,1.15c.16.13.38.18.56.3a2,2,0,0,1,.45.55c.46.74.95,1.47,1.48,2.17a3.29,3.29,0,0,0,1.28,1.15,3.73,3.73,0,0,0,.88.19,4.51,4.51,0,0,0,1,0,3.52,3.52,0,0,0,1.12-.37A4.5,4.5,0,0,0,290.36,94a2.1,2.1,0,0,0,.35-1.94.93.93,0,0,0-.36-.49c-.39-.24-.92,0-1.38-.12a6.15,6.15,0,0,1-.11-1,1.67,1.67,0,0,1,0-.32c0-.1.06-.19.09-.29a3.86,3.86,0,0,0,.36-1.23,1.49,1.49,0,0,0-.37-1.2c-.2-.2-.47-.32-.67-.52a2,2,0,0,1-.47-1.54,1.83,1.83,0,0,0,0-.47,1,1,0,0,0-.16-.33A5.14,5.14,0,0,0,286.09,83c-.64-.41-1.08-.15-1.12.53a8.07,8.07,0,0,1-.35,2A8.55,8.55,0,0,1,282.54,89.06Z" transform="translate(0 -60.86)"/><g class="cls-4"><text class="cls-5" transform="translate(349.36 98.89) scale(1.07 1)"> </text></g><path class="cls-2" d="M287.56,80.82c-.41.73-.85,1.44-1.31,2.14a5.43,5.43,0,0,0-.42,1.33,5.06,5.06,0,0,0-.06,1.23,16.45,16.45,0,0,0,1.74,2.5,6.22,6.22,0,0,0,1.68,1.47,1.15,1.15,0,0,0,1,0,2.24,2.24,0,0,0,.44-.32c.59-.52,1.33-.9,1.93-1.41.16-.14.33-.28.48-.43a7.94,7.94,0,0,0,.75-1c.28-.41.4-.93.84-1.18a1.94,1.94,0,0,0,.72-.5,1.22,1.22,0,0,0,.16-.6c0-.57.43-1.14.38-1.72a5.41,5.41,0,0,0-.47-1.67,5.82,5.82,0,0,0-.6-1.13,4.18,4.18,0,0,0-2.52-1.65,4.3,4.3,0,0,0-3,.48,2.51,2.51,0,0,0-.48.38,2.42,2.42,0,0,0-.4.6Z" transform="translate(0 -60.86)"/><path class="cls-6" d="M287.12,80.21c.16.29.45.63.77.52a.76.76,0,0,0,.23-.17,6.78,6.78,0,0,0,.66-.76.33.33,0,0,0,0,.24,1,1,0,0,0,.26-.28c0,.12.24.06.32,0s.2-.23.33-.18.09.08.15.08a.17.17,0,0,0,.13-.1,1.55,1.55,0,0,1,.86-.59.88.88,0,0,1-.07.53c.41-.21.55-.83,1-.88a.85.85,0,0,1,.58.23,4.78,4.78,0,0,1,.72.63.36.36,0,0,1,.14-.32A10.22,10.22,0,0,1,294,80.6a.46.46,0,0,1,.18-.38l.18,1a3.77,3.77,0,0,0,.54,1.19l0-.33a1.83,1.83,0,0,0,.22,1.17c.19.34.49.71.32,1.06a2.55,2.55,0,0,0,1.74-2.43.23.23,0,0,1,0-.12s.09,0,.11,0-.05.08-.06,0a3.83,3.83,0,0,0-.64-3.41l.67.4a1.91,1.91,0,0,0-1-.94l.39,0a2.63,2.63,0,0,1-1-.94c-.32-.14-.64-.3-1-.47l.21-.21a3.62,3.62,0,0,0-1.66-.51c0-.13.22-.13.28-.24s-.11-.26-.26-.29a3.62,3.62,0,0,0-2.23.15,2.21,2.21,0,0,1,.36-.85,3.07,3.07,0,0,0-.72,1l.13-1a2.79,2.79,0,0,0-.46,1.06l-.32-.7-.06.74-.53-.44a.65.65,0,0,1,.31.51,8.48,8.48,0,0,0-1.32-.23l.36.08a3.79,3.79,0,0,0-1.72.38l.36,0-1.33.61a12.1,12.1,0,0,1-.73,1.13,1.87,1.87,0,0,1,.48-.45,2,2,0,0,0-.39.56,3.2,3.2,0,0,0-.52,1.61,3.07,3.07,0,0,0-.41,1.41c0,.21,0,.42,0,.62s-.08.44-.08.66c0,.59.4,1.17.23,1.73a.13.13,0,0,0,.19,0,.39.39,0,0,0,.06-.19l.11-.9a1.39,1.39,0,0,0-.05-.81,1.23,1.23,0,0,1-.14-.25c-.14-.34.11-.71.19-1.08a2.65,2.65,0,0,1,.15-.69,1.21,1.21,0,0,1,1-.5.45.45,0,0,1,.23,0,.32.32,0,0,1,.13.15C286.68,79.73,287,80,287.12,80.21Z" transform="translate(0 -60.86)"/><path class="cls-2" d="M286.29,79.34a.78.78,0,0,0-.32.15,1.55,1.55,0,0,0-.81,1.07,4.88,4.88,0,0,0,.13.84,1.84,1.84,0,0,1,0,.62.41.41,0,0,0,0,.19.74.74,0,0,0,.12.13.69.69,0,0,1,.22.47.34.34,0,0,0,.06.24c.09.11.27,0,.38,0,.85-.57.47-1.47,1-2.18.17-.25.33-.43.28-.75A1,1,0,0,0,286.29,79.34Z" transform="translate(0 -60.86)"/><path class="cls-6" d="M297.6,113.24a4.78,4.78,0,0,1-.64,4.37c-.1.13-.19.34,0,.43a.35.35,0,0,0,.11,0,6.91,6.91,0,0,1,2.85.56.69.69,0,0,1,.28.28.29.29,0,0,1-.08.35c-.1.07-.23,0-.35.08-.31.09-.36.51-.28.82s.22.66.06.94-.53.36-.8.54a2.25,2.25,0,0,0-.79,1.22l-1,2.7a8.23,8.23,0,0,1-4.11,1.2c-.49,0-1-.14-1.47-.16-1.72-.06-3.33.89-5.05.91a2.36,2.36,0,0,0-1.5.27,3.92,3.92,0,0,1-2.55-.8,3.75,3.75,0,0,1-1.35-2.27c-.27-1.65.61-3.27.65-4.94.09-4.29-.69-8.58.26-12.78a11.29,11.29,0,0,0-.16-3.06.83.83,0,0,0-.1-.41.88.88,0,0,0-.25-.18,22.21,22.21,0,0,0-3.22-1,9.06,9.06,0,0,0-1.4-.44,1.76,1.76,0,0,0-1.4.26l-.12-.31a7.45,7.45,0,0,1-.49-2.42c0-.66,0-1.33,0-2a11.71,11.71,0,0,1-.26-2.42,6,6,0,0,1,.33-2.48,9.63,9.63,0,0,0,.78-1.25.94.94,0,0,1,.33-.52,3.21,3.21,0,0,1,.33-.12c.11,0,.22-.12.21-.24a11.37,11.37,0,0,1,4.55-1.23,1.85,1.85,0,0,1,1.52.28,9.82,9.82,0,0,0,1.37,1c.34.24.63.55.95.81a8.1,8.1,0,0,0,1.84,1l1.48.62a3.4,3.4,0,0,0,1.54.28,2.22,2.22,0,0,0-.62-1.74c-.07-.07-.16-.18-.1-.27s.19-.07.29,0l.91.29a.7.7,0,0,1,.67-.53c.13,0,.27,0,.37,0s.11-.22.22-.24.13,0,.19,0,.22-.18.35-.25a.65.65,0,0,1,.52.07,2.35,2.35,0,0,0,1.31.14,11,11,0,0,1,2.42-.25.3.3,0,0,1,.12-.26.43.43,0,0,0,.5.2,2.77,2.77,0,0,1,.26-.1.71.71,0,0,1,.38,0,6.47,6.47,0,0,0,1.76.09c.71,0,1.28-.7,2-.87a.39.39,0,0,1-.07.4c-.09.11-.21.2-.3.31a1.69,1.69,0,0,0-.28.59l-.21.64a3,3,0,0,0-.18.72,2.16,2.16,0,0,1-.23,1,4.54,4.54,0,0,0-.61,3.17.89.89,0,0,1,0,.75c-.15.22-.47.24-.74.27a3.61,3.61,0,0,0-2.69,1.79,6.53,6.53,0,0,0-.56,1.55c-.69,2.54.3,5.32.94,7.88.09.38.2.76.26,1.14.1.57,0,.74.11,1.14a6.35,6.35,0,0,0,.42.8l.28.54a8.7,8.7,0,0,0-.1,1.27,1.51,1.51,0,0,0,.06-.18.91.91,0,0,1,.26-.31l-.56.06" transform="translate(0 -60.86)"/><path class="cls-6" d="M300,92.9a1.43,1.43,0,0,0-.38.62" transform="translate(0 -60.86)"/><path class="cls-2" d="M275.57,102a16.49,16.49,0,0,1,1.61,4.44,9.74,9.74,0,0,0,.43,2,8.67,8.67,0,0,1,.65,2.24c.06.72.1,1.51.19,2.23.15,1.33.31,2.67.34,4A22.88,22.88,0,0,0,279,121a16.76,16.76,0,0,1,0,3.47,6.48,6.48,0,0,0,0,.88,11.49,11.49,0,0,1,.37,2.08c-.07,1.5,0,3.06-.07,4.56a6.68,6.68,0,0,0,.91,3.24,5.14,5.14,0,0,0,.37.54l.24.33a15.74,15.74,0,0,0,1,1.3c.15.17.39.34.6.23a2,2,0,0,0,.37.77,1.1,1.1,0,0,0,.75.42l.14-.21a.94.94,0,0,0,.57.18,9.1,9.1,0,0,0,.11-3,7.62,7.62,0,0,1-.16-2.07c0-.31.07-.64.11-.95a2,2,0,0,0-.12-1,5.52,5.52,0,0,0,1.51,3.15.58.58,0,0,0,.27.19.39.39,0,0,0,.38-.21.65.65,0,0,0,.06-.45,1.49,1.49,0,0,0-.23-.7c-.39-.66-.27-1.62-.87-3a25.77,25.77,0,0,0-1.46-2.58,7.82,7.82,0,0,1-.41-.87c-.05-.15-.09-.3-.13-.46l-.45-1.75c-.51-2-.18-4.11-.2-6.14a62.27,62.27,0,0,1,.1-7.85c.23-2-.62-4.08-.91-6.12a6,6,0,0,0-.48-1.35,1,1,0,0,0-.75-.64c-1-.23-2.09.11-2.83-.38-.57-.38-.69-1.1-1.06-1-.12,0-.16.12-.37.24A1.61,1.61,0,0,1,275.57,102Z" transform="translate(0 -60.86)"/><path class="cls-7" d="M282.58,134.06a2.34,2.34,0,0,1,.45.87c0,.14,0,.29,0,.43a3.8,3.8,0,0,0,.18.74,12.68,12.68,0,0,1,.41,2" transform="translate(0 -60.86)"/><path class="cls-7" d="M280.94,133.46a5.78,5.78,0,0,1,.87,2l.51,1.79" transform="translate(0 -60.86)"/><path class="cls-7" d="M280.12,133.31a14.61,14.61,0,0,0,.62,2.51" transform="translate(0 -60.86)"/><path class="cls-6" d="M300.45,94.51a1.27,1.27,0,0,1,.39-.12c-.12.36-.59.52-.75.87a1.75,1.75,0,0,0-.08.51,1.89,1.89,0,0,1-.48,1,5.63,5.63,0,0,1-.18-1.72C299.45,94.76,300.13,94.64,300.45,94.51Z" transform="translate(0 -60.86)"/><path class="cls-7" d="M298.67,123.79a9.46,9.46,0,0,1-1.59,7" transform="translate(0 -60.86)"/><path class="cls-7" d="M302.37,122.87l-1.39,3.8a18.83,18.83,0,0,1-2,4.29,3.41,3.41,0,0,0-.91,2" transform="translate(0 -60.86)"/><path class="cls-7" d="M300.39,131.32a68.27,68.27,0,0,0,6.21-5.93" transform="translate(0 -60.86)"/><path class="cls-7" d="M305.06,124a15.72,15.72,0,0,1-4.48,5.16" transform="translate(0 -60.86)"/><path class="cls-7" d="M309,129.49c-2,.71-3.75,2-5.84,2.38" transform="translate(0 -60.86)"/><path class="cls-7" d="M297.78,132.88c-.23,2.06-2.08,3.59-2.8,5.55" transform="translate(0 -60.86)"/><path class="cls-8" d="M8.67,71.61C5.07,77.47,6.38,82.1,8,104.84c2.3,32.79.75,39.88-.69,44.54C3.68,161.13-.65,162.28.41,167.5c3.15,15.54,45.87,27.24,66,8.31,6.71-6.3,12.7-17.66,9.63-23.41-2.53-4.74-10.65-4.63-17.88-4.53-15.15.21-21.75,5.94-25.46,2.27-1.05-1-3.11-4.08,1.38-21.14,6.58-25,13.61-28.38,13.07-40.78-.43-9.92-5.62-23.29-15.82-26.42C23,59.23,13.25,64.16,8.67,71.61Z" transform="translate(0 -60.86)"/><path class="cls-9" d="M93.27,97.32c.45,2.63.49,3.76-.69,29.58-1.38,30.3-1.71,33,.69,37.84a38.39,38.39,0,0,0,16.51,16.51c12.39,6.52,30.08,7.24,40.59-1.38,9.18-7.54,5.24-16,11-54.34,4.52-30.1,9.08-39.16,2.75-45.41-7.31-7.2-24.22-5.79-29.58,1.38-2.7,3.62-4.42,11.34-4.65,17.47,0,0,0,.24,0,.56-.46,17.38,11.13,43.27,3.3,50.76-2.52,2.41-6.63,2.16-8.94,1.38-8.89-3-9.58-20.69-9.63-22.7-.21-7.33,1.69-14.29,5.5-28.21,2.7-9.88,4-12.67,2.75-17.2-1.52-5.43-6.57-12.64-14.45-13.07s-13.8,6.3-15.82,11.7C90.7,87.24,92.2,91.08,93.27,97.32Z" transform="translate(0 -60.86)"/><path class="cls-10" d="M245.74,90.76c-7.46-9.23-16.39-20.27-29.58-20-10.57.25-18,7.66-20.64,10.32-11.11,11.11-12.09,25.87-13.07,40.58-1,14.55-1.76,26.62,5.51,39.21,2.87,5,11.29,19.57,27.51,21.33,18.34,2,30.45-14.17,31.65-15.82,1.54-2.13,12.76-18.1,5.5-30.27-4.84-8.11-16.53-12.26-20.64-8.94-4.61,3.71,2.47,15.09-3.44,20.63-2.9,2.73-7.84,3-11,1.38-7.44-3.84-8.18-19.83-1.38-28.89.84-1.12,5.74-7.4,12.38-7.57,1.56,0,3.57.43,7.57,1.38,7.09,1.67,7.8,2.61,9.63,2.06,3.91-1.18,6.11-7.1,6.19-11.69C252,100.72,250.63,96.8,245.74,90.76Z" transform="translate(0 -60.86)"/><path class="cls-11" d="M386.56,128.81c-11.49-18-21.84-22-27.07-36.29-1.38-3.76-3.27-9.11-.58-11.92,2.87-3,10.13-2.26,18.43,1.63,7.18,19.33,15.48,36.56,22.46,35.75,4.11-.48,6.62-7.06,8.07-10.83,6.23-16.32-2.92-26.65,3.45-33.59,4.64-5,14.83-5.41,21.31-2.17,11.93,6,11.09,24,10.95,27.09-.82,17.68-12.12,19-28.22,49.29-8.29,15.6-10.21,24.49-21.89,33.59-4.79,3.73-13.61,10.59-21.31,7.58-7.18-2.8-10.71-13.1-8.07-20,1.63-4.28,4.4-4.09,13.83-12.46,7.57-6.73,12.25-11,12.67-16.79C390.82,136.39,389.64,133.65,386.56,128.81Z" transform="translate(0 -60.86)"/></g></g></svg>