<svg xmlns="http://www.w3.org/2000/svg" viewBox="0 0 349.28 513.96"><defs><style>.cls-1{fill:#fff;}.cls-1,.cls-2,.cls-3,.cls-4{stroke:#231f20;stroke-miterlimit:10;}.cls-2{fill:#362063;}.cls-3{fill:#231f20;}.cls-4{fill:none;}</style></defs><g id="Layer_2" data-name="Layer 2"><g id="Layer_1-2" data-name="Layer 1"><path class="cls-1" d="M60.88,492.24c-1.45,3.5-3.27,7.19-2.48,10.9.67,3.12,3.05,5.53,5.33,7.76a9.48,9.48,0,0,0,2.63,2,9.26,9.26,0,0,0,3.89.54c4.85-.06,10.26-.66,13.4-4.35,2.18-2.55,2.78-6.12,2.59-9.47s-1.1-6.61-1.59-9.92a40.57,40.57,0,0,1-.2-10,11.79,11.79,0,0,0-.1-5.09c-.57-1.62-2.35-3-4-2.38a1.85,1.85,0,0,0-.74.49,4.31,4.31,0,0,0-.53,1.05,4.37,4.37,0,0,1-5.66,2.08c-1.46-.71-2.37-2.16-3.57-3.25-4.86-4.41-4.65,2.74-5.11,5.69A60.84,60.84,0,0,1,60.88,492.24Z"/><path class="cls-1" d="M306,385.1c4.14-1.7,5.22-6.87,6.82-11a27.86,27.86,0,0,1,27.06-17.32,7.92,7.92,0,0,0,3.79-.29c1.67-.76,2.43-2.68,2.93-4.45a47.24,47.24,0,0,0,1.77-14.14l.41-5.26a2.07,2.07,0,0,0-3-1.8c-4,.28-6.26,4.53-8.86,7.6a19.63,19.63,0,0,1-12.16,6.69c-5.07.7-10.37-.61-15.28.83-3,.89-5.68,2.76-8.54,4.11s-6.27,2.17-9.15.84c-2.13-1-4.49-3.09-6.43-1.76C280,352.83,295.63,389.37,306,385.1Z"/><path class="cls-2" d="M82.37,463.5a17.72,17.72,0,0,0,3.68,14.86,17.14,17.14,0,0,1,2.56,3.34,3.53,3.53,0,0,1-.33,3.94c-1.15,1.17-3.06.9-4.7.74a20.15,20.15,0,0,0-10.16,1.71,26.86,26.86,0,0,1-5.36,2.29c-1.9.41-4.7-1.83-5.56-3.57l-6-12.19A69.55,69.55,0,0,1,51.68,463c-1.54-5.49-1.69-11.26-1.84-17l-.9-34.42c-.66-25.67-1.93-52.28-2.15-78,0-5.54,0-11.45-.25-17-.45-11.89-4.41-23.31-7.54-34.79s-5.42-23.66-2.51-35.19c3.34-13.26,5.84-27.21,15.12-37.25,2-2.18,4.59-4.27,7.55-4.16a11.64,11.64,0,0,1,4.24,1.28q12,5.4,23.42,11.88c3.4-4.38,10-5.95,15.43-5.15,1.34.2,2.64.57,4,.86a36.24,36.24,0,0,0,12.24.59c7.66-.94,14.23,7.1,20.85,11.07l5,3,8.42,5c8.43,5.05,18.06,8.73,26.41,13.9,5.47,3.38,11.06,7.1,17.45,7.77,1.76.19,3.94.38,4.62,2,.77,1.86,4.07,3.62,5.53,5a222.42,222.42,0,0,0,18.77,15.3c1,.78,1.61,2.56,2.35,3.63,2.7,3.9,6.27,7.1,9.81,10.27l8.33,7.46c7.38,6.6,13.78,15.18,23,18.79,7.58,3,14.25,8.71,22.22,10.4a8.54,8.54,0,0,1,3.64,1.32c2.47,2,1.76,5.82.82,8.82l6,.19a1.24,1.24,0,0,1,.94.31c.25.32.13.77.11,1.17-.09,1.82,2,2.83,3.77,3.35-1.48,4.75-2.51,9.84-4.16,14.54-2.06,5.86-5,12.42-11,14.07-.22-2.56-.72-5.55-3-6.71a15.58,15.58,0,0,0-2.32-.72c-4.87-1.5-7.11-7.05-11-10.34-2.33-2-5.23-3.1-8-4.42-8.69-4.16-16.17-10.4-23.55-16.58a37.22,37.22,0,0,1-21.81-7.24c-5.31-3.95-9.42-9.27-14.19-13.86a67.44,67.44,0,0,0-29.15-16.5c-5.62-1.52-11.45-2.31-16.91-4.34-15.37-5.73-30.57-12.63-46.93-13.85a4.94,4.94,0,0,0-3.14.49,5.13,5.13,0,0,0-1.26,1.44,142.83,142.83,0,0,0-14.27,28.07c-3.36,8.94-9.49,16.81-12.63,25.83-2.31,6.65-2.67,13.8-3,20.84-.24,4.95-1.75,10.27-2.65,15.15a28.2,28.2,0,0,0-.67,8.91A38,38,0,0,0,77.9,383a52.11,52.11,0,0,1,1.27,20.76A44,44,0,0,0,80.33,421c.56,2.11,1.38,4.14,2,6.22,3.35,10.68,2.24,22.18,1.1,33.31"/><path class="cls-1" d="M102.13,93.57c3.18-4.15,7.46-7.31,11.67-10.4l7.41-5.45c2.39-1.75,5-3.57,7.91-3.79,2.72-.2,5.35-1.57,8-2.35a69.7,69.7,0,0,0,10-3.53c3-1.41,5.78-3.25,9-4,4.81-1.19,9.52-1.31,14.19-3,3-1.08,6.44-1.44,9.45-2.55A17,17,0,0,1,185.21,57c3.46,0,6.76-2.15,9.92-3.56,1.13-.51,2.25-1,3.39-1.53,1.94-.82,3.94-1.5,6-2.13a38.75,38.75,0,0,0,8.57-4.27c3.35-2.07,4.65-6.47,7.27-9.41,1.46-1.65,1.75-4,3.63-5.11a14.93,14.93,0,0,1,1.76-.83,19.29,19.29,0,0,0,6.19-4.35c1.69-1.77,3.75-3.73,6.19-3.88a4.42,4.42,0,0,1-.64,5.92q-4,3.28-7.76,6.92a6,6,0,0,0,1.74-.06l7.1-1.7c2.51-.59,5-.32,7.51-.88l9.09-2a6.15,6.15,0,0,1,2.29-.22,2.17,2.17,0,0,1,1.76,1.32,1.32,1.32,0,0,1-1.06,1.7c1.67-.14,3.37-.09,5-.22a1.91,1.91,0,0,1,1.6.34,1.45,1.45,0,0,1,.33,1,3.44,3.44,0,0,1-1.65,2.71,5.45,5.45,0,0,1-3.17.73c.49-.11,1,.48,1.5.59a1.19,1.19,0,0,1,1,1,1.59,1.59,0,0,1-.62,1.1,20.38,20.38,0,0,1-6.61,3.86A87,87,0,0,1,243.7,48c3.77-1.64,7.62-3.3,11.71-3.61a4,4,0,0,1-2,3.84,11.74,11.74,0,0,1-4.32,1.4c-1.9.34-3.45,1.86-5.28,2.48a86.2,86.2,0,0,0-10.1,4.44,28.32,28.32,0,0,1-12.34,2.69c-4.23,0-8.93.3-11.9,3.32a11.14,11.14,0,0,0-4.4,2.11,63.85,63.85,0,0,1-11.68,5.87c-4,1.51-8.38,3.83-12.31,5.49-6.9,2.91-13.81,5.82-20.87,8.32q-4,1.43-8.1,2.66c-1.89.58-3.48,2.19-5.45,2.44s-4,.16-5.94.34c-9,.83-16.33,7.12-24.59,10.69-3.89,1.68-8.93.55-12.68-1.43a3.46,3.46,0,0,1-1.8-1.75,2,2,0,0,1,.43-2,1.35,1.35,0,0,0,.36-.47C102.65,94.29,102.25,94.09,102.13,93.57Z"/><path class="cls-1" d="M38.22,73.06a17.93,17.93,0,0,0-3.69,4.61c-.81,1.81-.71,4.22.84,5.46.76.61,1.77.86,2.57,1.43A8,8,0,0,1,40,87.15q3.18,5.34,6.86,10.35c1.59,2.19,3.37,4.41,5.87,5.44a15.67,15.67,0,0,0,4.08.9,19.64,19.64,0,0,0,4.78.21,15.72,15.72,0,0,0,5.17-1.78,20.27,20.27,0,0,0,7.53-6,10.24,10.24,0,0,0,1.62-9.2,4.51,4.51,0,0,0-1.67-2.32c-1.81-1.17-4.24-.21-6.36-.6a28.56,28.56,0,0,1-.51-4.52,7,7,0,0,1,.08-1.51,7.34,7.34,0,0,1,.44-1.35,21.39,21.39,0,0,0,1.66-5.89,7.27,7.27,0,0,0-1.74-5.69c-.91-.94-2.13-1.53-3.07-2.45C62.89,60.9,62.5,58,62.58,55.41a8,8,0,0,0-.12-2.24,6,6,0,0,0-.74-1.56,23.6,23.6,0,0,0-7.09-7.29c-3-2-5-.74-5.19,2.49A41,41,0,0,1,38.22,73.06Z"/><path class="cls-1" d="M61.38,33.9q-2.84,5.18-6,10.14c-1.12,1.73-1.36,4.38-2,6.36-.48,1.61-.2,4.14-.27,5.82a80.2,80.2,0,0,0,8,11.88,28.84,28.84,0,0,0,7.76,7,5,5,0,0,0,4.39,0,8.59,8.59,0,0,0,2.06-1.54c2.71-2.47,6.13-4.27,8.89-6.67a29,29,0,0,0,2.21-2.08,34.11,34.11,0,0,0,3.46-4.64c1.3-2,1.88-4.4,3.88-5.62,1.18-.72,2.59-1.2,3.35-2.35a6,6,0,0,0,.72-2.84c.23-2.76,2-5.43,1.75-8.19a26.15,26.15,0,0,0-2.16-8,29.15,29.15,0,0,0-2.78-5.38,19,19,0,0,0-25.44-5.52A9.94,9.94,0,0,0,67,24.08a13.38,13.38,0,0,0-1.83,2.86C64,29.2,62.61,31.67,61.38,33.9Z"/><path class="cls-3" d="M59.36,31c.75,1.39,2.06,3,3.54,2.46A3,3,0,0,0,64,32.65a29.92,29.92,0,0,0,3-3.6,1.31,1.31,0,0,0,0,1.11,4.56,4.56,0,0,0,1.18-1.33c.17.59,1.09.32,1.49-.14s.93-1.09,1.49-.85c.25.12.44.4.72.4s.43-.25.57-.46a7,7,0,0,1,4-2.83,4.32,4.32,0,0,1-.3,2.51c1.89-1,2.54-3.95,4.66-4.16a4,4,0,0,1,2.67,1.06,23.39,23.39,0,0,1,3.29,3,1.75,1.75,0,0,1,.68-1.5,58.13,58.13,0,0,1,3.51,7A2.17,2.17,0,0,1,91.76,31l.88,4.53a17.18,17.18,0,0,0,2.48,5.63l.14-1.58a9.12,9.12,0,0,0,1,5.59c.87,1.6,2.27,3.37,1.49,5a12.14,12.14,0,0,0,8-11.54.92.92,0,0,1,.1-.59c.11-.16.4-.21.5,0s-.25.38-.3.18a18.58,18.58,0,0,0-3-16.2L106.25,24a9,9,0,0,0-4.83-4.45l1.81-.14a12,12,0,0,1-4.56-4.51,46.79,46.79,0,0,1-4.42-2.22l.94-1a15.9,15.9,0,0,0-7.65-2.43c0-.6,1-.63,1.28-1.17s-.51-1.19-1.19-1.36a16.46,16.46,0,0,0-10.28.71,11,11,0,0,1,1.67-4,15,15,0,0,0-3.34,4.56l.61-4.56a13.92,13.92,0,0,0-2.14,5.06L72.68,5.09l-.26,3.52L70,6.52A3.23,3.23,0,0,1,71.41,9a41.18,41.18,0,0,0-6.12-1.13l1.7.39A17.37,17.37,0,0,0,59,10l1.64.21-6.14,2.92a54.67,54.67,0,0,1-3.35,5.36,9.64,9.64,0,0,1,2.23-2.14,9.81,9.81,0,0,0-1.82,2.69c-1.25,2.39-2.55,4.94-2.39,7.64a15.27,15.27,0,0,0-1.9,6.7c-.06,1,0,2-.11,3s-.39,2.08-.4,3.13c0,2.8,1.87,5.55,1.08,8.23a.55.55,0,0,0,.85,0,1.61,1.61,0,0,0,.31-.92l.51-4.29a6.87,6.87,0,0,0-.26-3.82c-.2-.4-.47-.77-.64-1.19-.66-1.65.5-3.4.88-5.13a13.91,13.91,0,0,1,.69-3.31c.84-1.66,2.92-2.22,4.77-2.35a1.76,1.76,0,0,1,1,.14,1.91,1.91,0,0,1,.61.71C57.34,28.7,58.73,29.81,59.36,31Z"/><path class="cls-1" d="M55.53,26.85a4.05,4.05,0,0,0-1.48.71c-1.81,1.2-3.56,2.9-3.73,5.07-.1,1.36.45,2.68.61,4a10.74,10.74,0,0,1-.14,2.94,1.64,1.64,0,0,0,0,.88,2.05,2.05,0,0,0,.52.62,3.55,3.55,0,0,1,1,2.23,2,2,0,0,0,.26,1.16c.43.5,1.26.23,1.8-.15,3.88-2.7,2.14-7,4.4-10.38.78-1.18,1.53-2,1.31-3.53C59.83,28.52,57.55,26.45,55.53,26.85Z"/><path class="cls-3" d="M107.72,188a23.29,23.29,0,0,1-3,20.74c-.44.63-.87,1.64-.21,2.05a1.6,1.6,0,0,0,.54.15c4.48.61,9.37.18,13.15,2.66a3.19,3.19,0,0,1,1.27,1.33,1.41,1.41,0,0,1-.37,1.68c-.45.31-1.06.22-1.58.38-1.46.43-1.69,2.43-1.32,3.91s1,3.1.28,4.45-2.43,1.73-3.7,2.56c-2,1.28-2.85,3.63-3.64,5.82l-4.57,12.81c-6,3.16-12.18,6.07-19,5.69-2.27-.13-4.5-.63-6.77-.72-7.92-.33-15.36,4.21-23.28,4.3-2.4,0-5.1-.27-7,1.27a17.49,17.49,0,0,1-11.75-3.8,17.7,17.7,0,0,1-6.21-10.78c-1.27-7.82,2.82-15.54,3-23.47.43-20.4-3.19-40.8,1.17-60.73,1.07-4.87-.5-9.61-.73-14.59a3.53,3.53,0,0,0-.46-1.9,3.22,3.22,0,0,0-1.15-.88c-4.59-2.47-9.93-3-14.86-4.7a43.62,43.62,0,0,0-6.44-2.1,8,8,0,0,0-6.45,1.25l-.57-1.48a36.79,36.79,0,0,1-2.27-11.52c-.14-3.14.16-6.29-.13-9.42-.36-3.84-1.61-7.64-1.2-11.47.43-4-.45-8.26,1.56-11.78,1.15-2,2.73-3.81,3.59-6a4.49,4.49,0,0,1,1.5-2.47,8.64,8.64,0,0,1,1.53-.53c.51-.2,1-.62,1-1.16,6.17-3.88,13.74-4.92,21-5.84,2.44-.31,5.25-.44,7,1.29a49.68,49.68,0,0,0,6.36,4.79c1.57,1.13,2.87,2.58,4.35,3.83a36.87,36.87,0,0,0,8.52,4.94q3.38,1.55,6.81,3a15.71,15.71,0,0,0,7.11,1.34A10.93,10.93,0,0,0,68,84.61c-.34-.36-.73-.88-.47-1.3s.86-.31,1.32-.16l4.21,1.35a3.19,3.19,0,0,1,3.1-2.5c.58,0,1.25.16,1.7-.22s.5-1,1-1.12c.29,0,.58.13.88.13.69,0,1-.84,1.63-1.18s1.61,0,2.36.34a10.57,10.57,0,0,0,6.06.64A48.34,48.34,0,0,1,101,79.43a1.51,1.51,0,0,1,.53-1.26,2.06,2.06,0,0,0,2.34,1c.4-.12.76-.38,1.17-.49a4,4,0,0,1,1.75.09,30,30,0,0,0,8.13.48c3.3-.27,5.9-3.34,9.1-4.14a1.85,1.85,0,0,1-.34,1.87c-.4.53-.94.94-1.37,1.46a8.54,8.54,0,0,0-1.3,2.8l-1,3.08a15.11,15.11,0,0,0-.81,3.41,10.44,10.44,0,0,1-1.08,4.61c-2.33,4.7-4.11,10-2.78,15,.32,1.19.72,2.55,0,3.57s-2.16,1.15-3.41,1.31a16.68,16.68,0,0,0-12.44,8.48,33.14,33.14,0,0,0-2.58,7.36c-3.18,12.08,1.41,25.33,4.34,37.47.43,1.81.92,3.61,1.22,5.44.43,2.7-.21,3.49.5,5.41a40.42,40.42,0,0,0,1.93,3.82c.56,1.07,1,2,1.31,2.55a46.8,46.8,0,0,0-.49,6s.08-.37.31-.86a4.09,4.09,0,0,1,1.19-1.48l-2.59.29"/><path class="cls-3" d="M118.8,91.31a6.48,6.48,0,0,0-1.73,2.94"/><path class="cls-1" d="M6.1,134.56a80.61,80.61,0,0,1,7.42,21.08c.41,2.15.43,5.15,2,9.49,1.24,3.48,2.72,7,3,10.64.26,3.42.48,7.16.87,10.57.71,6.34,1.42,12.7,1.59,19.08s-.52,13.07.76,19.31c1.08,5.29.22,11.06.2,16.47a32.71,32.71,0,0,0,.17,4.2c.43,3.32,1.89,6.52,1.73,9.86-.34,7.13-.21,14.57-.35,21.7-.11,5.24,1.75,10.77,4.22,15.39a24.48,24.48,0,0,0,1.69,2.59l1.09,1.54c1.51,2.11,3,4.22,4.72,6.17.72.81,1.82,1.66,2.76,1.13a10,10,0,0,0,1.74,3.64,5,5,0,0,0,3.45,2l.66-1a4.14,4.14,0,0,0,2.61.81,43.85,43.85,0,0,0,.52-14.18c-.42-3.28-1.2-6.58-.77-9.85.19-1.46.32-3.06.51-4.52a9.44,9.44,0,0,0-.52-4.59,26.51,26.51,0,0,0,6.92,15,2.57,2.57,0,0,0,1.29.88,1.73,1.73,0,0,0,1.75-1,3.23,3.23,0,0,0,.26-2.11,7.31,7.31,0,0,0-1-3.35c-1.8-3.12-1.23-7.69-4-14.35-1-2.33-2.89-5.64-6.73-12.27a29.74,29.74,0,0,1-1.89-4.1,19.19,19.19,0,0,1-.64-2.21L40,244.25c-2.34-9.4-.79-19.52-.92-29.2-.16-12.6-.87-24.76.48-37.28,1-9.72-2.85-19.42-4.22-29.1a27.47,27.47,0,0,0-2.2-6.41,5.43,5.43,0,0,0-1-1.67,4.84,4.84,0,0,0-2.52-1.36c-4.59-1.09-9.63.49-13-1.84-2.64-1.81-3.19-5.22-4.88-4.95-.59.09-.73.54-1.7,1.13A7.27,7.27,0,0,1,6.1,134.56Z"/><path class="cls-4" d="M38.4,287a10.64,10.64,0,0,1,2.09,4.13c.12.67.11,1.35.18,2a21.12,21.12,0,0,0,.83,3.56,56.72,56.72,0,0,1,1.88,9.49"/><path class="cls-4" d="M30.85,284.09c2.12,2.81,3.09,6.3,4,9.7l2.34,8.52"/><path class="cls-4" d="M27.07,283.39a68.55,68.55,0,0,0,2.87,11.9"/><path class="cls-3" d="M120.83,99a6.28,6.28,0,0,1,1.83-.57c-.58,1.72-2.74,2.47-3.46,4.14a8.65,8.65,0,0,0-.4,2.44,8.91,8.91,0,0,1-2.22,5c-.21-2.18-1.41-6.13-.79-8.2C116.26,100.14,119.37,99.57,120.83,99Z"/><path class="cls-4" d="M112.65,238.14a46.09,46.09,0,0,1-7.36,33.21"/><path class="cls-4" d="M129.7,233.76l-6.41,18c-2.51,7.06-5.06,14.2-9.23,20.42-2,3-4.45,6.06-4.21,9.63"/><path class="cls-4" d="M120.59,273.93a328.66,328.66,0,0,0,28.64-28.21"/><path class="cls-4" d="M142.12,239.25a74.57,74.57,0,0,1-20.65,24.56"/><path class="cls-4" d="M160.22,265.21c-9.17,3.38-17.28,9.74-26.92,11.33"/><path class="cls-4" d="M108.54,281.33c-1.06,9.8-9.59,17.08-12.91,26.37"/></g></g></svg>