<svg xmlns="http://www.w3.org/2000/svg" viewBox="0 0 180.03 578.4"><defs><style>.cls-1{fill:#fff;}.cls-1,.cls-2,.cls-3,.cls-4{stroke:#231f20;}.cls-1,.cls-2,.cls-3,.cls-4,.cls-5{stroke-miterlimit:10;}.cls-2{fill:#362063;}.cls-3{fill:#231f20;}.cls-4,.cls-5{fill:none;}.cls-5{stroke:#fff;}</style></defs><g id="Layer_2" data-name="Layer 2"><g id="Layer_1-2" data-name="Layer 1"><path class="cls-1" d="M123.64,553.6c-.89,2.25-2.61,5-.85,6.71.9.85,2.28.82,3.52.94,7.27.7,12,7.7,18.08,11.76,6.34,4.24,14.34,5.28,22,4.77,3.31-.22,6.74-.76,9.47-2.66s4.5-5.49,3.39-8.62c-.87-2.41-3.19-4-5.51-5.09-5-2.32-10.49-3.16-15.58-5.18s-10.06-5.73-11.22-11.09c-1.53-7.11,4.12-14.4,2.32-21.45a6.29,6.29,0,0,0-2.69-4c-5.75-3.33-15.94,7.48-19.59,11.47C120.88,537.8,126.57,546.22,123.64,553.6Z"/><path class="cls-1" d="M29.39,548.4c-1.45,3.5-3.27,7.2-2.48,10.9.67,3.12,3.05,5.53,5.33,7.76a9.48,9.48,0,0,0,2.63,2,9.26,9.26,0,0,0,3.89.54c4.85-.06,10.26-.66,13.4-4.35,2.18-2.55,2.78-6.12,2.59-9.47s-1.1-6.6-1.59-9.92a40.56,40.56,0,0,1-.2-10,11.79,11.79,0,0,0-.1-5.09c-.57-1.62-2.35-3-4-2.38a2,2,0,0,0-.74.49,4.31,4.31,0,0,0-.53,1A4.37,4.37,0,0,1,42,532c-1.46-.71-2.37-2.16-3.57-3.25-4.86-4.41-4.65,2.74-5.11,5.69A60.84,60.84,0,0,1,29.39,548.4Z"/><path class="cls-2" d="M23.56,303.84c-.34,3.06.58,4.39,1.27,10.47,1,9.06,0,15.31-.43,20.18-.83,9.8.72,15,3.17,32.18,2.72,19.11,3.83,33.91,4.85,47.51,1.54,20.53,2.48,33.14,1.47,50.58-.93,16.17-1.4,24.25-2.53,31.67C29,511.9,26,520.54,30.1,527.08c2.2,3.51,5.3,4.58,10.54,6.38,2.92,1,17.87,6.16,23-1.53,2.23-3.34.91-6.6-.21-21.2,0,0-1-13.42-.84-26.56.15-10.87,1.63-18.48,4.22-31.42,15.35-76.84,17.73-80.9,16.23-88.89-.28-1.49-2.19-11,1.48-17.88.4-.75,1.77-3.31,3.16-3.06s2.27,3.4,3,7.41a97.78,97.78,0,0,1,1.27,18.9c-.12,8.46,1.8,9.33,5.27,26,2.44,11.77,2.18,14.68,4.22,27.59,3.83,24.32,6.17,23,9.06,41.89,2,13,4.5,29.36,3.59,50.57-.59,13.57-2.26,21.84,2.11,26.31,2.61,2.67,8.1,2.33,19,1.53,9-.66,13.57-1,15-3.58,2.81-5.07-3.49-11.3-5.27-26.05-1-8.15.39-10.78,1.69-25.8.77-9,.87-17,1-32.95.31-26.7-1.74-40.54-4-79.43-1.66-28.39-2.26-42.6-2.11-46.23.88-22.42,4.29-36.73-2.74-52.62-1.46-3.29-4.33-9.63-10.12-14.56-12.37-10.54-27.95-6.06-42.81-1.79-14.3,4.11-8,5.86-45.12,26C34.51,289.55,24.57,294.82,23.56,303.84Z"/><path class="cls-1" d="M45.68,82.35A26.47,26.47,0,0,1,40.26,102a22.34,22.34,0,0,0-1.71,2.29l-.77.33c-3.19,1.41-5.42,5-6,8.45-.72,4.07,1.79,8,4.73,10.93,6.53,6.48,15.4,10,24.26,12.48a122.07,122.07,0,0,0,27,4.36,7.78,7.78,0,0,0,3.84-.49,8.16,8.16,0,0,0,2.67-2.53c3.73-4.82,7.66-10.33,7-16.38-.64-5.52-5-9.87-9.74-12.8a18.43,18.43,0,0,0-8.74-3.17,6.15,6.15,0,0,1-2.27-.3,4.39,4.39,0,0,1-1.68-1.55,20.4,20.4,0,0,1-1.58-21c1.24-2.36.88-5.51,1.16-8.15A11.93,11.93,0,0,0,77,66.72,11.34,11.34,0,0,0,72.63,63a20.58,20.58,0,0,0-27.14,7.61,8,8,0,0,0-1.43,4.67C44.26,77.78,46.73,80.09,45.68,82.35Z"/><path class="cls-1" d="M130.86,183.69c.34.27,2.37,2.09,6.43,5.73,8.09,7.26,7.53,7,8.71,7.8,2.62,1.76,9.13,6.13,13.76,3.66a8,8,0,0,0,3.21-3.66c1.76-3.53.22-5.67.23-11.93,0-4.82.92-4.77,1.14-11.23a79.61,79.61,0,0,0-.23-8.49c-.91-15.42-.54-13.69-.91-17.19-1.25-11.65-4.07-18.47-4.13-28.21a25.2,25.2,0,0,1,.69-6.42c.81-3.28,1.71-3.91,3.89-8.94,1.91-4.4,2.86-6.66,3-9.63.07-1.84-.26-1-.69-6.42-.32-4-.25-5.71-1.61-7.11-.86-.89-1.17-.48-2.75-1.61-2.87-2.05-2.62-4-4.36-4.35s-3.81,1.33-4.67,2.07a13.16,13.16,0,0,0-1.52,1.6,25,25,0,0,0-1.83,2.75c-.09,0,2.75-3.6,2.06-7.34C151,73.16,150,71.33,149,71.33c-.42,0-.85.31-2.06,2.29a23.65,23.65,0,0,0-2.53,4.82,24.21,24.21,0,0,0-1.14,6.88c-.25,3.43-.37,5.14,0,7.11.75,4,2.45,4.81,3,8.48.1.71,0,.45-.46,6-.28,3.43-.42,5.18-.46,6.88a61.47,61.47,0,0,0,.23,6.88c.6,7.83.49,15.9.46,17.89-.13,9-.95,9.06-.69,16.28a79.23,79.23,0,0,0,1.15,11.46,73.45,73.45,0,0,0,3.9,14.22,25.19,25.19,0,0,0-5.61-14c-.33-.39-7.92-9.18-13.89-6.44-1.58.73-2.65,3.33-4.81,8.48-1.91,4.57-2.86,6.88-2.29,8.72C124.39,179.31,125.78,179.53,130.86,183.69Z"/><path class="cls-1" d="M42.13,44a48.9,48.9,0,0,1-.92,4.82,30.28,30.28,0,0,0-.46,5.73A41,41,0,0,0,41.9,64c.9,4.42,1.35,6.63,2.52,9.17a21.3,21.3,0,0,0,6.19,8.49c5,3.92,12.85,5.27,19,2.29,4.17-2,6.46-5.44,8-7.79,1.18-1.78,2.26-4.43,4.35-9.63a90.1,90.1,0,0,0,3.67-9.86,46.86,46.86,0,0,0,1.15-13.07A56.7,56.7,0,0,0,85.46,31.2c-1.23-5.39-2.31-10.06-6-14.67C77.71,14.26,73.07,8.4,66,8c-4-.2-7,1.48-10.54,3.44S47,16.22,45.11,21.57c-1.23,3.52.47,3.7-.92,9.4-1,3.93-2.13,5.35-2.06,9A27.9,27.9,0,0,1,42.13,44Z"/><path class="cls-3" d="M39.1,43.37a26.07,26.07,0,0,1-.84-9.22,2.39,2.39,0,0,0-1.36,2.24l.21-3.74a3.37,3.37,0,0,0-1.29,2.21l.38-3.48a2.21,2.21,0,0,0-1,2.58c-.39.11-.52-.52-.42-.92a24.57,24.57,0,0,1,5.59-10.4,5.35,5.35,0,0,0-3.88,2.78,5.44,5.44,0,0,1,3.2-3.93,3.29,3.29,0,0,1-2.05.69,5.81,5.81,0,0,1,3.13-.73,4.23,4.23,0,0,0-3.88-.29,13.66,13.66,0,0,1,4.37-.24l-2.61-.63a16.36,16.36,0,0,1,3-.08,24.52,24.52,0,0,1,.17-6.9,1.42,1.42,0,0,0-1.4,1,3.37,3.37,0,0,0,.07,1.86c.38-3,3.17-5.11,5.85-6.58a3,3,0,0,0-2.83,2,7.6,7.6,0,0,1,.8-2.38,2.56,2.56,0,0,1,2-1.32l-3.21.3,4.93-1.63a5.2,5.2,0,0,0-1.68-.56A3,3,0,0,1,49,5.37c2.72.56,5-1.83,7.62-2.9l-2.28-.31L57.47,2a1,1,0,0,0-.54-1A18.52,18.52,0,0,1,60.5,1l-1,0A36.92,36.92,0,0,0,65.74.67c3.16-.4,6.61,0,9.8,0A8.08,8.08,0,0,0,72.19,1a26.94,26.94,0,0,1,5.68,1.25,1.79,1.79,0,0,1-.92,0l4.66,1a9.53,9.53,0,0,1-3,.47l1.75.91C85.58,7.31,90.59,10.75,94,15.46a3,3,0,0,0-2.3-.72,3.22,3.22,0,0,1,2,1.36c.35.75-.33,1.89-1.1,1.59a8.78,8.78,0,0,1,5.21,5.58,4.84,4.84,0,0,1-2.61-1,6.46,6.46,0,0,1,2.19,4.13l-1-.3a13.61,13.61,0,0,1,1.64,7.12,3.41,3.41,0,0,0-.23-1.84l-.8,3.3c-.47,2-1.56,4.36-2.23,6.29a19.22,19.22,0,0,1-2.4,5.15c-.43.58-.93,1.11-1.34,1.7a24.27,24.27,0,0,0-2,4c-.27.59-.83,1.28-1.44,1-.37-.15-.52-.61-.6-1a29.21,29.21,0,0,1-.7-5.67c-.1-3.72.47-7.67-1.22-11-1-2-3.19-3.51-5.05-4.84.73-.11,1.19.91.88,1.58a3.14,3.14,0,0,1-1.73,1.3l0-3.78c-.61-.24-1.19.42-1.44,1s-.49,1.35-1.12,1.52l.86-2.25a.61.61,0,0,0,0-.42c-.09-.26-.47-.27-.73-.17a2.3,2.3,0,0,0-1.48,2.16,5,5,0,0,1,.91-3.38c-.39-.35-1,.16-1.23.61l-3.76,6.32A13.67,13.67,0,0,1,71.82,29l-1.49,3.46a12.18,12.18,0,0,1,0-5.1A6.47,6.47,0,0,0,69,30.67c-.6-1-.11-2.31-.29-3.47-.3-1.88-2.24-3-4-3.79-.73-.34-1.8-.46-1.87.35a2,2,0,0,0-.2-2.57l-.9,2.1a1,1,0,0,1-.43.56c-.4.18-.82-.23-1.07-.6a31.18,31.18,0,0,1-2.37-4.12,20,20,0,0,1,1.45,3.74A5.86,5.86,0,0,1,55,22.11a1.53,1.53,0,0,1,1,1.21,23.16,23.16,0,0,1-5.61-2.85l.46,2.86c-1,.54-2.29-.74-3.24-.14a2,2,0,0,0-.66,1.4C45.73,32,44.39,39.47,41.42,46.38A6.17,6.17,0,0,1,39.1,43.37Z"/><path class="cls-1" d="M91.61,52.43a1.52,1.52,0,0,1,1,1.22,4.52,4.52,0,0,1-.12,1.67q-.57,2.9-1.16,5.79c-.14.71-.28,1.41-.47,2.1-.61,2.24-1.93,4.52-4.14,5.27a9.39,9.39,0,0,1-3.47.25,2.5,2.5,0,0,1,.31-2.51A17.72,17.72,0,0,0,85.08,64C86.06,61.74,86.38,51.23,91.61,52.43Z"/><path class="cls-1" d="M34.85,46.11c-.28,2.83-1.87,5.66-1,8.38a10.87,10.87,0,0,1,.81,2.62c0,.74-.26,1.54.09,2.2a4,4,0,0,0,.72.81c.69.7,1,1.67,1.71,2.4s1.87,1.15,2.6.49c.45-1.63-.16-3.34-.52-5-.71-3.3.27-5.79.62-9C40.26,45.16,37.65,46.75,34.85,46.11Z"/><path class="cls-3" d="M1.08,125.91a33.78,33.78,0,0,1,8.49-9.55,37.47,37.47,0,0,1,11.46-6s8.92-4.55,14.45-5.61c.39-.07.71-.1,2.19-.35,2-.35,2.43-.47,2.62-.27.47.51-1.59,1.89-1.37,3.53.16,1.23,1.54,2,3.21,2.91,4.45,2.41,6.68,3.61,7.56,3.94,8.52,3.14,7.77,5.29,14.91,7.47,3.26,1,8.54,2.54,14.21.83A14.87,14.87,0,0,0,85,119.26c1.36-1.32,3.22-3.13,3-5.6-.22-2.32-2.31-3.89-3.21-4.57-2.42-1.82-4.65-1.87-4.59-2.28.1-.71,6.76-.83,14,0a48.57,48.57,0,0,1,8.71,1.45,37,37,0,0,1,14.9,8.51,64.58,64.58,0,0,1,6.43,7.48c4.86,6.11,5.11,7.11,9.63,13.07,6.57,8.68,8.72,10.1,10.31,15.16,1.66,5.27.69,8.07.23,9.13-1.13,2.64-3.15,4.14-6,6.23-5.43,4-8.41,3.48-11.23,7.26-.67.89-1.23,1.9-2.07,1.87-2-.06-2.82-5.71-3.9-5.6-.69.07-.93,2.52-1.14,4.56-1.16,11.44-1,7.21-1.15,10.59-.35,7.79-.53,11.68-.46,12.66.26,3.73.7,3.9,3,14.95,1.76,8.49,1.62,8.92,2.53,11.83,1.94,6.22,3.71,7.79,6,12.87,6.44,14.54,4.71,30.53,9.86,33.84a7.61,7.61,0,0,1,3,3.11,6.52,6.52,0,0,1,.46,3.74,9.32,9.32,0,0,1-2.75,5c-10.94,11-30.5,15.78-30.5,15.78-11.13,2.69-19.2,3.4-32.56,4.56-26.53,2.32-20.64-.91-38.07,1.25-2.24.28-18.17,2.29-22.47-1.87-.47-.46-1.9-1.84-1.6-3.32s2.08-2.16,3-2.7c4.49-2.71,1.63-10.58,3.21-22,.84-6.06,1.86-5.48,2.75-12.25.72-5.49.48-9.23.23-14.74-.49-10.79-.59-21.59-.92-32.38-.15-5-1.18-10-.69-15,.47-4.65,1.55-8.8-.91-10.59-1.48-1.06-3.07-.46-6.19-2.07a17.3,17.3,0,0,1-3.67-2.7C7.35,182,7,169.45,4.29,157c-1.58-7.36-2.42-7.55-3.21-13.49A67.31,67.31,0,0,1,1.08,125.91Z"/><path class="cls-4" d="M14.84,194.81c3.13-1,5.68-3.34,8.79-4.38,5.87-2,12.35,1,18.46,0,3.5-.6,7-2.53,10.4-1.58a7.6,7.6,0,0,0-.34-5.94c-.81-1.87-2-3.55-3-5.35-5.55-10.58-1.48-23.91-5.54-35.14l-.3,1.83"/><path class="cls-5" d="M40.06,150.22c-2.8-3.15-4.37-7.24-7.19-10.35a34,34,0,0,0-4.79-4.08l-5.31-4c-3.31-2.48-6.86-5.06-11-5.34"/><path class="cls-5" d="M23.49,156.59c4.18,4.06,9.7,6.39,15.09,8.63"/><path class="cls-5" d="M121.41,135.08A123,123,0,0,1,121,178"/><path class="cls-1" d="M22.52,192.39a70.09,70.09,0,0,0,3.87,8.37c3.74,6.89,9.38,13.9,14.24,21.11A19.27,19.27,0,0,1,43.38,227c.36,1.21.48,2.49.87,3.69A14.76,14.76,0,0,0,48.68,237a130.35,130.35,0,0,1,13.39,15.29c2.26,2.86,2.86,4,5.05,7.11,5.66,8,10.71,13.42,19.49,22.7,12,12.72,18.07,19.08,18.57,19.49a19.7,19.7,0,0,1,6,7.11c.72,1.52.63,1.9,2.06,7.79.7,2.88,1.46,5.36,3,10.32,1.16,3.79,1.74,5.42,3.21,6s2.46-.41,4.13.46c1.43.74,1.33,1.77,2.52,2.06,1.45.36,2-1.08,3.9-1.14,2.13-.08,2.7,1.66,4.35,1.37,2-.33,2.09-3,3.44-3,1.76,0,2.06,4.38,6.19,7.11,1.57,1,2.47,1,3,.92,1.63-.33,2.63-2.16,3-3.44.64-2.39-.51-4.56-1.38-6.19-1.36-2.56-3-3.86-4.73-7.6,0-.06,0-.11-.08-.2-1.44-3.29-1.78-6.28-1.38-6.42s2.68,4.53,6.88,10.32a6.68,6.68,0,0,0,3.44,2.75,5.91,5.91,0,0,0,3.9-.23c.46-.2,2.68-1.15,2.75-2.52.09-1.88-4-2-7.57-6-1.39-1.54-2.23-3.17-3.9-6.42s-1.41-3.45-2.29-5.05c-2.54-4.59-6.88-6.93-11.47-9.4s-4.75-1.71-7.33-3.44c-5-3.35-7.19-8.14-8.26-10.32-7.19-14.65-15.22-15-27.74-36.68-3-5.18-4-7.78-7.57-12.39-2-2.59-5.22-6.23-11.69-13.53a46.25,46.25,0,0,1-6-7.79,48.38,48.38,0,0,1-3.44-7.34c-2.64-6.66-2.43-8.59-4.58-13.53a49.73,49.73,0,0,0-4.57-8.09c-6.43-9.7-10.67-16.08-17.21-16.67-7.24-.65-15.46,6-16.06,12.15C19.45,184.64,20.47,187.22,22.52,192.39Z"/></g></g></svg>