<svg xmlns="http://www.w3.org/2000/svg" viewBox="0 0 238.35 578.7"><defs><style>.cls-1{fill:#fff;}.cls-1,.cls-2,.cls-3,.cls-4{stroke:#231f20;stroke-miterlimit:10;}.cls-2,.cls-5{fill:none;}.cls-3{fill:#362063;}.cls-4{fill:#231f20;}</style></defs><g id="Layer_2" data-name="Layer 2"><g id="Layer_1-2" data-name="Layer 1"><path class="cls-1" d="M154.59,550.89c-.89,2.25-2.61,5.05-.85,6.71.9.85,2.28.82,3.52.94,7.27.7,12,7.7,18.08,11.77,6.34,4.24,14.34,5.27,21.95,4.76,3.31-.22,6.74-.76,9.46-2.65s4.51-5.5,3.39-8.62c-.86-2.42-3.18-4-5.5-5.09-5-2.33-10.49-3.17-15.58-5.19s-10.06-5.73-11.22-11.08C176.3,535.32,182,528,180.16,521a6.29,6.29,0,0,0-2.69-4c-5.75-3.32-15.94,7.48-19.59,11.47C151.83,535.1,157.52,543.51,154.59,550.89Z"/><path class="cls-1" d="M63,557c-1.45,3.5-3.28,7.19-2.48,10.89.66,3.12,3.05,5.54,5.33,7.76a9.34,9.34,0,0,0,2.63,2,9.08,9.08,0,0,0,3.88.54c4.85-.06,10.26-.66,13.41-4.35,2.17-2.55,2.78-6.12,2.58-9.46s-1.09-6.61-1.58-9.93a40.08,40.08,0,0,1-.2-10,11.79,11.79,0,0,0-.1-5.09c-.57-1.61-2.35-3-4-2.37a1.69,1.69,0,0,0-.74.49,4,4,0,0,0-.53,1,4.38,4.38,0,0,1-5.66,2.07c-1.46-.7-2.37-2.16-3.57-3.25-4.86-4.41-4.65,2.74-5.11,5.69A61.06,61.06,0,0,1,63,557Z"/><path class="cls-1" d="M32.1,179.89c-.77,6.87-1.54,13.76-3.34,20.42-1.32,4.86-3.17,9.55-4.69,14.35-1.68,5.3-2.94,10.72-4.21,16.13Q14.4,254.15,8.93,277.5c-2.32,9.92-3.16,20.53-6.82,30a20.66,20.66,0,0,0-1.57,5.35,14.27,14.27,0,0,0,.21,3.63,29.16,29.16,0,0,0,3.77,10.2c4.24,7,14.79,7.25,23,7.12a7.72,7.72,0,0,0-8.25-4.36l11.25-.11C27.61,326,22.35,326.68,18,326a3.67,3.67,0,0,1-2.4-1.06,4.05,4.05,0,0,1-.68-2.08L13.2,310.61a35.06,35.06,0,0,0,3.34,8.57c1.41,2.57,3.62,5.23,6.56,5.21a2.5,2.5,0,0,0,1.61-.51c1.06-.92.54-2.63.08-4a21.51,21.51,0,0,1-.68-11.74c.61-2.74,1.77-5.37,2-8.17.41-5-2.21-9.75-4.74-14.11-2.71-4.68-.35-11.47,2.09-16.3s6-9,9-13.5c3.32-5.16,5.75-10.84,8.17-16.48,5.5-12.86,11.13-26.57,9-40.39,2.17-4.16,4.37-8.41,6.55-12.57,2.42-4.64,4.94-10.13,3.94-15.26-.83-4.26-4.5-7.51-8.57-9S43,160.87,38.69,161C36.52,167.61,32.87,173,32.1,179.89Z"/><path class="cls-2" d="M212,174.14a27.56,27.56,0,0,0,0,8.6"/><path class="cls-2" d="M211.18,164c-.05-.92-1.22-1.22-2-1.69-1.26-.75-1.78-2.33-2.93-3.23a6.19,6.19,0,0,0-3.91-.94,18.53,18.53,0,0,0-7.43,1.48,11.47,11.47,0,0,0-5.55,5c-1.88,3.64-2.9,8.87-.4,12.12q1.77,2.31,3.32,4.78a2.43,2.43,0,0,0,1.76,1.31"/><path class="cls-2" d="M211.24,67.66c.84,3.77,1.86,7.51,3.07,11.18"/><path class="cls-2" d="M217.37,62A120.24,120.24,0,0,1,220,74.63"/><path class="cls-1" d="M207.4,98.22c.59-.34.89-1.44,1.2-2.61a11,11,0,0,0,.25-1.26c.35-2.61-.34-4.52-.66-7.9,0-.2-.06-.62-.15-1.2a20.17,20.17,0,0,0-.49-2.39C206.47,74.4,205.64,68.12,205,65c-.5-2.5-.18-5.09-.24-7.64a1.47,1.47,0,0,1,.17-.86,1.06,1.06,0,0,1,.49-.34,2.62,2.62,0,0,1,2.58.57,5.88,5.88,0,0,1,1.51,2.3,15.57,15.57,0,0,1,.75,2.31c0-3.49-.07-6.85-.07-10.33a1.66,1.66,0,0,1,.08-.63,1.21,1.21,0,0,1,.49-.56,2.78,2.78,0,0,1,3.45.79,8.12,8.12,0,0,1,1.47,3.54c.41,1.75.82,3.49,1.24,5.24a8,8,0,0,1,2.46-6.82,2,2,0,0,1,2-.65c.73.33.85,1.28.91,2.07a24,24,0,0,0,.92,5c.54,1.8,1.29,3.52,1.9,5.3A35.07,35.07,0,0,1,227,75.32c0,1.34.8,2.71,1.3,4,.14.35.5.76.8.54a.61.61,0,0,0,.18-.49,72,72,0,0,0-.5-14,6.2,6.2,0,0,1,.2-3.31c.45-1.12,1.46-2.44,2.37-2.3.21,0,.56.18,1.18,1.26a10.34,10.34,0,0,1,1.23,3.37c.47,3.49.57-.43,1.52,7.18,1.05,8.32,1.53,17,1.53,17,.64,11.49.15,9.29.61,14.21.4,4.16.73,5.45.23,7.88-.41,2-1.21,4-1.85,8.1-.06.43-.16,1.08-.25,1.86a47.48,47.48,0,0,0,.32,10.73c.15,1.64,0,.78.19,8.73.2,8.83.36,9.34.42,13.53a256.1,256.1,0,0,1-1.52,26.31c-.17,1.68-.41,3.82-.9,6.52-.23,1.31-.38,1.94-1,4.78-1.77,8-1.86,8.71-2.66,10.05-.57.95-2.45,4.08-5.17,4.26a15.82,15.82,0,0,1-2.54-.51c-2.46-.56-3.68-.85-5.24-1.29-2.1-.59-3.7-1.14-4-1.23-4.74-1.68-10.11-8.89-11.59-10.94-.48-.59-1.21-1.46-2.13-2.49-1.43-1.58-2.29-2.38-3.26-3.38a54.67,54.67,0,0,1-3.91-4.68c-7.76-10-11.64-15-10.65-18.69,1-3.83,7.43-5.37,16.51-7.79,1.71-.46,2.59-1,3.9-.92,4.4.42,8.5,6,10.43,10.21.6,1.28,1,2.45,1.5,2.4.78-.08.91-3.17,1.6-8.14.65-4.68.8-3.81,1.61-9.17a100.64,100.64,0,0,0,1.37-12.61,64.94,64.94,0,0,0-.57-11.69c-.56-3.72-.84-5.58-1.49-6.65-3.09-5.09-9-3-13.76-8.49-1.9-2.22-.78-2.37-3.67-6.53A34.71,34.71,0,0,0,192,94.69c-2.78-2.18-4.56-2.75-4.47-4s2.24-2.56,4.13-2.64c.42,0,1.76,0,4.93,2.29,2.47,1.81,3.07,2.83,6.19,5.39S206.84,98.55,207.4,98.22Z"/><path class="cls-3" d="M57.63,328.76c-.45,7.21-2.26,14.47-.91,21.56.4,2.13,1.08,4.2,1.53,6.33a57.27,57.27,0,0,1,.81,12.07q-.06,16.44-.44,32.88c-1,44.28-2.88,88,.59,132.12a22.08,22.08,0,0,0,1.32,7c1.88,4.4,6.3,7.08,10.45,9.47a3.25,3.25,0,0,0,1.53.57,2.93,2.93,0,0,0,1.87-.84c2.71-2.24,4.24-5.59,6.7-8.1s6.77-4,9.39-1.65c3.4-4.54,4.67-10.37,4.75-16s-1-11.29-1.73-16.91c-1.89-13.69-2.27-27.76.89-41.21,1.28-5.49,3.15-10.83,4.28-16.35a118.37,118.37,0,0,0,1.89-18.8q1.28-29.71.5-59.48c-.23-8.68,7.37-15.06,8.87-23.62.53-3.06.36-6.29,1.55-9.17s4.49-5.28,7.34-4c.26,9.13.56,18.43,3.7,27,2.88,7.88,8.07,14.82,10.33,22.9,1.95,6.94,1.62,14.32,2.95,21.41,1.62,8.59,5.66,16.73,6,25.47.38,11.22,4.18,22.9,3.38,34.1-.45,6.27-1.46,12.55-.81,18.8.57,5.42,2.36,10.64,3.25,16a96.89,96.89,0,0,1,.81,16.25q-.12,16.88-.22,33.74c10.41-3.89,21.87,1,32.9-.35a6.88,6.88,0,0,0,3-.88,5.65,5.65,0,0,0,2.19-5.28,22.76,22.76,0,0,0-1.66-5.77c-2.75-7.68-3.15-16-3.52-24.12-.59-12.71-1.17-25.42-1.45-38.14-.68-30.7.39-61.47-2.21-92.07-.65-7.63-5.7-14.54-5.54-22.2.1-4.55,1.85-8.87,3.11-13.24a62.14,62.14,0,0,0,2.32-20.52c-.38-7.07-3.9-13.19-2.77-20.18.53-3.28,1.54-6.51,1.6-9.84s-.88-6.73-1.1-10.12c-.26-4,.46-7.94.08-11.89-.76-8-5.79-14.82-10.64-21.2a13.9,13.9,0,0,0-3.67-3.74,13.42,13.42,0,0,0-5.31-1.49,151.4,151.4,0,0,0-28.14-1.52c-7.34.42-16.63-1.65-23.4,1.81-4,2.05-6.68,5.93-10,9a30.85,30.85,0,0,1-19.8,8.34c-2.41.1-5.37.21-6.46,2.36a18.48,18.48,0,0,0-.74,2.67c-.89,2.75-4.14,3.67-6.63,2.78-.72,3.36-2.6,5.57-3.87,8.62-1.76,4.19-1.28,9.52-1,14C56,307.73,58.29,318.18,57.63,328.76Z"/><path class="cls-1" d="M97.21,74.81c-.37,3.07-.26,6.19-.6,9.26a16.27,16.27,0,0,1-3.13,8.61,21.44,21.44,0,0,1-2.55,2.49l-4.81,4.2a16.17,16.17,0,0,0-3,3.07c-2.33,3.48-1.63,8.09-.84,12.2.83,4.27,1.91,9,5.43,11.5a16.88,16.88,0,0,0,5.06,2.22c2.42.76,4.86,1.49,7.3,2.2a16.23,16.23,0,0,0,5.1.89c3.91-.15,7.13-3,10.2-5.39a75.47,75.47,0,0,1,9.4-6.34,39.73,39.73,0,0,0,6.74-4.3c4.75-4.17,6.5-10.69,9.48-16.27a2.42,2.42,0,0,0,.43-1.49c-.16-1-1.46-1.33-2.47-1.56a12.75,12.75,0,0,1-8.95-8.48A17.75,17.75,0,0,1,131,75.05c.68-1.53-1.6-2.84-3.18-3.4a12.21,12.21,0,0,0-5-.23,53.69,53.69,0,0,1-14.59-.92,19.19,19.19,0,0,0-4-.57C100.91,70,97.59,71.57,97.21,74.81Z"/><path class="cls-1" d="M146.14,44.68c1.17.62,1,2.33.62,3.6L144,58.17a7.12,7.12,0,0,1-.61,1.61c-.79,1.3-2.35,1.87-3.56,2.8-.86.67-1.56,1.53-2.43,2.19a3.39,3.39,0,0,1-3.06.75.67.67,0,0,1-.36-.22.86.86,0,0,1-.11-.5,16,16,0,0,1,1.74-7.13,16.17,16.17,0,0,0,2-5.57c.13-1.46-.27-3.14.37-4.52C139,45.35,144,43.57,146.14,44.68Z"/><path class="cls-4" d="M135,49.11c1.82-.08,2.9-2,4.37-3.07s3.68-1.31,5.35-2.31c2.53-1.52,3.57-4.6,4.42-7.42.39-1.3.66-2.74,1.07-4a11.57,11.57,0,0,0-.4-8c-.75-1.76-.68-3.87-1.83-5.39a13,13,0,0,1-1.28-1.76c-.26-.53-.39-1.12-.62-1.67a4.89,4.89,0,0,0-3.46-2.86,20.71,20.71,0,0,0-3.23-2.89c-1.14-1-1.92-2.37-3-3.49-3.12-3.32-8.06-4-12.59-4.44-2.76-.28-5.53-.87-8.3-1.13a15.32,15.32,0,0,0-6.61.32c-.87.31-1.69.78-2.55,1.14a21.19,21.19,0,0,1-3.33,1L95.17,5c-2.85.67-1.29,2.76-5.4,7.45-2.11,2.4-3.48,3.24-3.37,4.88s1.44,2.41,1.08,4.12c-.21,1-.74,1-1,2-.21.81-.11,1.85,1.76,4.89a41.72,41.72,0,0,0,3.24,4.55,1.21,1.21,0,0,0,1.31-.82,38.51,38.51,0,0,1,9.08-1.46,5.82,5.82,0,0,1,2.08.12c1,.3,1.7,1.05,2.62,1.41a3.58,3.58,0,0,0,3.83-.84,29.24,29.24,0,0,1,7,1.33A10.28,10.28,0,0,1,123,37.08c.45.83.75,1.74,1.23,2.55a3.37,3.37,0,0,0,2.15,1.73c3.16.57,2.5,3.31,5.36,5.67A15.93,15.93,0,0,0,135,49.11Z"/><path class="cls-1" d="M94.21,27.68l3.15-5.33c1.55-2.61,3.33-5.43,6.21-6.39a12,12,0,0,1,3.27-.49,46.61,46.61,0,0,1,11.92.64,21.48,21.48,0,0,1,10.58,5.26c1.61,1.54,3,3.85,2.12,5.91a4.72,4.72,0,0,0-.52,1.33c-.11.9.61,1.66,1.23,2.32,9.64,10.34,4,25.37-.07,36.89-1.77,5.07-6.63,8.59-11.82,10s-11,2.18-16.06.31A15.74,15.74,0,0,1,97.31,73a28.7,28.7,0,0,1-2.23-3.59C93.64,66.8,92,64,91.39,61.05a56.51,56.51,0,0,1,4.07-33.78c-.45,0-.93.92-1.38.92l0,.39A2.13,2.13,0,0,1,94.21,27.68Z"/><path class="cls-5" d="M87.48,21.45a28.37,28.37,0,0,1-.76,10.09"/><path class="cls-2" d="M88.3,29.25l-.53,3.66"/><path class="cls-2" d="M86.37,21.45a17.93,17.93,0,0,1-.72,7.49"/><path class="cls-2" d="M86.86,19,84,23.3"/><path class="cls-2" d="M88.24,16.32a12,12,0,0,1-5.92-2.86"/><path class="cls-2" d="M86.16,12.07a14.94,14.94,0,0,0,3.43,2.41"/><path class="cls-2" d="M87.14,9.23a14.56,14.56,0,0,0,3.62,6.34"/><path class="cls-2" d="M88.41,6.47a7.75,7.75,0,0,0,1.79,5.38"/><path class="cls-2" d="M86.43,18.93a21.11,21.11,0,0,1-7.64-.32"/><path class="cls-2" d="M80.13,15.66a11,11,0,0,0,7,1.61"/><path class="cls-2" d="M80.3,22.34a13.69,13.69,0,0,0,6.25-2.14"/><path class="cls-2" d="M82.28,26.32a9.66,9.66,0,0,0,2.57-3.21"/><path class="cls-2" d="M87.48,25.72c0,3.2-.13,6.6-1.91,9.25"/><path class="cls-2" d="M88.71,29.7v4.13"/><path class="cls-2" d="M90.22,31.38a13.44,13.44,0,0,1-1,4.76"/><path class="cls-2" d="M84.4,12.28a4.54,4.54,0,0,0,3.7,3.19"/><path class="cls-2" d="M81,14.17a12.38,12.38,0,0,0,5,2.13"/><path class="cls-2" d="M78.48,17.14a10.77,10.77,0,0,0,5,1"/><path class="cls-2" d="M78.47,21.42a33.66,33.66,0,0,0,6.73-.21"/><path class="cls-2" d="M89.78,10.75V6.92C90,8.2,89.61,9.47,89.78,10.75Z"/><path class="cls-2" d="M91.49,6.93l-.18,2.13"/><path class="cls-2" d="M146.16,41.78a14,14,0,0,1-1.11,7"/><path class="cls-2" d="M79.3,24.7a7.07,7.07,0,0,0,4.56-2.76"/><path class="cls-2" d="M82.48,28.76a16.65,16.65,0,0,0,3-6.18"/><path class="cls-2" d="M78.46,20a10.51,10.51,0,0,0,4.52.61"/><path class="cls-2" d="M85.34,10.52l1,1.93"/><path class="cls-4" d="M87.66,96.11C83.08,97.44,81.55,103.25,82,108a10.22,10.22,0,0,0,1.52,4.87c2.16,3,6.42,3.5,10.15,3.67,6.51.29,13.12.56,19.46-.91s12.52-4.92,15.84-10.53c2.12-3.56,3.75-8.43,7.85-9a10.26,10.26,0,0,1,4.58.8l15.36,5.24c9.18,3.13,13.28,5.93,18.1,9.72,3.91,3.07,6.31,6,11.12,11.72,8.38,10.06,7.37,11.28,13.76,18.58,8.58,9.79,13.56,11.2,13.3,15.82-.38,6.72-11.41,11.56-11.62,11.28s12.12-9.86,12.08-9.91-5.83,4.75-12.08,9.91L196.72,171c-2.46,2.27-8.41,7.18-13.72,5.46a10.71,10.71,0,0,1-3.87-2.63c-4.35-3.87-8.19-7.34-11.46-10.32-2.66,11.91-1.93,20.21-.69,25.68.69,3,1.68,5.91,1.6,10.55a114,114,0,0,1-1.6,13.76s-1.12,7.24.92,8.71l1.6,1.15.92,2.75a53,53,0,0,0,2.75,6.42,62,62,0,0,0,3.67,17c3.58,9.66,8.51,15.37,6.65,17.43-1.55,1.71-5.76-1.42-15.79-.56a29.57,29.57,0,0,1-3,.36c-12.06-.57-24.14-3.4-36.09-1.73-3.36.46-6.66,1.28-10,2A236.22,236.22,0,0,1,65,272.76c-2.94,1.65-5.52,3.65-8.38,5.44s-6.4,3-9.6,1.9c-.92-21.64,14.42-41.17,15-62.82a65.81,65.81,0,0,1,.36-8.43c.33-2.08,1-4.12,1.14-6.22.2-3-.71-6-1.38-8.92a58.76,58.76,0,0,1-1.24-18.32c-1.06.07-1.48,1.45-2,2.34-1,1.64-3.41,1.54-5.26,1.05-6.47-1.68-12.76-5.66-19.33-4.39-1.44.28-2.91.81-4.33.46s-2.59-2.13-1.69-3.29c-.69-19.07,10.34-36.19,16.13-54.38,1.13-3.56,4.83-5.41,8.37-6.6s7.3-1.66,10.82-2.93C71.47,104.82,79.44,97.62,87.66,96.11Z"/><path class="cls-2" d="M211.58,69.31a100.12,100.12,0,0,0,2.48,11.24"/><path class="cls-2" d="M217.36,62.29c.14,4.4,1.51,8.66,2.79,12.87.19.6.28,1.43-.29,1.7a87.32,87.32,0,0,1-2.21-11.45"/><path class="cls-2" d="M207.11,98.41a36.17,36.17,0,0,1,7.42,1.94,12.18,12.18,0,0,1,5.89,4.73"/><path class="cls-2" d="M214.57,165.11a21.71,21.71,0,0,0-.88,14.73"/></g></g></svg>