<svg xmlns="http://www.w3.org/2000/svg" xmlns:xlink="http://www.w3.org/1999/xlink" width="846.747" height="950.87" viewBox="0 0 846.747 950.87">
  <defs>
    <filter id="Rectangle_6" x="501.642" y="586.171" width="87" height="80" filterUnits="userSpaceOnUse">
      <feOffset dy="3" input="SourceAlpha"/>
      <feGaussianBlur stdDeviation="3" result="blur"/>
      <feFlood flood-opacity="0.161"/>
      <feComposite operator="in" in2="blur"/>
      <feComposite in="SourceGraphic"/>
    </filter>
    <filter id="Path_171" x="596.642" y="451.171" width="138" height="125.395" filterUnits="userSpaceOnUse">
      <feOffset dy="3" input="SourceAlpha"/>
      <feGaussianBlur stdDeviation="3" result="blur-2"/>
      <feFlood flood-opacity="0.161"/>
      <feComposite operator="in" in2="blur-2"/>
      <feComposite in="SourceGraphic"/>
    </filter>
    <filter id="Rectangle_5" x="501.642" y="658.171" width="87" height="80" filterUnits="userSpaceOnUse">
      <feOffset dy="3" input="SourceAlpha"/>
      <feGaussianBlur stdDeviation="3" result="blur-3"/>
      <feFlood flood-opacity="0.161"/>
      <feComposite operator="in" in2="blur-3"/>
      <feComposite in="SourceGraphic"/>
    </filter>
    <filter id="Path_157" x="245.773" y="462.16" width="203.624" height="202.431" filterUnits="userSpaceOnUse">
      <feOffset dy="3" input="SourceAlpha"/>
      <feGaussianBlur stdDeviation="3" result="blur-4"/>
      <feFlood flood-opacity="0.161"/>
      <feComposite operator="in" in2="blur-4"/>
      <feComposite in="SourceGraphic"/>
    </filter>
    <filter id="Icon_feather-message-square" x="401.619" y="206.671" width="372.632" height="205.733" filterUnits="userSpaceOnUse">
      <feOffset dy="3" input="SourceAlpha"/>
      <feGaussianBlur stdDeviation="3" result="blur-5"/>
      <feFlood flood-opacity="0.161"/>
      <feComposite operator="in" in2="blur-5"/>
      <feComposite in="SourceGraphic"/>
    </filter>
    <filter id="Icon_metro-calendar" x="596.642" y="580.171" width="187.585" height="172.588" filterUnits="userSpaceOnUse">
      <feOffset dy="3" input="SourceAlpha"/>
      <feGaussianBlur stdDeviation="3" result="blur-6"/>
      <feFlood flood-opacity="0.161"/>
      <feComposite operator="in" in2="blur-6"/>
      <feComposite in="SourceGraphic"/>
    </filter>
    <filter id="Rectangle_7" x="501.642" y="493.171" width="87" height="80" filterUnits="userSpaceOnUse">
      <feOffset dy="3" input="SourceAlpha"/>
      <feGaussianBlur stdDeviation="3" result="blur-7"/>
      <feFlood flood-opacity="0.161"/>
      <feComposite operator="in" in2="blur-7"/>
      <feComposite in="SourceGraphic"/>
    </filter>
    <filter id="Rectangle_8" x="726.642" y="471.171" width="58" height="55" filterUnits="userSpaceOnUse">
      <feOffset dy="3" input="SourceAlpha"/>
      <feGaussianBlur stdDeviation="3" result="blur-8"/>
      <feFlood flood-opacity="0.161"/>
      <feComposite operator="in" in2="blur-8"/>
      <feComposite in="SourceGraphic"/>
    </filter>
    <filter id="Rectangle_10" x="746.642" y="433.171" width="44" height="40" filterUnits="userSpaceOnUse">
      <feOffset dy="3" input="SourceAlpha"/>
      <feGaussianBlur stdDeviation="3" result="blur-9"/>
      <feFlood flood-opacity="0.161"/>
      <feComposite operator="in" in2="blur-9"/>
      <feComposite in="SourceGraphic"/>
    </filter>
    <filter id="Rectangle_11" x="772.642" y="453.171" width="41" height="36" filterUnits="userSpaceOnUse">
      <feOffset dy="3" input="SourceAlpha"/>
      <feGaussianBlur stdDeviation="3" result="blur-10"/>
      <feFlood flood-opacity="0.161"/>
      <feComposite operator="in" in2="blur-10"/>
      <feComposite in="SourceGraphic"/>
    </filter>
  </defs>
  <path id="Path_178" data-name="Path 178" d="M75.07-7.515c130.694-99.632,423.013-175.6,430.9,42.11,4.364,120.393-68.615,238.785-212.707,383.461-76.675,154.935-151.334,213.2-218.2,210.693C-74.511,623.13-41.576,256.525-41.576,256.525S-55.624,92.117,75.07-7.515Z" transform="translate(340.589 321.526)" fill="#2000ff" opacity="0.13"/>
  <path id="Path_177" data-name="Path 177" d="M85.224-18.227C227-107,544.114-174.687,552.674,19.292c4.734,107.27,3.282,356.262-113.58,488.61S157.758,550.923,85.224,548.685C-77.044,543.679-41.315,217.033-41.315,217.033S-56.554,70.545,85.224-18.227Z" transform="matrix(1, -0.017, 0.017, 1, 46.494, 115.449)" fill="#2000ff"/>
  <g transform="matrix(1, 0, 0, 1, 0, 0)" filter="url(#Rectangle_6)">
    <rect id="Rectangle_6-2" data-name="Rectangle 6" width="69" height="62" rx="10" transform="translate(510.64 592.17)" fill="#51e6c3"/>
  </g>
  <g transform="matrix(1, 0, 0, 1, 0, 0)" filter="url(#Path_171)">
    <path id="Path_171-2" data-name="Path 171" d="M9.524,0H110.476A9.79,9.79,0,0,1,120,10.037V97.358a9.79,9.79,0,0,1-9.524,10.037H9.524A9.79,9.79,0,0,1,0,97.358V10.037A9.79,9.79,0,0,1,9.524,0Z" transform="translate(605.64 457.17)" fill="#51e6c3"/>
  </g>
  <g transform="matrix(1, 0, 0, 1, 0, 0)" filter="url(#Rectangle_5)">
    <rect id="Rectangle_5-2" data-name="Rectangle 5" width="69" height="62" rx="10" transform="translate(510.64 664.17)" fill="#51e6c3"/>
  </g>
  <g id="Layer_2" data-name="Layer 2" transform="translate(-532.542 269.668)">
    <g id="Layer_1" data-name="Layer 1" transform="translate(660.05 26.33)">
      <path id="Path_78" data-name="Path 78" d="M704.23,28.33l-.18,2.14" transform="translate(-704.05 -28.33)" fill="none" stroke="#231f20" stroke-miterlimit="10" stroke-width="1"/>
      <path id="Path_118" data-name="Path 118" d="M767.33,572.3c-.89,2.25-2.61,5-.85,6.71.9.85,2.28.82,3.51.94,7.27.7,12,7.7,18.09,11.76,6.33,4.24,14.34,5.27,21.95,4.77,3.31-.22,6.74-.76,9.46-2.66s4.51-5.49,3.39-8.62c-.86-2.42-3.18-4-5.51-5.09-5-2.32-10.48-3.16-15.57-5.18s-10.07-5.73-11.22-11.09c-1.54-7.11,4.12-14.4,2.32-21.45a6.3,6.3,0,0,0-2.69-4c-5.75-3.33-16,7.48-19.59,11.47C764.57,556.5,770.25,564.92,767.33,572.3Z" transform="translate(-513.371 54.67)" fill="#fff" stroke="#231f20" stroke-miterlimit="10" stroke-width="1"/>
      <path id="Path_119" data-name="Path 119" d="M675.72,578.39c-1.45,3.5-3.27,7.19-2.48,10.9.67,3.12,3.06,5.53,5.34,7.76a7.05,7.05,0,0,0,6.51,2.56c4.85-.06,10.26-.66,13.41-4.35,2.17-2.55,2.78-6.12,2.58-9.47s-1.1-6.61-1.58-9.92a39.623,39.623,0,0,1-.2-10,11.64,11.64,0,0,0-.11-5.09c-.56-1.62-2.34-3-4-2.38a1.779,1.779,0,0,0-.74.49,4,4,0,0,0-.53,1A4.38,4.38,0,0,1,688.3,562c-1.45-.71-2.36-2.16-3.56-3.25-4.86-4.41-4.66,2.74-5.11,5.69a60.362,60.362,0,0,1-3.91,13.95Z" transform="translate(-513.371 54.67)" fill="#fff" stroke="#231f20" stroke-miterlimit="10" stroke-width="1"/>
      <path id="Path_120" data-name="Path 120" d="M644.83,201.3c-.76,6.86-1.53,13.76-3.34,20.42-1.31,4.86-3.16,9.55-4.68,14.34-1.68,5.3-2.95,10.72-4.21,16.14q-5.48,23.35-10.93,46.71c-2.32,9.92-3.16,20.53-6.82,30a20.59,20.59,0,0,0-1.57,5.34,14.271,14.271,0,0,0,.21,3.63,29,29,0,0,0,3.77,10.21c4.23,7,14.78,7.25,23,7.12a7.7,7.7,0,0,0-8.24-4.36l11.24-.11c-2.9-3.38-8.16-2.69-12.57-3.35a3.63,3.63,0,0,1-2.39-1.07,4,4,0,0,1-.69-2.07L625.94,332a35.189,35.189,0,0,0,3.33,8.57c1.42,2.57,3.63,5.23,6.57,5.2a2.45,2.45,0,0,0,1.6-.5c1.06-.93.55-2.63.09-4a21.329,21.329,0,0,1-.68-11.74c.61-2.74,1.77-5.37,2-8.17.41-5-2.21-9.75-4.74-14.11-2.71-4.68-.35-11.47,2.09-16.3s6-8.95,9-13.5A111.284,111.284,0,0,0,653.33,261c5.5-12.86,11.12-26.57,9-40.39,2.18-4.16,4.38-8.41,6.55-12.57,2.43-4.64,5-10.13,4-15.27-.84-4.25-4.5-7.51-8.57-9s-8.51-1.52-12.84-1.4C649.26,189,645.61,194.39,644.83,201.3Z" transform="translate(-513.918 51.67)" fill="#fff" stroke="#231f20" stroke-miterlimit="10" stroke-width="1"/>
      <path id="Path_121" data-name="Path 121" d="M824.74,195.54a27.867,27.867,0,0,0,0,8.6" transform="translate(-513.371 54.67)" fill="none" stroke="#231f20" stroke-miterlimit="10" stroke-width="1"/>
      <path id="Path_122" data-name="Path 122" d="M823.92,185.36c0-.92-1.22-1.22-2-1.69-1.26-.76-1.78-2.33-2.94-3.23a6.12,6.12,0,0,0-3.9-.94,18.54,18.54,0,0,0-7.44,1.47,11.56,11.56,0,0,0-5.54,5c-1.89,3.63-2.9,8.87-.4,12.11q1.77,2.31,3.32,4.79a2.45,2.45,0,0,0,1.76,1.31" transform="translate(-513.371 54.67)" fill="none" stroke="#231f20" stroke-miterlimit="10" stroke-width="1"/>
      <path id="Path_123" data-name="Path 123" d="M824,89.06q1.26,5.67,3.06,11.19" transform="translate(-513.371 54.67)" fill="none" stroke="#231f20" stroke-miterlimit="10" stroke-width="1"/>
      <path id="Path_124" data-name="Path 124" d="M830.11,83.44A122.666,122.666,0,0,1,832.69,96" transform="translate(-513.371 54.67)" fill="none" stroke="#231f20" stroke-miterlimit="10" stroke-width="1"/>
      <path id="Path_125" data-name="Path 125" d="M819.523,116.5c.576-.318.859-1.357,1.161-2.442a9.136,9.136,0,0,0,.254-1.179c.341-2.442-.342-4.239-.654-7.392a4.4,4.4,0,0,0-.137-1.132,19.963,19.963,0,0,0-.478-2.227c-1.054-7.926-1.864-13.8-2.479-16.731-.488-2.339-.185-4.772-.234-7.149a1.328,1.328,0,0,1,.166-.8,1.054,1.054,0,0,1,.478-.328,2.668,2.668,0,0,1,2.518.543,5.432,5.432,0,0,1,1.464,2.143,13.466,13.466,0,0,1,.732,2.162c0-3.256-.059-6.4-.059-9.666a1.511,1.511,0,0,1,.078-.59,1.131,1.131,0,0,1,.478-.515,2.789,2.789,0,0,1,3.406.739,7.376,7.376,0,0,1,1.425,3.313c.41,1.628.81,3.266,1.22,4.894a7.256,7.256,0,0,1,2.362-6.335,1.932,1.932,0,0,1,1.952-.608c.7.3.83,1.188.888,1.928a21.458,21.458,0,0,0,.9,4.679c.527,1.684,1.259,3.3,1.845,4.959a31.655,31.655,0,0,1,1.845,10.368,10.526,10.526,0,0,0,1.269,3.743c.137.318.488.711.781.505a.576.576,0,0,0,.176-.468,64.611,64.611,0,0,0-.488-13.1,5.484,5.484,0,0,1,.2-3.1c.429-1.039,1.425-2.283,2.313-2.143.2,0,.547.159,1.152,1.179a9.261,9.261,0,0,1,1.191,3.144c.469,3.275.566-.393,1.493,6.728.976,7.785,1.493,15.908,1.493,15.908.625,10.752.137,8.7.6,13.306.39,3.893.7,5.1.224,7.364-.4,1.872-1.191,3.743-1.805,7.589-.068.4-.166,1.011-.244,1.74a42.514,42.514,0,0,0,.312,10.031c.146,1.544,0,.73.185,8.179.2,8.263.351,8.74.41,12.661a229.876,229.876,0,0,1-1.483,24.62c-.166,1.563-.4,3.575-.878,6.1-.224,1.226-.371,1.815-.976,4.473-1.737,7.486-1.815,8.141-2.606,9.4-.547.88-2.381,3.818-5.046,3.986a17.96,17.96,0,0,1-2.479-.477c-2.391-.533-3.582-.8-5.114-1.207-2.04-.552-3.6-1.067-3.9-1.16-4.636-1.572-9.867-8.319-11.311-10.228-.468-.552-1.181-1.376-2.089-2.33-1.386-1.479-2.225-2.227-3.172-3.172a49.9,49.9,0,0,1-3.816-4.37c-7.573-9.358-11.36-14.036-10.394-17.489.976-3.593,7.251-5.025,16.113-7.29,1.669-.43,2.528-.936,3.806-.861,4.294.393,8.3,5.615,10.179,9.545.586,1.2.976,2.3,1.454,2.255.761-.075.9-2.976,1.571-7.617.634-4.379.771-3.575,1.562-8.581a89.021,89.021,0,0,0,1.347-11.8,58.5,58.5,0,0,0-.547-11.023c-.547-3.472-.82-5.212-1.464-6.223-3.006-4.763-8.784-2.807-13.419-7.935-1.854-2.077-.761-2.218-3.582-6.12a33.135,33.135,0,0,0-7.164-7.72c-2.713-2.049-4.45-2.573-4.363-3.743s2.186-2.4,4.031-2.47c.41,0,1.718,0,4.811,2.143,2.411,1.684,3,2.648,6.041,5.044S818.967,116.846,819.523,116.5Z" transform="translate(-512.021 64.699)" fill="#fff" stroke="#231f20" stroke-miterlimit="10" stroke-width="1"/>
      <path id="Path_126" data-name="Path 126" d="M670.37,350.17c-.45,7.21-2.26,14.47-.92,21.56.41,2.13,1.09,4.2,1.54,6.32a57.409,57.409,0,0,1,.81,12.08q-.07,16.44-.44,32.88c-1,44.27-2.89,88,.59,132.12a21.8,21.8,0,0,0,1.32,7c1.88,4.41,6.29,7.09,10.45,9.48a3.32,3.32,0,0,0,1.53.57,2.93,2.93,0,0,0,1.87-.84c2.7-2.24,4.24-5.59,6.7-8.1s6.77-4,9.39-1.65c3.4-4.54,4.67-10.38,4.75-16s-1-11.29-1.73-16.92c-1.89-13.68-2.27-27.75.88-41.2,1.29-5.49,3.15-10.83,4.29-16.35a118.477,118.477,0,0,0,1.88-18.81q1.29-29.71.51-59.47c-.23-8.68,7.37-15.07,8.86-23.62.54-3.07.37-6.3,1.56-9.17s4.48-5.28,7.33-4c.27,9.12.56,18.43,3.7,27,2.89,7.87,8.07,14.82,10.34,22.89,1.95,6.95,1.62,14.33,2.95,21.41,1.61,8.59,5.66,16.74,6,25.47.38,11.23,4.18,22.91,3.37,34.11-.44,6.27-1.45,12.55-.8,18.8.56,5.42,2.36,10.63,3.24,16a96.774,96.774,0,0,1,.82,16.24q-.12,16.88-.22,33.75c10.4-3.89,21.87,1,32.9-.35a7.1,7.1,0,0,0,3-.88,5.69,5.69,0,0,0,2.19-5.29,22.688,22.688,0,0,0-1.66-5.76c-2.75-7.68-3.15-16-3.53-24.12-.58-12.71-1.16-25.42-1.45-38.14-.68-30.7.4-61.47-2.2-92.07-.65-7.63-5.71-14.55-5.54-22.21.09-4.54,1.85-8.86,3.1-13.24A62.09,62.09,0,0,0,790,349c-.38-7.06-3.91-13.19-2.77-20.17.53-3.28,1.54-6.51,1.59-9.84s-.87-6.73-1.09-10.12c-.26-4,.45-7.95.08-11.9-.76-8-5.79-14.81-10.64-21.19a14.2,14.2,0,0,0-3.67-3.74,13.52,13.52,0,0,0-5.31-1.49c-9.22-1.21-18.84-2.07-28.14-1.53-7.34.43-16.63-1.64-23.4,1.82-4,2-6.68,5.93-10,9a30.89,30.89,0,0,1-19.8,8.34c-2.41.1-5.37.2-6.47,2.36a18.109,18.109,0,0,0-.73,2.67c-.9,2.75-4.14,3.67-6.63,2.78-.73,3.35-2.6,5.57-3.88,8.61-1.75,4.2-1.28,9.53-1,14C668.74,329.14,671,339.59,670.37,350.17Z" transform="translate(-513.371 54.67)" fill="#323635" stroke="#231f20" stroke-miterlimit="10" stroke-width="1"/>
      <path id="Path_127" data-name="Path 127" d="M710,96.22c-.37,3.07-.27,6.18-.6,9.26a16.21,16.21,0,0,1-3.13,8.6,20.7,20.7,0,0,1-2.55,2.49l-4.82,4.21a16.19,16.19,0,0,0-3,3.07c-2.32,3.48-1.63,8.08-.83,12.2s1.91,8.94,5.42,11.5a17.1,17.1,0,0,0,5.06,2.22c2.43.76,4.86,1.49,7.31,2.2a16.47,16.47,0,0,0,5.1.89c3.91-.15,7.13-3,10.2-5.39a74.39,74.39,0,0,1,9.4-6.34,39.727,39.727,0,0,0,6.74-4.3c4.75-4.18,6.5-10.7,9.48-16.28a2.44,2.44,0,0,0,.43-1.48c-.17-1-1.46-1.33-2.48-1.56a12.77,12.77,0,0,1-8.94-8.48,17.65,17.65,0,0,1,.91-12.57c.68-1.53-1.6-2.85-3.18-3.4a12.43,12.43,0,0,0-5-.24A54,54,0,0,1,721,91.91a19.211,19.211,0,0,0-4.05-.58C713.65,91.38,710.33,93,710,96.22Z" transform="translate(-513.371 54.67)" fill="#fff" stroke="#231f20" stroke-miterlimit="10" stroke-width="1"/>
      <path id="Path_128" data-name="Path 128" d="M758.88,66.09c1.17.61,1,2.32.62,3.6l-2.8,9.89a6.081,6.081,0,0,1-.61,1.6c-.78,1.31-2.34,1.88-3.55,2.8-.87.67-1.56,1.54-2.44,2.2a3.4,3.4,0,0,1-3.06.75.7.7,0,0,1-.35-.23.77.77,0,0,1-.12-.49,16.269,16.269,0,0,1,1.74-7.13,16,16,0,0,0,2-5.58c.12-1.45-.27-3.13.37-4.51C751.71,66.76,756.76,65,758.88,66.09Z" transform="translate(-513.371 54.67)" fill="#fff" stroke="#231f20" stroke-miterlimit="10" stroke-width="1"/>
      <path id="Path_129" data-name="Path 129" d="M747.75,70.51c1.82-.07,2.9-2,4.37-3.06s3.68-1.31,5.35-2.31c2.53-1.52,3.57-4.6,4.42-7.42.39-1.3.66-2.74,1.06-4a11.6,11.6,0,0,0-.39-8c-.75-1.75-.68-3.86-1.83-5.38a12.163,12.163,0,0,1-1.28-1.76c-.26-.53-.39-1.13-.62-1.67a4.92,4.92,0,0,0-3.46-2.87,20.777,20.777,0,0,0-3.24-2.88c-1.14-1-1.91-2.38-3-3.49-3.11-3.32-8-4-12.58-4.44-2.77-.29-5.53-.87-8.3-1.14a15.48,15.48,0,0,0-6.61.33c-.88.31-1.69.78-2.55,1.13a21.223,21.223,0,0,1-3.33,1l-7.9,1.86c-2.84.68-1.28,2.77-5.39,7.46-2.11,2.4-3.48,3.24-3.38,4.88s1.45,2.4,1.09,4.11c-.21,1-.74,1-1,2-.2.81-.11,1.85,1.77,4.89a39.994,39.994,0,0,0,3.24,4.54,1.22,1.22,0,0,0,1.31-.81A38.428,38.428,0,0,1,714.61,52a5.64,5.64,0,0,1,2.09.12,26.583,26.583,0,0,1,2.62,1.41,3.61,3.61,0,0,0,3.83-.84,28.579,28.579,0,0,1,7,1.33,10.29,10.29,0,0,1,5.62,4.46c.45.83.75,1.75,1.23,2.56a3.36,3.36,0,0,0,2.15,1.72c3.16.58,2.5,3.32,5.35,5.67A15.5,15.5,0,0,0,747.75,70.51Z" transform="translate(-513.371 54.67)" fill="#231f20" stroke="#231f20" stroke-miterlimit="10" stroke-width="1"/>
      <path id="Path_130" data-name="Path 130" d="M707,49.08l3.15-5.32c1.54-2.62,3.32-5.43,6.2-6.4a12,12,0,0,1,3.28-.48,46.61,46.61,0,0,1,11.92.64,21.52,21.52,0,0,1,10.58,5.26c1.61,1.54,3,3.85,2.11,5.9a5.281,5.281,0,0,0-.51,1.33c-.11.9.61,1.66,1.22,2.32,9.65,10.34,4,25.38-.06,36.9-1.77,5.07-6.64,8.59-11.82,10s-11,2.18-16.06.3a15.65,15.65,0,0,1-6.91-5.1,26.539,26.539,0,0,1-2.23-3.59c-1.44-2.64-3.13-5.43-3.69-8.38a56.48,56.48,0,0,1,4.07-33.79c-.45,0-.93.92-1.38.93v.39a2.22,2.22,0,0,1,.13-.91Z" transform="translate(-513.371 54.67)" fill="#fff" stroke="#231f20" stroke-miterlimit="10" stroke-width="1"/>
      <path id="Path_131" data-name="Path 131" d="M700.22,42.85a28.6,28.6,0,0,1-.76,10.09" transform="translate(-513.371 54.67)" fill="none"/>
      <path id="Path_132" data-name="Path 132" d="M701,50.66l-.53,3.65" transform="translate(-513.371 54.67)" fill="none" stroke="#231f20" stroke-miterlimit="10" stroke-width="1"/>
      <path id="Path_133" data-name="Path 133" d="M699.1,42.86a17.7,17.7,0,0,1-.71,7.48" transform="translate(-513.371 54.67)" fill="none" stroke="#231f20" stroke-miterlimit="10" stroke-width="1"/>
      <path id="Path_134" data-name="Path 134" d="M699.59,40.4l-2.86,4.3" transform="translate(-513.371 54.67)" fill="none" stroke="#231f20" stroke-miterlimit="10" stroke-width="1"/>
      <path id="Path_135" data-name="Path 135" d="M701,37.73a12,12,0,0,1-5.91-2.86" transform="translate(-513.371 54.67)" fill="none" stroke="#231f20" stroke-miterlimit="10" stroke-width="1"/>
      <path id="Path_136" data-name="Path 136" d="M698.89,33.48a15.538,15.538,0,0,0,3.44,2.41" transform="translate(-513.371 54.67)" fill="none" stroke="#231f20" stroke-miterlimit="10" stroke-width="1"/>
      <path id="Path_137" data-name="Path 137" d="M699.88,30.63A14.53,14.53,0,0,0,703.5,37" transform="translate(-513.371 54.67)" fill="none" stroke="#231f20" stroke-miterlimit="10" stroke-width="1"/>
      <path id="Path_138" data-name="Path 138" d="M701.15,27.87a7.69,7.69,0,0,0,1.79,5.38" transform="translate(-513.371 54.67)" fill="none" stroke="#231f20" stroke-miterlimit="10" stroke-width="1"/>
      <path id="Path_139" data-name="Path 139" d="M699.16,40.33a20.84,20.84,0,0,1-7.63-.31" transform="translate(-513.371 54.67)" fill="none" stroke="#231f20" stroke-miterlimit="10" stroke-width="1"/>
      <path id="Path_140" data-name="Path 140" d="M692.87,37.07a11,11,0,0,0,7,1.61" transform="translate(-513.371 54.67)" fill="none" stroke="#231f20" stroke-miterlimit="10" stroke-width="1"/>
      <path id="Path_141" data-name="Path 141" d="M693,43.75a13.63,13.63,0,0,0,6.25-2.15" transform="translate(-513.371 54.67)" fill="none" stroke="#231f20" stroke-miterlimit="10" stroke-width="1"/>
      <path id="Path_142" data-name="Path 142" d="M695,47.73a9.69,9.69,0,0,0,2.58-3.21" transform="translate(-513.371 54.67)" fill="none" stroke="#231f20" stroke-miterlimit="10" stroke-width="1"/>
      <path id="Path_143" data-name="Path 143" d="M700.22,47.13c0,3.19-.13,6.59-1.91,9.24" transform="translate(-513.371 54.67)" fill="none" stroke="#231f20" stroke-miterlimit="10" stroke-width="1"/>
      <path id="Path_144" data-name="Path 144" d="M701.45,51.11v4.12" transform="translate(-513.371 54.67)" fill="none" stroke="#231f20" stroke-miterlimit="10" stroke-width="1"/>
      <path id="Path_145" data-name="Path 145" d="M703,52.79a13.44,13.44,0,0,1-1,4.76" transform="translate(-513.371 54.67)" fill="none" stroke="#231f20" stroke-miterlimit="10" stroke-width="1"/>
      <path id="Path_146" data-name="Path 146" d="M697.14,33.69a4.54,4.54,0,0,0,3.7,3.19" transform="translate(-513.371 54.67)" fill="none" stroke="#231f20" stroke-miterlimit="10" stroke-width="1"/>
      <path id="Path_147" data-name="Path 147" d="M693.72,35.58a12.381,12.381,0,0,0,5,2.12" transform="translate(-513.371 54.67)" fill="none" stroke="#231f20" stroke-miterlimit="10" stroke-width="1"/>
      <path id="Path_148" data-name="Path 148" d="M691.21,38.55a10.8,10.8,0,0,0,5,1" transform="translate(-513.371 54.67)" fill="none" stroke="#231f20" stroke-miterlimit="10" stroke-width="1"/>
      <path id="Path_149" data-name="Path 149" d="M691.21,42.82a33.66,33.66,0,0,0,6.73-.2" transform="translate(-513.371 54.67)" fill="none" stroke="#231f20" stroke-miterlimit="10" stroke-width="1"/>
      <path id="Path_150" data-name="Path 150" d="M702.52,32.15V28.33C702.69,29.6,702.35,30.88,702.52,32.15Z" transform="translate(-513.371 54.67)" fill="none" stroke="#231f20" stroke-miterlimit="10" stroke-width="1"/>
      <path id="Path_151" data-name="Path 151" d="M704.23,28.33l-.18,2.14" transform="translate(-513.371 54.67)" fill="none" stroke="#231f20" stroke-miterlimit="10" stroke-width="1"/>
      <path id="Path_152" data-name="Path 152" d="M758.9,63.19a14.09,14.09,0,0,1-1.12,7" transform="translate(-513.371 54.67)" fill="none" stroke="#231f20" stroke-miterlimit="10" stroke-width="1"/>
      <path id="Path_153" data-name="Path 153" d="M692,46.1a7,7,0,0,0,4.56-2.76" transform="translate(-513.371 54.67)" fill="none" stroke="#231f20" stroke-miterlimit="10" stroke-width="1"/>
      <path id="Path_154" data-name="Path 154" d="M695.22,50.16a16.76,16.76,0,0,0,3-6.17" transform="translate(-513.371 54.67)" fill="none" stroke="#231f20" stroke-miterlimit="10" stroke-width="1"/>
      <path id="Path_155" data-name="Path 155" d="M691.19,41.42a10.43,10.43,0,0,0,4.53.62" transform="translate(-513.371 54.67)" fill="none" stroke="#231f20" stroke-miterlimit="10" stroke-width="1"/>
      <path id="Path_156" data-name="Path 156" d="M698.08,31.92l1,1.93" transform="translate(-513.371 54.67)" fill="none" stroke="#231f20" stroke-miterlimit="10" stroke-width="1"/>
      <g transform="matrix(1, 0, 0, 1, -127.51, -296)" filter="url(#Path_157)">
        <path id="Path_157-2" data-name="Path 157" d="M700.4,117.51c-4.58,1.33-6.11,7.15-5.63,11.89a10.151,10.151,0,0,0,1.52,4.88c2.15,3.05,6.42,3.5,10.15,3.67,6.51.29,13.11.56,19.46-.91s12.52-4.93,15.84-10.53c2.12-3.56,3.74-8.43,7.85-9a10,10,0,0,1,4.57.8l15.37,5.24c9.18,3.13,13.28,5.93,18.1,9.71,3.91,3.08,6.31,6,11.12,11.73,8.38,10.06,7.37,11.28,13.76,18.57,8.57,9.8,13.56,11.21,13.3,15.82-.39,6.73-11.41,11.56-11.62,11.29s12.12-9.86,12.07-9.91-5.82,4.74-12.07,9.91l-4.73,1.71c-2.47,2.27-8.41,7.18-13.72,5.45a10.46,10.46,0,0,1-3.87-2.62c-4.35-3.87-8.19-7.34-11.47-10.32-2.65,11.91-1.92,20.21-.68,25.68.68,3,1.68,5.91,1.6,10.55a114.463,114.463,0,0,1-1.6,13.76s-1.12,7.23.91,8.71l1.61,1.15.92,2.75a51.436,51.436,0,0,0,2.75,6.42,62.074,62.074,0,0,0,3.67,17c3.58,9.66,8.51,15.37,6.65,17.42-1.56,1.72-5.77-1.41-15.8-.56a26.879,26.879,0,0,1-3,.37c-12.06-.57-24.14-3.4-36.1-1.74-3.36.47-6.65,1.29-10,2a235.741,235.741,0,0,1-53.67,5.76c-2.94,1.65-5.51,3.66-8.37,5.44s-6.4,3-9.6,1.91c-.92-21.65,14.41-41.17,15-62.82a64,64,0,0,1,.36-8.43c.33-2.09,1-4.12,1.14-6.23.2-3-.71-6-1.38-8.91a58.469,58.469,0,0,1-1.25-18.32c-1,.06-1.47,1.45-2,2.34-1,1.63-3.4,1.53-5.26,1.05-6.46-1.69-12.76-5.67-19.32-4.4-1.44.28-2.91.82-4.33.47s-2.6-2.14-1.7-3.29c-.68-19.07,10.35-36.2,16.13-54.38,1.14-3.56,4.84-5.41,8.38-6.6s7.3-1.67,10.82-2.93C684.2,126.23,692.18,119,700.4,117.51Z" transform="translate(-385.86 350.67)" fill="#00ffdc"/>
      </g>
      <path id="Path_158" data-name="Path 158" d="M824.32,90.72A100.6,100.6,0,0,0,826.8,102" transform="translate(-513.371 61.67)" fill="none" stroke="#231f20" stroke-miterlimit="10" stroke-width="1"/>
      <path id="Path_159" data-name="Path 159" d="M830.1,83.7c.14,4.4,1.51,8.65,2.79,12.86.19.61.28,1.43-.29,1.71a84,84,0,0,1-2.21-11.46" transform="translate(-511.371 64.67)" fill="none" stroke="#231f20" stroke-miterlimit="10" stroke-width="1"/>
      <path id="Path_160" data-name="Path 160" d="M819.84,119.81a37.09,37.09,0,0,1,7.43,1.94,12.25,12.25,0,0,1,5.89,4.74" transform="translate(-513.371 61.67)" fill="none" stroke="#231f20" stroke-miterlimit="10" stroke-width="1"/>
      <path id="Path_161" data-name="Path 161" d="M827.31,186.52a21.68,21.68,0,0,0-.88,14.72" transform="translate(-513.371 58.67)" fill="none" stroke="#231f20" stroke-miterlimit="10" stroke-width="1"/>
    </g>
  </g>
  <g transform="matrix(1, 0, 0, 1, 0, 0)" filter="url(#Icon_feather-message-square)">
    <path id="Icon_feather-message-square-2" data-name="Icon feather-message-square" d="M358.774,129.656c0,11.52-2.685,20.859-24.425,20.859H38.922L4.5,192.233V25.359C4.5,13.839,3.225,4.5,24.965,4.5H341.327c21.74,0,17.447,9.339,17.447,20.859Z" transform="translate(406.13 208.17)" fill="#6dffd2"/>
  </g>
  <g id="Icon_feather-user-check" data-name="Icon feather-user-check" transform="translate(531.142 672.671)">
    <path id="Path_166" data-name="Path 166" d="M24,31.5v-3a6,6,0,0,0-6-6H7.5a6,6,0,0,0-6,6v3" fill="none" stroke="#fff" stroke-linecap="round" stroke-linejoin="round" stroke-width="3"/>
    <path id="Path_167" data-name="Path 167" d="M18.75,10.5a6,6,0,1,1-6-6A6,6,0,0,1,18.75,10.5Z" fill="none" stroke="#fff" stroke-linecap="round" stroke-linejoin="round" stroke-width="3"/>
    <path id="Path_168" data-name="Path 168" d="M25.5,16.5l3,3,6-6" fill="none" stroke="#fff" stroke-linecap="round" stroke-linejoin="round" stroke-width="3"/>
  </g>
  <g id="Icon_feather-edit" data-name="Icon feather-edit" transform="translate(631.634 474.549)">
    <path id="Path_169" data-name="Path 169" d="M35.571,6H10.238A7.156,7.156,0,0,0,3,13.071v49.5a7.156,7.156,0,0,0,7.238,7.071H60.9a7.156,7.156,0,0,0,7.238-7.071V37.819" transform="translate(-3 -0.182)" fill="none" stroke="#f8fff8" stroke-linecap="round" stroke-linejoin="round" stroke-width="5"/>
    <path id="Path_170" data-name="Path 170" d="M55.975,5.354a9.049,9.049,0,0,1,12.564,0,8.5,8.5,0,0,1,0,12.245L28.752,56.374,12,60.456l4.188-16.326Z" transform="translate(-3 0)" fill="none" stroke="#f8fff8" stroke-linecap="round" stroke-linejoin="round" stroke-width="5"/>
  </g>
  <path id="Icon_metro-calendar-2" data-name="Icon metro-calendar" d="M12.211,13.5h3.856v3.856H12.211Zm5.784,0h3.856v3.856H17.995Zm5.784,0h3.856v3.856H23.779ZM6.427,25.064h3.856v3.856H6.427Zm5.784,0h3.856v3.856H12.211Zm5.784,0h3.856v3.856H17.995ZM12.211,19.28h3.856v3.856H12.211Zm5.784,0h3.856v3.856H17.995Zm5.784,0h3.856v3.856H23.779Zm-17.352,0h3.856v3.856H6.427ZM27.635,1.928V3.856H23.779V1.928h-13.5V3.856H6.427V1.928H2.571V32.777H31.491V1.928H27.635Zm1.928,28.921H4.5V9.64H29.563Z" transform="translate(528.071 606.243)" fill="#fff6f6"/>
  <g transform="matrix(1, 0, 0, 1, 0, 0)" filter="url(#Icon_metro-calendar)">
    <path id="Icon_metro-calendar-3" data-name="Icon metro-calendar" d="M59.1,59.9H81.711V79.222H59.1Zm33.917,0h22.611V79.222H93.016Zm33.917,0h22.611V79.222H126.933ZM25.182,117.869H47.793v19.324H25.182Zm33.917,0H81.711v19.324H59.1Zm33.917,0h22.611v19.324H93.016ZM59.1,88.884H81.711v19.324H59.1Zm33.917,0h22.611v19.324H93.016Zm33.917,0h22.611v19.324H126.933Zm-101.751,0H47.793v19.324H25.182ZM149.545,1.928V11.59H126.933V1.928H47.793V11.59H25.182V1.928H2.571V156.516H172.156V1.928H149.545ZM160.85,146.855H13.876V40.575H160.85Z" transform="translate(603.07 584.24)" fill="#fff"/>
  </g>
  <g transform="matrix(1, 0, 0, 1, 0, 0)" filter="url(#Rectangle_7)">
    <rect id="Rectangle_7-2" data-name="Rectangle 7" width="69" height="62" rx="10" transform="translate(510.64 499.17)" fill="#51e6c3"/>
  </g>
  <g id="Icon_feather-users" data-name="Icon feather-users" transform="translate(529.142 512.171)">
    <path id="Path_172" data-name="Path 172" d="M25.5,31.5v-3a6,6,0,0,0-6-6H7.5a6,6,0,0,0-6,6v3" fill="none" stroke="#fff" stroke-linecap="round" stroke-linejoin="round" stroke-width="3"/>
    <path id="Path_173" data-name="Path 173" d="M19.5,10.5a6,6,0,1,1-6-6A6,6,0,0,1,19.5,10.5Z" fill="none" stroke="#fff" stroke-linecap="round" stroke-linejoin="round" stroke-width="3"/>
    <path id="Path_174" data-name="Path 174" d="M34.5,31.5v-3A6,6,0,0,0,30,22.7" fill="none" stroke="#fff" stroke-linecap="round" stroke-linejoin="round" stroke-width="3"/>
    <path id="Path_175" data-name="Path 175" d="M24,4.7A6,6,0,0,1,24,16.32" fill="none" stroke="#fff" stroke-linecap="round" stroke-linejoin="round" stroke-width="3"/>
  </g>
  <g transform="matrix(1, 0, 0, 1, 0, 0)" filter="url(#Rectangle_8)">
    <rect id="Rectangle_8-2" data-name="Rectangle 8" width="40" height="37" rx="10" transform="translate(735.64 477.17)" fill="#dcdcdc"/>
  </g>
  <rect id="Rectangle_9" data-name="Rectangle 9" width="40" height="37" rx="10" transform="translate(715.642 404.171)" fill="#f1f5f4"/>
  <g transform="matrix(1, 0, 0, 1, 0, 0)" filter="url(#Rectangle_10)">
    <rect id="Rectangle_10-2" data-name="Rectangle 10" width="26" height="22" rx="10" transform="translate(755.64 439.17)" fill="#d9e4e1"/>
  </g>
  <g transform="matrix(1, 0, 0, 1, 0, 0)" filter="url(#Rectangle_11)">
    <rect id="Rectangle_11-2" data-name="Rectangle 11" width="23" height="18" rx="9" transform="translate(781.64 459.17)" fill="#f1f1f1"/>
  </g>
  <path id="Path_176" data-name="Path 176" d="M1254.978,328.109" transform="translate(-1048.358 42.171)" fill="none" stroke="#707070" stroke-width="1"/>
  <rect id="Rectangle_12" data-name="Rectangle 12" width="282" height="20" rx="5" transform="translate(443.642 238.171)" fill="#fff" opacity="0.71"/>
  <rect id="Rectangle_13" data-name="Rectangle 13" width="181" height="20" rx="5" transform="translate(544.642 276.171)" fill="#fff" opacity="0.51"/>
  <rect id="Rectangle_14" data-name="Rectangle 14" width="276" height="20" rx="5" transform="translate(449.642 314.171)" fill="#fff" opacity="0.7"/>
</svg>
