<svg xmlns="http://www.w3.org/2000/svg" xmlns:xlink="http://www.w3.org/1999/xlink" width="1195" height="624" viewBox="0 0 1195 624">
  <defs>
    <linearGradient id="linear-gradient" x1="0.5" x2="0.5" y2="1" gradientUnits="objectBoundingBox">
      <stop offset="0" stop-color="#2000ff"/>
      <stop offset="1" stop-color="#fff"/>
    </linearGradient>
  </defs>
  <rect id="Rectangle_2" data-name="Rectangle 2" width="1195" height="624" fill="url(#linear-gradient)"/>
  <g id="Group_1" data-name="Group 1" transform="translate(182 20)">
    <path id="Path_2" data-name="Path 2" d="M917.171,686.534C899,722,875.947,756.3,846.782,787.342c-.648.7-1.3,1.384-1.962,2.079l-69.1-32.713c.423-.7.886-1.491,1.385-2.353,29.683-50.787,208.865-360.591,203.2-430.758C980.966,329.384,1002.2,520.766,917.171,686.534Z" transform="translate(-180.613 -230.566)" fill="#e6e6e6"/>
    <path id="Path_3" data-name="Path 3" d="M860.113,793.652c-.967.55-1.959,1.088-2.957,1.608L805.318,770.72c.725-.514,1.569-1.122,2.539-1.806,15.881-11.4,63.105-45.613,109.314-82.38,49.658-39.511,98.152-81.964,105.354-102.228C1021.06,588.952,975.611,730.2,860.113,793.652Z" transform="translate(-180.613 -230.566)" fill="#e6e6e6"/>
    <path id="b82a9922-ead1-40af-af3b-f133b244cde7" d="M919.705,223.485h-4v-87.65c0-28.016-28.385-50.728-63.4-50.728H620.218c-35.015,0-63.4,22.712-63.4,50.728V616.692c0,28.016,28.385,50.728,63.4,50.728H852.3c35.015,0,63.4-22.712,63.4-50.728V285.876h4Z" transform="translate(-180.613 -85.106)" fill="#3f3d56"/>
    <path id="b2a7827b-2d2c-407d-93be-35e4c67116bc" d="M854.862,101.6H824.567a14.675,14.675,0,0,1-2.157,16.64c-4.179,4.917-11.179,7.866-18.671,7.865H670.78c-7.489,0-14.489-2.948-18.668-7.864a14.675,14.675,0,0,1-2.159-16.639h-28.3c-26.15,0-47.348,16.76-47.348,37.435V613.492c0,20.675,21.2,37.435,47.348,37.435h233.2c26.15,0,47.348-16.76,47.348-37.435h0V139.034c0-20.675-21.2-37.435-47.348-37.435h.009Z" transform="translate(-180.106 -85.106)" fill="#fff"/>
    <circle id="e6b07811-3d0f-4972-ba4c-46b0c6566e33" cx="26" cy="26" r="26" transform="translate(540.614 480.286)" fill="#e6e6e6"/>
    <path id="Path_13" data-name="Path 13" d="M633.182,496.4c-2.458,0-4.458,2.283-4.458,5.088s2,5.088,4.458,5.088H843.325c2.458,0,4.458-2.283,4.458-5.088s-2-5.088-4.458-5.088Z" transform="translate(-173.084 -168.245)" fill="#e6e6e6"/>
    <path id="Path_14" data-name="Path 14" d="M633.182,616.405c-2.458,0-4.458,2.283-4.458,5.088s2,5.088,4.458,5.088H843.325c2.458,0,4.458-2.283,4.458-5.088s-2-5.088-4.458-5.088Z" transform="translate(-173.084 -192.501)" fill="#e6e6e6"/>
    <path id="Path_15" data-name="Path 15" d="M633.182,526.932c-2.458,0-4.458,2.283-4.458,5.088s2,5.088,4.458,5.088h90.425c2.458,0,4.458-2.283,4.458-5.088s-2-5.088-4.458-5.088Z" transform="translate(-170.346 -174.415)" fill="#e6e6e6"/>
    <path id="Path_16" data-name="Path 16" d="M633.182,556.03c-2.458,0-4.458,2.283-4.458,5.088s2,5.088,4.458,5.088H843.325c2.458,0,4.458-2.283,4.458-5.088s-2-5.088-4.458-5.088Z" transform="translate(-173.084 -180.297)" fill="#e6e6e6"/>
    <path id="Path_17" data-name="Path 17" d="M633.182,586.558c-2.458,0-4.458,2.283-4.458,5.088s2,5.088,4.458,5.088h90.425c2.458,0,4.458-2.283,4.458-5.088s-2-5.088-4.458-5.088Z" transform="translate(-170.346 -186.468)" fill="#e6e6e6"/>
    <path id="Path_19" data-name="Path 19" d="M775.793,383.777a3.7,3.7,0,1,0,0-7.4h-75.07a3.7,3.7,0,0,0,0,7.4Z" transform="translate(-172.192 -143.756)" fill="#fff"/>
    <path id="Path_20" data-name="Path 20" d="M775.793,361.975a3.7,3.7,0,0,0,0-7.4H700.727a3.7,3.7,0,0,0,0,7.4Z" transform="translate(-172.192 -139.366)" fill="#fff"/>
    <path id="Path_21" data-name="Path 21" d="M738.26,292.828a23.293,23.293,0,1,1-23.292,23.293h0A23.319,23.319,0,0,1,738.26,292.828Z" transform="translate(-172.005 -129.332)" fill="#fff"/>
    <path id="Path_26" data-name="Path 26" d="M1018.416,814.894H155.971a1,1,0,0,1,0-2h862.444a1,1,0,0,1,0,2Z" transform="translate(-155 -230.566)" fill="#cacaca"/>
    <g id="Icon_feather-settings" data-name="Icon feather-settings" transform="translate(459.203 102.565)">
      <path id="Path_29" data-name="Path 29" d="M22.5,18A4.5,4.5,0,1,1,18,13.5,4.5,4.5,0,0,1,22.5,18Z" transform="translate(40.651 31.305)" fill="none" stroke="#000" stroke-linecap="round" stroke-linejoin="round" stroke-width="3"/>
      <path id="Path_30" data-name="Path 30" d="M99.608,64.252a6.545,6.545,0,0,0,1.76,8.158l.32.269a7.995,7.995,0,0,1,0,12.685,12.14,12.14,0,0,1-15.089,0l-.32-.269a10.069,10.069,0,0,0-9.7-1.479c-3.223,1.161-5.318,3.821-5.332,6.768v.762c0,4.951-4.774,8.965-10.664,8.965S49.914,96.1,49.914,91.146v-.4c-.084-3.036-2.368-5.72-5.759-6.768a10.069,10.069,0,0,0-9.7,1.479l-.32.269a12.14,12.14,0,0,1-15.089,0,7.995,7.995,0,0,1,0-12.685l.32-.269a6.545,6.545,0,0,0,1.76-8.158,8.969,8.969,0,0,0-8.051-4.482h-.906c-5.89,0-10.664-4.014-10.664-8.965S6.274,42.2,12.164,42.2h.48c3.611-.071,6.8-1.991,8.051-4.841a6.545,6.545,0,0,0-1.76-8.158l-.32-.269a8.31,8.31,0,0,1-3.128-6.342,8.31,8.31,0,0,1,3.128-6.342,12.14,12.14,0,0,1,15.089,0l.32.269a10.069,10.069,0,0,0,9.7,1.479h.427c3.223-1.161,5.318-3.821,5.332-6.768v-.762c0-4.951,4.774-8.965,10.664-8.965s10.664,4.014,10.664,8.965v.4c.014,2.948,2.109,5.607,5.332,6.768a10.069,10.069,0,0,0,9.7-1.479l.32-.269a12.14,12.14,0,0,1,15.089,0,8.31,8.31,0,0,1,3.128,6.342,8.31,8.31,0,0,1-3.128,6.342l-.32.269A6.545,6.545,0,0,0,99.181,37v.359a8.969,8.969,0,0,0,8.051,4.482h.906c5.89,0,10.664,4.014,10.664,8.965s-4.774,8.965-10.664,8.965h-.48a8.969,8.969,0,0,0-8.051,4.482Z" transform="translate(-1.5 -1.5)" fill="none" stroke="#000" stroke-linecap="round" stroke-linejoin="round" stroke-width="3"/>
    </g>
    <g id="Icon_feather-settings-2" data-name="Icon feather-settings" transform="translate(518.203 179.565)">
      <path id="Path_29-2" data-name="Path 29" d="M22.5,18A4.5,4.5,0,1,1,18,13.5,4.5,4.5,0,0,1,22.5,18Z" transform="translate(40.651 31.305)" fill="none" stroke="#000" stroke-linecap="round" stroke-linejoin="round" stroke-width="3"/>
      <path id="Path_30-2" data-name="Path 30" d="M99.608,64.252a6.545,6.545,0,0,0,1.76,8.158l.32.269a7.995,7.995,0,0,1,0,12.685,12.14,12.14,0,0,1-15.089,0l-.32-.269a10.069,10.069,0,0,0-9.7-1.479c-3.223,1.161-5.318,3.821-5.332,6.768v.762c0,4.951-4.774,8.965-10.664,8.965S49.914,96.1,49.914,91.146v-.4c-.084-3.036-2.368-5.72-5.759-6.768a10.069,10.069,0,0,0-9.7,1.479l-.32.269a12.14,12.14,0,0,1-15.089,0,7.995,7.995,0,0,1,0-12.685l.32-.269a6.545,6.545,0,0,0,1.76-8.158,8.969,8.969,0,0,0-8.051-4.482h-.906c-5.89,0-10.664-4.014-10.664-8.965S6.274,42.2,12.164,42.2h.48c3.611-.071,6.8-1.991,8.051-4.841a6.545,6.545,0,0,0-1.76-8.158l-.32-.269a8.31,8.31,0,0,1-3.128-6.342,8.31,8.31,0,0,1,3.128-6.342,12.14,12.14,0,0,1,15.089,0l.32.269a10.069,10.069,0,0,0,9.7,1.479h.427c3.223-1.161,5.318-3.821,5.332-6.768v-.762c0-4.951,4.774-8.965,10.664-8.965s10.664,4.014,10.664,8.965v.4c.014,2.948,2.109,5.607,5.332,6.768a10.069,10.069,0,0,0,9.7-1.479l.32-.269a12.14,12.14,0,0,1,15.089,0,8.31,8.31,0,0,1,3.128,6.342,8.31,8.31,0,0,1-3.128,6.342l-.32.269A6.545,6.545,0,0,0,99.181,37v.359a8.969,8.969,0,0,0,8.051,4.482h.906c5.89,0,10.664,4.014,10.664,8.965s-4.774,8.965-10.664,8.965h-.48a8.969,8.969,0,0,0-8.051,4.482Z" transform="translate(-1.5 -1.5)" fill="none" stroke="#000" stroke-linecap="round" stroke-linejoin="round" stroke-width="3"/>
    </g>
    <g id="Icon_feather-settings-3" data-name="Icon feather-settings" transform="translate(566.203 100.565)">
      <path id="Path_29-3" data-name="Path 29" d="M22.5,18A4.5,4.5,0,1,1,18,13.5,4.5,4.5,0,0,1,22.5,18Z" transform="translate(24.012 18.258)" fill="none" stroke="#000" stroke-linecap="round" stroke-linejoin="round" stroke-width="3"/>
      <path id="Path_30-3" data-name="Path 30" d="M71.774,47.647a4.9,4.9,0,0,0,1.26,6l.229.2a5.975,5.975,0,0,1,0,9.328,8.519,8.519,0,0,1-10.808,0l-.229-.2a7.061,7.061,0,0,0-6.951-1.088,5.486,5.486,0,0,0-3.819,4.977v.56c0,3.641-3.42,6.592-7.638,6.592s-7.638-2.952-7.638-6.592v-.3a5.563,5.563,0,0,0-4.125-4.977A7.061,7.061,0,0,0,25.1,63.238l-.229.2a8.519,8.519,0,0,1-10.808,0,5.975,5.975,0,0,1,0-9.328l.229-.2a4.9,4.9,0,0,0,1.26-6,6.393,6.393,0,0,0-5.767-3.3H9.138c-4.219,0-7.638-2.952-7.638-6.592s3.42-6.592,7.638-6.592h.344a6.309,6.309,0,0,0,5.767-3.56,4.9,4.9,0,0,0-1.26-6l-.229-.2a6.171,6.171,0,0,1-2.24-4.664,6.171,6.171,0,0,1,2.24-4.664,8.519,8.519,0,0,1,10.808,0l.229.2a7.061,7.061,0,0,0,6.951,1.088h.306a5.486,5.486,0,0,0,3.819-4.977v-.56c0-3.641,3.42-6.592,7.638-6.592S51.15,4.452,51.15,8.092v.3a5.486,5.486,0,0,0,3.819,4.977,7.061,7.061,0,0,0,6.951-1.088l.229-.2a8.519,8.519,0,0,1,10.808,0,6.171,6.171,0,0,1,2.24,4.664,6.171,6.171,0,0,1-2.24,4.664l-.229.2a4.9,4.9,0,0,0-1.26,6v.264a6.393,6.393,0,0,0,5.767,3.3h.649c4.219,0,7.638,2.952,7.638,6.592s-3.42,6.592-7.638,6.592h-.344a6.393,6.393,0,0,0-5.767,3.3Z" transform="translate(-1.5 -1.5)" fill="none" stroke="#000" stroke-linecap="round" stroke-linejoin="round" stroke-width="3"/>
    </g>
  </g>
  <text id="Android_phones_managment" data-name="Android
phones
managment" transform="translate(52 259)" fill="#fff" font-size="66" font-family="Arial-BoldMT, Arial" font-weight="700"><tspan x="0" y="0">Android </tspan><tspan x="0" y="76">phones</tspan><tspan x="0" y="152">managment</tspan></text>
</svg>
