<svg xmlns="http://www.w3.org/2000/svg" xmlns:xlink="http://www.w3.org/1999/xlink" width="1188" height="624" viewBox="0 0 1188 624">
  <defs>
    <linearGradient id="linear-gradient" x1="0.5" x2="0.5" y2="1" gradientUnits="objectBoundingBox">
      <stop offset="0" stop-color="#2000ff"/>
      <stop offset="1" stop-color="#fff"/>
    </linearGradient>
  </defs>
  <rect id="Rectangle_2" data-name="Rectangle 2" width="1188" height="624" fill="url(#linear-gradient)"/>
  <g id="Group_1" data-name="Group 1" transform="translate(-23 45)">
    <rect id="Rectangle_62" data-name="Rectangle 62" width="562.796" height="267.056" transform="translate(341.011 15.429)" fill="#e6e6e6"/>
    <rect id="Rectangle_75" data-name="Rectangle 75" width="530.61" height="222.814" transform="translate(357.104 38.33)" fill="#fff"/>
    <rect id="Rectangle_80" data-name="Rectangle 80" width="562.796" height="23.909" transform="translate(340.771)" fill="#6c63ff"/>
    <circle id="Ellipse_90" data-name="Ellipse 90" cx="4.431" cy="4.431" r="4.431" transform="translate(354.108 6.628)" fill="#fff"/>
    <circle id="Ellipse_91" data-name="Ellipse 91" cx="4.431" cy="4.431" r="4.431" transform="translate(370.928 6.628)" fill="#fff"/>
    <circle id="Ellipse_92" data-name="Ellipse 92" cx="4.431" cy="4.431" r="4.431" transform="translate(387.749 6.628)" fill="#fff"/>
    <path id="Path_142" data-name="Path 142" d="M742.529,286.635a2.147,2.147,0,1,0,0,4.294h117.8a2.147,2.147,0,0,0,0-4.294Z" transform="translate(-148.096 -192.174)" fill="#e6e6e6"/>
    <path id="Path_143" data-name="Path 143" d="M742.529,299.518a2.147,2.147,0,1,0,0,4.294H802.67a2.147,2.147,0,1,0,0-4.294Z" transform="translate(-148.096 -191.715)" fill="#e6e6e6"/>
    <path id="Path_142-2" data-name="Path 142" d="M739.564,361.871a2.147,2.147,0,0,0,0,4.294H960.447a2.147,2.147,0,0,0,0-4.294Z" transform="translate(-148.096 -189.491)" fill="#e6e6e6"/>
    <path id="Path_143-2" data-name="Path 143" d="M739.564,374.754a2.147,2.147,0,1,0,0,4.294H902.785a2.147,2.147,0,1,0,0-4.294Z" transform="translate(-148.096 -189.031)" fill="#e6e6e6"/>
    <path id="Path_142-3" data-name="Path 142" d="M739.564,387.345a2.147,2.147,0,1,0,0,4.294H960.447a2.147,2.147,0,1,0,0-4.294Z" transform="translate(-148.096 -188.582)" fill="#e6e6e6"/>
    <path id="Path_143-3" data-name="Path 143" d="M739.564,400.227a2.147,2.147,0,1,0,0,4.294H902.785a2.147,2.147,0,1,0,0-4.294Z" transform="translate(-148.096 -188.123)" fill="#e6e6e6"/>
    <path id="Path_8" data-name="Path 8" d="M18.694,0A18.694,18.694,0,1,1,0,18.694,18.694,18.694,0,0,1,18.694,0Z" transform="translate(457.295 143.134)" fill="#e2d3d5"/>
    <path id="Path_2" data-name="Path 2" d="M618.165,336.934s8.724,2.337,13.242,3.272,4.05-1.714,4.05-1.714,5.92.779,5.608.156,2.493-3.895-.779-7.634-2.337-6.543-2.337-6.543h-2.8l-.779-1.091H630s-4.823-4.229-13.391-2.983-18.7,4.54-19.636,9.681c-.127.7-.294,1.472-.487,2.29-2.343,9.891,2.635,19.146,7.8,27.9,1.269,2.152,7.407,6.844,7.25,3.625s-5.525-10.45-1.786-10.917S619.879,343.01,618.165,336.934Z" transform="translate(-148.096 -190.466)" fill="#2f2e41"/>
    <path id="Path_3" data-name="Path 3" d="M613.48,412.325a65.379,65.379,0,0,1-10.7-1.758l.2-3.728,1.637-29.642.015-.227H637.56l5.168,27.293.7,3.682c-1.364.53-2.743,1.031-4.152,1.47-.016,0-.016.015-.03.015-1.955.606-3.94,1.137-5.941,1.576a68.559,68.559,0,0,1-8.062,1.243,62.027,62.027,0,0,1-6.3.3C617.117,412.552,615.284,412.477,613.48,412.325Z" transform="translate(-148.096 -188.392)" fill="#6c63ff"/>
    <path id="Path_4" data-name="Path 4" d="M592.309,407.051c-1.364-.591-2.682-1.228-3.985-1.894l-.561-.288c-.379-.2-.773-.409-1.151-.621q-.774-.432-1.5-.864c-.47-.273-.955-.561-1.424-.849-.03-.015-.045-.03-.076-.03-1.637-1.046-3.243-2.122-4.789-3.288l-.773-.591-.272-4.364.394-.243L604.615,377.2l.363-.227.03-.015,3.728.015v13.882c2.107,3.046,3.531,9.426,4.41,17.776.121,1.2.227,2.425.334,3.7a65.379,65.379,0,0,1-10.7-1.758c-.379-.076-.743-.167-1.122-.273a62.7,62.7,0,0,1-6.516-2.091c-.652-.243-1.288-.5-1.925-.758l-.061-.03C592.885,407.294,592.582,407.173,592.309,407.051Z" transform="translate(-148.096 -188.396)" fill="#2f2e41"/>
    <path id="Path_5" data-name="Path 5" d="M586.612,404.248q-.774-.432-1.5-.864c-.47-.273-.955-.561-1.424-.849-.03-.015-.045-.03-.076-.03-1.637-1.046-3.243-2.122-4.789-3.288l-.773-.591c-.121-.106-.242-.2-.379-.3-.969-.743-1.909-1.515-2.819-2.334-.045-.03-.076-.076-.121-.106a10.422,10.422,0,0,1,3.046-1.621l1.076.318,7.668,2.3.045,3.107Z" transform="translate(-148.096 -188.231)" fill="#2f2e41"/>
    <path id="Path_6" data-name="Path 6" d="M651.185,404.293c-.455.242-.909.485-1.364.712-.107.061-.2.106-.288.152-.607.3-1.2.606-1.8.894-.016.015-.046.015-.046.03-.03.015-.076.03-.106.046-1.364.652-2.743,1.258-4.153,1.818-1.364.53-2.743,1.031-4.152,1.47-.016,0-.016.015-.03.015-1.955.606-3.94,1.137-5.941,1.576a12.505,12.505,0,0,1,.485-3.683l.015-.212,1.3-21.095-1.743-9.047,5-.743,27.5,14.806s-3.031,3.031-15.473,9.487C649.3,401.091,650.911,402.99,651.185,404.293Z" transform="translate(-148.096 -188.436)" fill="#2f2e41"/>
    <path id="Path_7" data-name="Path 7" d="M624.907,408.612c-1.971.182-3.971.273-5.971.273-1.94,0-3.865-.076-5.789-.258.121,1.2.227,2.425.334,3.7,1.8.152,3.637.227,5.456.227a62.045,62.045,0,0,0,6.3-.3,68.547,68.547,0,0,0,8.062-1.243,12.505,12.505,0,0,1,.485-3.683l.015-.212a63,63,0,0,1-8.9,1.5Zm57.268-85.047a66.972,66.972,0,1,0-115.734,63.619c.606.758,1.228,1.515,1.864,2.243.061.061.091.106.136.152a63.817,63.817,0,0,0,4.986,5.137c.425.394.864.788,1.3,1.167.046.03.076.076.121.106.909.818,1.849,1.591,2.819,2.334.137.106.258.2.379.3l.773.591c1.546,1.167,3.152,2.243,4.789,3.288.03,0,.045.015.076.03.47.288.955.576,1.424.849q.728.432,1.5.864c.379.212.773.424,1.151.621l.561.288c1.3.667,2.622,1.3,3.985,1.894.273.121.576.242.849.364l.061.03c.636.258,1.273.515,1.925.758a62.7,62.7,0,0,0,6.516,2.091c.379.106.743.2,1.122.273a65.382,65.382,0,0,0,10.7,1.758c1.8.152,3.637.227,5.456.227a62.036,62.036,0,0,0,6.3-.3,68.548,68.548,0,0,0,8.062-1.243c2-.439,3.986-.97,5.941-1.576.015,0,.015-.015.03-.015,1.409-.439,2.788-.94,4.152-1.47,1.41-.561,2.789-1.167,4.153-1.818.03-.015.076-.03.106-.046,0-.015.03-.015.046-.03.606-.288,1.2-.591,1.8-.894.091-.046.181-.091.288-.152.454-.227.909-.47,1.364-.712.03-.015.045-.03.076-.046,1.2-.667,2.38-1.364,3.547-2.106.318-.2.636-.394.955-.621.47-.288.924-.606,1.364-.924.591-.409,1.182-.833,1.758-1.273a4.68,4.68,0,0,0,.545-.409c1.41-1.061,2.773-2.182,4.076-3.364a66.914,66.914,0,0,0,18.67-71.984Zm-19.807,68.074A64.813,64.813,0,0,1,657.216,396c-.394.3-.8.606-1.212.879-.394.3-.788.591-1.2.864-.349.243-.7.485-1.061.712-.03.03-.076.045-.106.076-.258.182-.531.349-.788.515-.8.5-1.637,1-2.455,1.47-.2.106-.379.227-.576.333-.107.061-.212.121-.334.182-.454.258-.909.485-1.364.727-.061.045-.136.061-.2.106a.112.112,0,0,0-.061.03c-.318.167-.636.318-.955.47-.273.136-.531.273-.8.394-1.106.53-2.243,1.03-3.379,1.5-1.2.485-2.409.924-3.637,1.334-.3.106-.622.227-.94.318-1.44.455-2.879.864-4.349,1.2a63.01,63.01,0,0,1-8.9,1.5c-1.97.182-3.971.273-5.971.273-1.94,0-3.865-.076-5.789-.258a62.372,62.372,0,0,1-10.169-1.788c-.121-.03-.258-.061-.379-.091a58.117,58.117,0,0,1-8.017-2.728c-.136-.061-.288-.106-.409-.167-.152-.061-.288-.106-.409-.167-.152-.061-.288-.121-.424-.182-1.137-.5-2.243-1.046-3.349-1.606l-.516-.273c-.985-.515-1.955-1.046-2.91-1.637-.333-.182-.682-.394-1.015-.606-.379-.227-.758-.47-1.122-.712l-.272-.182c-.849-.576-1.712-1.152-2.531-1.773-.576-.424-1.137-.833-1.7-1.273-.364-.273-.727-.561-1.076-.864-.227-.167-.454-.364-.682-.561-.3-.258-.606-.515-.909-.788-.47-.379-.909-.8-1.334-1.2a60.23,60.23,0,0,1-4.834-5c-.515-.576-1-1.152-1.47-1.758a3.651,3.651,0,0,1-.3-.379,63.3,63.3,0,1,1,93.048,6.744Z" transform="translate(-148.096 -190.997)" fill="#3f3d56"/>
  </g>
  <text id="PROFILE" transform="translate(344 486)" font-size="118" font-family="Arial-BoldMT, Arial" font-weight="700"><tspan x="0" y="0">PROFILE</tspan></text>
  <text id="DARK_THEAM" data-name="DARK THEAM" transform="translate(362 569)" font-size="49" font-family="Arial-BoldMT, Arial" font-weight="700"><tspan x="0" y="0">DARK THEAM</tspan></text>
  <rect id="Rectangle_1" data-name="Rectangle 1" width="379" height="139" transform="translate(501 365)" fill="#0357ff" opacity="0.53"/>
</svg>
